<?xml version="1.0" encoding="UTF-8" standalone="no"?>
<!DOCTYPE svg PUBLIC "-//W3C//DTD SVG 1.0//EN" "http://www.w3.org/TR/2001/REC-SVG-20010904/DTD/svg10.dtd">
<!-- Generated by Microsoft Visio 11.0, SVG Export, v1.0 MARK 2 Drive Base v3.svg Page-1 -->
<svg xmlns="http://www.w3.org/2000/svg" xmlns:xlink="http://www.w3.org/1999/xlink" xmlns:ev="http://www.w3.org/2001/xml-events"
		xmlns:v="http://schemas.microsoft.com/visio/2003/SVGExtensions/" width="15.4657in" height="17.7986in"
		viewBox="0 0 1113.53 1281.5" xml:space="preserve" color-interpolation-filters="sRGB" class="st8">
	<v:documentProperties v:langID="1033" v:viewMarkup="false"/>

	<style type="text/css">
	<![CDATA[
		.st1 {fill:none;stroke:#000000;stroke-linecap:round;stroke-linejoin:round;stroke-width:0.75}
		.st2 {fill:none;stroke:none;stroke-linecap:round;stroke-linejoin:round;stroke-width:0.75}
		.st3 {fill:#00ff00;font-family:Calibri;font-size:1.00001em}
		.st4 {font-size:1em}
		.st5 {fill:none;stroke:#ff0000;stroke-linecap:round;stroke-linejoin:round;stroke-width:0.75}
		.st6 {fill:#00ff00;font-family:Calibri;font-size:0.666664em}
		.st7 {fill:none;stroke:#000000;stroke-linecap:round;stroke-linejoin:round;stroke-width:0.24}
		.st8 {fill:none;fill-rule:evenodd;font-size:12px;overflow:visible;stroke-linecap:square;stroke-miterlimit:3}
	]]>
	</style>

	<g v:mID="0" v:index="1" v:groupContext="foregroundPage">
		<title>Page-1</title>
		<v:pageProperties v:drawingScale="1" v:pageScale="1" v:drawingUnits="0" v:shadowOffsetX="0" v:shadowOffsetY="0"/>
		<g id="shape1-1" v:mID="1" v:groupContext="shape" transform="translate(74.0684,-958.968)">
			<title>Circle - radius.1</title>
			<v:userDefs>
				<v:ud v:nameU="visVersion" v:val="VT0(14):26"/>
			</v:userDefs>
			<path d="M-9.92 1281.5 A9.92126 9.92126 0 0 1 9.92 1281.5 A9.92126 9.92126 0 0 1 -9.92 1281.5 Z" class="st1"/>
		</g>
		<g id="shape2-3" v:mID="2" v:groupContext="shape" transform="translate(1018.01,-958.968)">
			<title>Circle - radius.2</title>
			<v:userDefs>
				<v:ud v:nameU="visVersion" v:val="VT0(14):26"/>
			</v:userDefs>
			<path d="M-9.92 1281.5 A9.92126 9.92126 0 1 1 9.92 1281.5 A9.92126 9.92126 0 1 1 -9.92 1281.5 Z" class="st1"/>
		</g>
		<g id="shape3-5" v:mID="3" v:groupContext="shape" transform="translate(1015.17,-457.236)">
			<title>Circle - radius.3</title>
			<v:userDefs>
				<v:ud v:nameU="visVersion" v:val="VT0(14):26"/>
			</v:userDefs>
			<path d="M-9.92 1281.5 A9.92126 9.92126 0 1 1 9.92 1281.5 A9.92126 9.92126 0 1 1 -9.92 1281.5 Z" class="st1"/>
		</g>
		<g id="shape4-7" v:mID="4" v:groupContext="shape" transform="translate(74.0684,-457.236)">
			<title>Circle - radius.4</title>
			<v:userDefs>
				<v:ud v:nameU="visVersion" v:val="VT0(14):26"/>
			</v:userDefs>
			<path d="M-9.92 1281.5 A9.92126 9.92126 0 0 1 9.92 1281.5 A9.92126 9.92126 0 0 1 -9.92 1281.5 Z" class="st1"/>
		</g>
		<g id="shape5-9" v:mID="5" v:groupContext="shape" transform="translate(1942.73,655.421) rotate(90)">
			<title>Circle.5</title>
			<v:userDefs>
				<v:ud v:nameU="visVersion" v:val="VT0(14):26"/>
			</v:userDefs>
			<path d="M0 1260.24 A21.2598 21.2598 0 0 1 42.52 1260.24 A21.2598 21.2598 0 1 1 0 1260.24 Z" class="st1"/>
		</g>
		<g id="shape6-11" v:mID="6" v:groupContext="shape" transform="translate(1666.99,655.421) rotate(90)">
			<title>Circle.6</title>
			<v:userDefs>
				<v:ud v:nameU="visVersion" v:val="VT0(14):26"/>
			</v:userDefs>
			<path d="M0 1260.24 A21.2598 21.2598 0 0 1 42.52 1260.24 A21.2598 21.2598 0 1 1 0 1260.24 Z" class="st1"/>
		</g>
		<g id="group7-13" transform="translate(112.053,-627.314)" v:mID="7" v:groupContext="group">
			<title>Sheet.7</title>
			<g id="shape8-14" v:mID="8" v:groupContext="shape" transform="translate(6.99441E-015,-141.733)">
				<title>Circle.68</title>
				<v:userDefs>
					<v:ud v:nameU="visVersion" v:val="VT0(14):26"/>
				</v:userDefs>
				<path d="M0 1273 A8.50394 8.50394 0 1 1 17.01 1273 A8.50394 8.50394 0 0 1 0 1273 Z" class="st1"/>
			</g>
			<g id="shape9-16" v:mID="9" v:groupContext="shape">
				<title>Circle.70</title>
				<v:userDefs>
					<v:ud v:nameU="visVersion" v:val="VT0(14):26"/>
				</v:userDefs>
				<path d="M0 1273 A8.50394 8.50394 0 1 1 17.01 1273 A8.50394 8.50394 0 0 1 0 1273 Z" class="st1"/>
			</g>
		</g>
		<g id="shape10-18" v:mID="10" v:groupContext="shape" transform="translate(0,-139.756)">
			<title>Sheet.10</title>
			<path d="M0 934.26 A319.939 319.939 -176.1 0 0 71.4 1043.11 L216.08 1187.79 A319.939 319.939 -2.66 0 0 442.31 1281.5
						 L646.93 1281.5 A319.939 319.939 -3.6 0 0 873.16 1187.79 L1017.84 1043.11 A319.939 319.939 -178.22 0 0 1089.24
						 934.26 L998.16 934.26 L998.16 494.89 L1089.24 494.89 A319.939 319.939 -171.71 0 0 1087.19 489.83 A319.939
						 319.939 -178.16 0 0 1017.84 386.03 L873.16 241.35 A319.939 319.939 -1.37 0 0 646.93 147.64 L442.31 147.64
						 A319.939 319.939 -4.78 0 0 216.08 241.35 L71.4 386.03 A319.939 319.939 -176.85 0 0 -0 494.89 L91.08 494.89
						 L91.08 934.26 L0 934.26 Z" class="st1"/>
		</g>
		<g id="shape11-20" v:mID="11" v:groupContext="shape" transform="translate(241.911,-227.897)">
			<title>Sheet.11</title>
			<desc>MARK 2 Drive Base 2012-05-29</desc>
			<v:textBlock v:margins="rect(4,4,4,4)"/>
			<v:textRect cx="49.1928" cy="1259.23" width="98.39" height="44.5433"/>
			<rect x="0" y="1236.96" width="98.3855" height="44.5433" class="st2"/>
			<text x="29.82" y="1248.43" class="st3" v:langID="1033"><v:paragraph v:horizAlign="1"/><v:tabList/>MARK 2<v:newlineChar/><tspan
						x="23.51" dy="1.2em" class="st4">Drive Base<v:newlineChar/></tspan><tspan x="21.19" dy="1.2em" class="st4">2012</tspan>-05-29</text>		</g>
		<g id="shape12-25" v:mID="12" v:groupContext="shape" transform="translate(804.942,2045.77) rotate(180)">
			<title>Rectangle.12</title>
			<v:userDefs>
				<v:ud v:nameU="visVersion" v:val="VT0(14):26"/>
			</v:userDefs>
			<rect x="0" y="1044.52" width="128.693" height="236.976" class="st5"/>
		</g>
		<g id="shape13-27" v:mID="13" v:groupContext="shape" transform="translate(791.759,2262.76) rotate(180)">
			<title>Circle.13</title>
			<v:userDefs>
				<v:ud v:nameU="visVersion" v:val="VT0(14):26"/>
			</v:userDefs>
			<path d="M0 1276.68 A4.8189 4.8189 0 0 1 9.64 1276.68 A4.8189 4.8189 0 1 1 -0 1276.68 Z" class="st1"/>
		</g>
		<g id="shape14-29" v:mID="14" v:groupContext="shape" transform="translate(689.432,-497.243)">
			<title>Circle.14</title>
			<v:userDefs>
				<v:ud v:nameU="visVersion" v:val="VT0(14):26"/>
			</v:userDefs>
			<path d="M0 1276.68 A4.8189 4.8189 0 0 1 9.64 1276.68 A4.8189 4.8189 0 1 1 -0 1276.68 Z" class="st1"/>
		</g>
		<g id="shape15-31" v:mID="15" v:groupContext="shape" transform="translate(791.759,2056.12) rotate(180)">
			<title>Circle.15</title>
			<v:userDefs>
				<v:ud v:nameU="visVersion" v:val="VT0(14):26"/>
			</v:userDefs>
			<path d="M0 1276.68 A4.8189 4.8189 0 0 1 9.64 1276.68 A4.8189 4.8189 0 1 1 -0 1276.68 Z" class="st1"/>
		</g>
		<g id="shape16-33" v:mID="16" v:groupContext="shape" transform="translate(699.07,2262.76) rotate(180)">
			<title>Circle.16</title>
			<v:userDefs>
				<v:ud v:nameU="visVersion" v:val="VT0(14):26"/>
			</v:userDefs>
			<path d="M0 1276.68 A4.8189 4.8189 0 0 1 9.64 1276.68 A4.8189 4.8189 0 1 1 -0 1276.68 Z" class="st1"/>
		</g>
		<g id="shape17-35" v:mID="17" v:groupContext="shape" transform="translate(688.596,-461.878)">
			<title>Sheet.17</title>
			<desc>Breadboard</desc>
			<v:textBlock v:margins="rect(4,4,4,4)"/>
			<v:textRect cx="52" cy="1273.5" width="104" height="16"/>
			<rect x="0" y="1265.5" width="104" height="16" class="st2"/>
			<text x="32.8" y="1275.9" class="st6" v:langID="1033"><v:paragraph v:horizAlign="1"/><v:tabList/>Breadboard</text>		</g>
		<g id="group18-38" transform="translate(1403.26,1212.56) rotate(90)" v:mID="18" v:groupContext="group">
			<title>Sheet.18</title>
			<g id="group19-39" transform="translate(20.233,-22.3225)" v:mID="19" v:groupContext="group">
				<title>Sheet.19</title>
				<g id="shape20-40" v:mID="20" v:groupContext="shape" transform="translate(6.99441E-015,-141.733)">
					<title>Circle.67</title>
					<v:userDefs>
						<v:ud v:nameU="visVersion" v:val="VT0(14):26"/>
					</v:userDefs>
					<path d="M0 1273 A8.50394 8.50394 0 1 1 17.01 1273 A8.50394 8.50394 0 0 1 0 1273 Z" class="st1"/>
				</g>
				<g id="shape21-42" v:mID="21" v:groupContext="shape">
					<title>Circle.70</title>
					<v:userDefs>
						<v:ud v:nameU="visVersion" v:val="VT0(14):26"/>
					</v:userDefs>
					<path d="M0 1273 A8.50394 8.50394 0 1 1 17.01 1273 A8.50394 8.50394 0 0 1 0 1273 Z" class="st1"/>
				</g>
			</g>
			<g id="shape22-44" v:mID="22" v:groupContext="shape" transform="translate(-1223.46,1281.5) rotate(-90)">
				<title>Rounded rectangle.5</title>
				<v:userDefs>
					<v:ud v:nameU="visVersion" v:val="VT0(14):26"/>
				</v:userDefs>
				<path d="M189.21 1281.5 A14.1733 14.1733 -180 0 0 203.39 1267.33 L203.39 1237.63 A14.1733 14.1733 -180 0 0 189.21
							 1223.46 L14.17 1223.46 A14.1733 14.1733 -180 0 0 0 1237.63 L0 1267.33 A14.1733 14.1733 -180 0 0 14.17
							 1281.5 L189.21 1281.5 Z" class="st1"/>
			</g>
		</g>
		<g id="group23-46" transform="translate(29.3476,-503.744)" v:mID="23" v:groupContext="group">
			<title>Sheet.23</title>
			<g id="group24-47" transform="translate(20.233,-22.3225)" v:mID="24" v:groupContext="group">
				<title>Sheet.24</title>
				<g id="shape25-48" v:mID="25" v:groupContext="shape" transform="translate(6.99441E-015,-141.733)">
					<title>Circle.68</title>
					<v:userDefs>
						<v:ud v:nameU="visVersion" v:val="VT0(14):26"/>
					</v:userDefs>
					<path d="M0 1273 A8.50394 8.50394 0 1 1 17.01 1273 A8.50394 8.50394 0 0 1 0 1273 Z" class="st1"/>
				</g>
				<g id="shape26-50" v:mID="26" v:groupContext="shape">
					<title>Circle.70</title>
					<v:userDefs>
						<v:ud v:nameU="visVersion" v:val="VT0(14):26"/>
					</v:userDefs>
					<path d="M0 1273 A8.50394 8.50394 0 1 1 17.01 1273 A8.50394 8.50394 0 0 1 0 1273 Z" class="st1"/>
				</g>
			</g>
			<g id="shape27-52" v:mID="27" v:groupContext="shape" transform="translate(-1223.46,1281.5) rotate(-90)">
				<title>Rounded rectangle.5</title>
				<v:userDefs>
					<v:ud v:nameU="visVersion" v:val="VT0(14):26"/>
				</v:userDefs>
				<path d="M189.21 1281.5 A14.1733 14.1733 -180 0 0 203.39 1267.33 L203.39 1237.63 A14.1733 14.1733 -180 0 0 189.21
							 1223.46 L14.17 1223.46 A14.1733 14.1733 -180 0 0 0 1237.63 L0 1267.33 A14.1733 14.1733 -180 0 0 14.17
							 1281.5 L189.21 1281.5 Z" class="st1"/>
			</g>
		</g>
		<g id="group28-54" transform="translate(29.3476,-713.862)" v:mID="28" v:groupContext="group">
			<title>Sheet.28</title>
			<g id="group29-55" transform="translate(20.233,-22.3225)" v:mID="29" v:groupContext="group">
				<title>Sheet.29</title>
				<g id="shape30-56" v:mID="30" v:groupContext="shape" transform="translate(6.99441E-015,-141.733)">
					<title>Circle.68</title>
					<v:userDefs>
						<v:ud v:nameU="visVersion" v:val="VT0(14):26"/>
					</v:userDefs>
					<path d="M0 1273 A8.50394 8.50394 0 1 1 17.01 1273 A8.50394 8.50394 0 0 1 0 1273 Z" class="st1"/>
				</g>
				<g id="shape31-58" v:mID="31" v:groupContext="shape">
					<title>Circle.70</title>
					<v:userDefs>
						<v:ud v:nameU="visVersion" v:val="VT0(14):26"/>
					</v:userDefs>
					<path d="M0 1273 A8.50394 8.50394 0 1 1 17.01 1273 A8.50394 8.50394 0 0 1 0 1273 Z" class="st1"/>
				</g>
			</g>
			<g id="shape32-60" v:mID="32" v:groupContext="shape" transform="translate(-1223.46,1281.5) rotate(-90)">
				<title>Rounded rectangle.5</title>
				<v:userDefs>
					<v:ud v:nameU="visVersion" v:val="VT0(14):26"/>
				</v:userDefs>
				<path d="M189.21 1281.5 A14.1733 14.1733 -180 0 0 203.39 1267.33 L203.39 1237.63 A14.1733 14.1733 -180 0 0 189.21
							 1223.46 L14.17 1223.46 A14.1733 14.1733 -180 0 0 0 1237.63 L0 1267.33 A14.1733 14.1733 -180 0 0 14.17
							 1281.5 L189.21 1281.5 Z" class="st1"/>
			</g>
		</g>
		<g id="group33-62" transform="translate(1038.48,-7.68094)" v:mID="33" v:groupContext="group">
			<title>Sheet.33</title>
			<g id="group34-63" transform="translate(20.233,-22.3225)" v:mID="34" v:groupContext="group">
				<title>Sheet.34</title>
				<g id="shape35-64" v:mID="35" v:groupContext="shape" transform="translate(6.99441E-015,-141.733)">
					<title>Circle.68</title>
					<v:userDefs>
						<v:ud v:nameU="visVersion" v:val="VT0(14):26"/>
					</v:userDefs>
					<path d="M0 1273 A8.50394 8.50394 0 1 1 17.01 1273 A8.50394 8.50394 0 0 1 0 1273 Z" class="st1"/>
				</g>
				<g id="shape36-66" v:mID="36" v:groupContext="shape">
					<title>Circle.70</title>
					<v:userDefs>
						<v:ud v:nameU="visVersion" v:val="VT0(14):26"/>
					</v:userDefs>
					<path d="M0 1273 A8.50394 8.50394 0 1 1 17.01 1273 A8.50394 8.50394 0 0 1 0 1273 Z" class="st1"/>
				</g>
			</g>
			<g id="shape37-68" v:mID="37" v:groupContext="shape" transform="translate(-1223.46,1281.5) rotate(-90)">
				<title>Rounded rectangle.5</title>
				<v:userDefs>
					<v:ud v:nameU="visVersion" v:val="VT0(14):26"/>
				</v:userDefs>
				<path d="M189.21 1281.5 A14.1733 14.1733 -180 0 0 203.39 1267.33 L203.39 1237.63 A14.1733 14.1733 -180 0 0 189.21
							 1223.46 L14.17 1223.46 A14.1733 14.1733 -180 0 0 0 1237.63 L0 1267.33 A14.1733 14.1733 -180 0 0 14.17
							 1281.5 L189.21 1281.5 Z" class="st1"/>
			</g>
		</g>
		<g id="group38-70" transform="translate(1010.14,-501.264)" v:mID="38" v:groupContext="group">
			<title>Sheet.38</title>
			<g id="group39-71" transform="translate(20.233,-22.3225)" v:mID="39" v:groupContext="group">
				<title>Sheet.39</title>
				<g id="shape40-72" v:mID="40" v:groupContext="shape" transform="translate(6.99441E-015,-141.733)">
					<title>Circle.68</title>
					<v:userDefs>
						<v:ud v:nameU="visVersion" v:val="VT0(14):26"/>
					</v:userDefs>
					<path d="M0 1273 A8.50394 8.50394 0 1 1 17.01 1273 A8.50394 8.50394 0 0 1 0 1273 Z" class="st1"/>
				</g>
				<g id="shape41-74" v:mID="41" v:groupContext="shape">
					<title>Circle.70</title>
					<v:userDefs>
						<v:ud v:nameU="visVersion" v:val="VT0(14):26"/>
					</v:userDefs>
					<path d="M0 1273 A8.50394 8.50394 0 1 1 17.01 1273 A8.50394 8.50394 0 0 1 0 1273 Z" class="st1"/>
				</g>
			</g>
			<g id="shape42-76" v:mID="42" v:groupContext="shape" transform="translate(-1223.46,1281.5) rotate(-90)">
				<title>Rounded rectangle.5</title>
				<v:userDefs>
					<v:ud v:nameU="visVersion" v:val="VT0(14):26"/>
				</v:userDefs>
				<path d="M189.21 1281.5 A14.1733 14.1733 -180 0 0 203.39 1267.33 L203.39 1237.63 A14.1733 14.1733 -180 0 0 189.21
							 1223.46 L14.17 1223.46 A14.1733 14.1733 -180 0 0 0 1237.63 L0 1267.33 A14.1733 14.1733 -180 0 0 14.17
							 1281.5 L189.21 1281.5 Z" class="st1"/>
			</g>
		</g>
		<g id="group43-78" transform="translate(1010.14,-709.61)" v:mID="43" v:groupContext="group">
			<title>Sheet.43</title>
			<g id="group44-79" transform="translate(20.233,-22.3225)" v:mID="44" v:groupContext="group">
				<title>Sheet.44</title>
				<g id="shape45-80" v:mID="45" v:groupContext="shape" transform="translate(6.99441E-015,-141.733)">
					<title>Circle.68</title>
					<v:userDefs>
						<v:ud v:nameU="visVersion" v:val="VT0(14):26"/>
					</v:userDefs>
					<path d="M0 1273 A8.50394 8.50394 0 1 1 17.01 1273 A8.50394 8.50394 0 0 1 0 1273 Z" class="st1"/>
				</g>
				<g id="shape46-82" v:mID="46" v:groupContext="shape">
					<title>Circle.70</title>
					<v:userDefs>
						<v:ud v:nameU="visVersion" v:val="VT0(14):26"/>
					</v:userDefs>
					<path d="M0 1273 A8.50394 8.50394 0 1 1 17.01 1273 A8.50394 8.50394 0 0 1 0 1273 Z" class="st1"/>
				</g>
			</g>
			<g id="shape47-84" v:mID="47" v:groupContext="shape" transform="translate(-1223.46,1281.5) rotate(-90)">
				<title>Rounded rectangle.5</title>
				<v:userDefs>
					<v:ud v:nameU="visVersion" v:val="VT0(14):26"/>
				</v:userDefs>
				<path d="M189.21 1281.5 A14.1733 14.1733 -180 0 0 203.39 1267.33 L203.39 1237.63 A14.1733 14.1733 -180 0 0 189.21
							 1223.46 L14.17 1223.46 A14.1733 14.1733 -180 0 0 0 1237.63 L0 1267.33 A14.1733 14.1733 -180 0 0 14.17
							 1281.5 L189.21 1281.5 Z" class="st1"/>
			</g>
		</g>
		<g id="group48-86" transform="translate(608.399,1328.89) rotate(180)" v:mID="48" v:groupContext="group">
			<title>Sheet.48</title>
			<g id="shape49-87" v:mID="49" v:groupContext="shape">
				<title>Triangle</title>
				<v:userDefs>
					<v:ud v:nameU="visVersion" v:val="VT0(14):26"/>
				</v:userDefs>
				<path d="M137.43 1281.5 L63.78 1153.94 L-9.87 1281.5 L137.43 1281.5 Z" class="st5"/>
			</g>
			<g id="group50-89" transform="translate(5.17323,-5.17323)" v:mID="50" v:groupContext="group">
				<title>Sheet.50</title>
				<g id="shape51-90" v:mID="51" v:groupContext="shape" transform="translate(1335.36,1178.46) rotate(90)">
					<title>Circle.15</title>
					<v:userDefs>
						<v:ud v:nameU="visVersion" v:val="VT0(14):26"/>
					</v:userDefs>
					<path d="M0 1276.75 A4.74803 4.74803 0 1 1 9.5 1276.75 A4.74803 4.74803 0 0 1 0 1276.75 Z" class="st1"/>
				</g>
				<g id="group52-92" v:mID="52" v:groupContext="group">
					<title>Sheet.52</title>
					<g id="shape53-93" v:mID="53" v:groupContext="shape" transform="translate(1281.5,1272) rotate(90)">
						<title>Circle.12</title>
						<v:userDefs>
							<v:ud v:nameU="visVersion" v:val="VT0(14):26"/>
						</v:userDefs>
						<path d="M0 1276.75 A4.74803 4.74803 0 1 1 9.5 1276.75 A4.74803 4.74803 0 0 1 0 1276.75 Z" class="st1"/>
					</g>
					<g id="shape54-95" v:mID="54" v:groupContext="shape" transform="translate(1389.22,1272) rotate(90)">
						<title>Circle.14</title>
						<v:userDefs>
							<v:ud v:nameU="visVersion" v:val="VT0(14):26"/>
						</v:userDefs>
						<path d="M0 1276.75 A4.74803 4.74803 0 1 1 9.5 1276.75 A4.74803 4.74803 0 0 1 0 1276.75 Z" class="st1"/>
					</g>
				</g>
			</g>
		</g>
		<g id="shape55-97" v:mID="55" v:groupContext="shape" transform="translate(494.992,-1180.76)">
			<title>Sheet.55</title>
			<desc>Caster</desc>
			<v:textBlock v:margins="rect(4,4,4,4)"/>
			<v:textRect cx="52" cy="1273.5" width="104" height="16"/>
			<rect x="0" y="1265.5" width="104" height="16" class="st2"/>
			<text x="41.66" y="1275.9" class="st6" v:langID="1033"><v:paragraph v:horizAlign="1"/><v:tabList/>Caster</text>		</g>
		<g id="group56-100" transform="translate(480.84,-192.378)" v:mID="56" v:groupContext="group">
			<title>Sheet.56</title>
			<g id="group57-101" v:mID="57" v:groupContext="group">
				<title>Sheet.57</title>
				<g id="shape58-102" v:mID="58" v:groupContext="shape">
					<title>Triangle</title>
					<v:userDefs>
						<v:ud v:nameU="visVersion" v:val="VT0(14):26"/>
					</v:userDefs>
					<path d="M137.43 1281.5 L63.78 1153.94 L-9.87 1281.5 L137.43 1281.5 Z" class="st5"/>
				</g>
				<g id="group59-104" transform="translate(5.17323,-5.17323)" v:mID="59" v:groupContext="group">
					<title>Sheet.59</title>
					<g id="shape60-105" v:mID="60" v:groupContext="shape" transform="translate(1335.36,1178.46) rotate(90)">
						<title>Circle.15</title>
						<v:userDefs>
							<v:ud v:nameU="visVersion" v:val="VT0(14):26"/>
						</v:userDefs>
						<path d="M0 1276.75 A4.74803 4.74803 0 1 1 9.5 1276.75 A4.74803 4.74803 0 0 1 0 1276.75 Z" class="st1"/>
					</g>
					<g id="group61-107" v:mID="61" v:groupContext="group">
						<title>Sheet.61</title>
						<g id="shape62-108" v:mID="62" v:groupContext="shape" transform="translate(1281.5,1272) rotate(90)">
							<title>Circle.12</title>
							<v:userDefs>
								<v:ud v:nameU="visVersion" v:val="VT0(14):26"/>
							</v:userDefs>
							<path d="M0 1276.75 A4.74803 4.74803 0 1 1 9.5 1276.75 A4.74803 4.74803 0 0 1 0 1276.75 Z" class="st1"/>
						</g>
						<g id="shape63-110" v:mID="63" v:groupContext="shape" transform="translate(1389.22,1272) rotate(90)">
							<title>Circle.14</title>
							<v:userDefs>
								<v:ud v:nameU="visVersion" v:val="VT0(14):26"/>
							</v:userDefs>
							<path d="M0 1276.75 A4.74803 4.74803 0 1 1 9.5 1276.75 A4.74803 4.74803 0 0 1 0 1276.75 Z" class="st1"/>
						</g>
					</g>
				</g>
			</g>
			<g id="shape64-112" v:mID="64" v:groupContext="shape" transform="translate(9.40731,-37.3543)">
				<title>Sheet.64</title>
				<desc>Caster</desc>
				<v:textBlock v:margins="rect(4,4,4,4)"/>
				<v:textRect cx="52" cy="1273.5" width="104" height="16"/>
				<rect x="0" y="1265.5" width="104" height="16" class="st2"/>
				<text x="41.66" y="1275.9" class="st6" v:langID="1033"><v:paragraph v:horizAlign="1"/><v:tabList/>Caster</text>			</g>
		</g>
		<g id="group65-115" transform="translate(947.702,-225.594)" v:mID="65" v:groupContext="group">
			<title>Sheet.65</title>
			<g id="shape66-116" v:mID="66" v:groupContext="shape">
				<title>Triangle</title>
				<v:userDefs>
					<v:ud v:nameU="visVersion" v:val="VT0(14):26"/>
				</v:userDefs>
				<path d="M137.43 1281.5 L63.78 1153.94 L-9.87 1281.5 L137.43 1281.5 Z" class="st1"/>
			</g>
			<g id="group67-118" transform="translate(5.17323,-5.17323)" v:mID="67" v:groupContext="group">
				<title>Sheet.67</title>
				<g id="shape68-119" v:mID="68" v:groupContext="shape" transform="translate(1335.36,1178.46) rotate(90)">
					<title>Circle.15</title>
					<v:userDefs>
						<v:ud v:nameU="visVersion" v:val="VT0(14):26"/>
					</v:userDefs>
					<path d="M0 1276.75 A4.74803 4.74803 0 1 1 9.5 1276.75 A4.74803 4.74803 0 0 1 0 1276.75 Z" class="st1"/>
				</g>
				<g id="group69-121" v:mID="69" v:groupContext="group">
					<title>Sheet.69</title>
					<g id="shape70-122" v:mID="70" v:groupContext="shape" transform="translate(1281.5,1272) rotate(90)">
						<title>Circle.12</title>
						<v:userDefs>
							<v:ud v:nameU="visVersion" v:val="VT0(14):26"/>
						</v:userDefs>
						<path d="M0 1276.75 A4.74803 4.74803 0 1 1 9.5 1276.75 A4.74803 4.74803 0 0 1 0 1276.75 Z" class="st1"/>
					</g>
					<g id="shape71-124" v:mID="71" v:groupContext="shape" transform="translate(1389.22,1272) rotate(90)">
						<title>Circle.14</title>
						<v:userDefs>
							<v:ud v:nameU="visVersion" v:val="VT0(14):26"/>
						</v:userDefs>
						<path d="M0 1276.75 A4.74803 4.74803 0 1 1 9.5 1276.75 A4.74803 4.74803 0 0 1 0 1276.75 Z" class="st1"/>
					</g>
				</g>
			</g>
		</g>
		<g id="group72-126" transform="translate(234.789,1287.17) rotate(180)" v:mID="72" v:groupContext="group">
			<title>Sheet.72</title>
			<g id="shape73-127" v:mID="73" v:groupContext="shape">
				<title>Triangle</title>
				<v:userDefs>
					<v:ud v:nameU="visVersion" v:val="VT0(14):26"/>
				</v:userDefs>
				<path d="M137.43 1281.5 L63.78 1153.94 L-9.87 1281.5 L137.43 1281.5 Z" class="st1"/>
			</g>
			<g id="group74-129" transform="translate(5.17323,-5.17323)" v:mID="74" v:groupContext="group">
				<title>Sheet.74</title>
				<g id="shape75-130" v:mID="75" v:groupContext="shape" transform="translate(1335.36,1178.46) rotate(90)">
					<title>Circle.15</title>
					<v:userDefs>
						<v:ud v:nameU="visVersion" v:val="VT0(14):26"/>
					</v:userDefs>
					<path d="M0 1276.75 A4.74803 4.74803 0 1 1 9.5 1276.75 A4.74803 4.74803 0 0 1 0 1276.75 Z" class="st1"/>
				</g>
				<g id="group76-132" v:mID="76" v:groupContext="group">
					<title>Sheet.76</title>
					<g id="shape77-133" v:mID="77" v:groupContext="shape" transform="translate(1281.5,1272) rotate(90)">
						<title>Circle.12</title>
						<v:userDefs>
							<v:ud v:nameU="visVersion" v:val="VT0(14):26"/>
						</v:userDefs>
						<path d="M0 1276.75 A4.74803 4.74803 0 1 1 9.5 1276.75 A4.74803 4.74803 0 0 1 0 1276.75 Z" class="st1"/>
					</g>
					<g id="shape78-135" v:mID="78" v:groupContext="shape" transform="translate(1389.22,1272) rotate(90)">
						<title>Circle.14</title>
						<v:userDefs>
							<v:ud v:nameU="visVersion" v:val="VT0(14):26"/>
						</v:userDefs>
						<path d="M0 1276.75 A4.74803 4.74803 0 1 1 9.5 1276.75 A4.74803 4.74803 0 0 1 0 1276.75 Z" class="st1"/>
					</g>
				</g>
			</g>
		</g>
		<g id="group79-137" transform="translate(972.363,1281.5) rotate(180)" v:mID="79" v:groupContext="group">
			<title>Sheet.79</title>
			<g id="shape80-138" v:mID="80" v:groupContext="shape">
				<title>Triangle</title>
				<v:userDefs>
					<v:ud v:nameU="visVersion" v:val="VT0(14):26"/>
				</v:userDefs>
				<path d="M137.43 1281.5 L63.78 1153.94 L-9.87 1281.5 L137.43 1281.5 Z" class="st1"/>
			</g>
			<g id="group81-140" transform="translate(5.17323,-5.17323)" v:mID="81" v:groupContext="group">
				<title>Sheet.81</title>
				<g id="shape82-141" v:mID="82" v:groupContext="shape" transform="translate(1335.36,1178.46) rotate(90)">
					<title>Circle.15</title>
					<v:userDefs>
						<v:ud v:nameU="visVersion" v:val="VT0(14):26"/>
					</v:userDefs>
					<path d="M0 1276.75 A4.74803 4.74803 0 1 1 9.5 1276.75 A4.74803 4.74803 0 0 1 0 1276.75 Z" class="st1"/>
				</g>
				<g id="group83-143" v:mID="83" v:groupContext="group">
					<title>Sheet.83</title>
					<g id="shape84-144" v:mID="84" v:groupContext="shape" transform="translate(1281.5,1272) rotate(90)">
						<title>Circle.12</title>
						<v:userDefs>
							<v:ud v:nameU="visVersion" v:val="VT0(14):26"/>
						</v:userDefs>
						<path d="M0 1276.75 A4.74803 4.74803 0 1 1 9.5 1276.75 A4.74803 4.74803 0 0 1 0 1276.75 Z" class="st1"/>
					</g>
					<g id="shape85-146" v:mID="85" v:groupContext="shape" transform="translate(1389.22,1272) rotate(90)">
						<title>Circle.14</title>
						<v:userDefs>
							<v:ud v:nameU="visVersion" v:val="VT0(14):26"/>
						</v:userDefs>
						<path d="M0 1276.75 A4.74803 4.74803 0 1 1 9.5 1276.75 A4.74803 4.74803 0 0 1 0 1276.75 Z" class="st1"/>
					</g>
				</g>
			</g>
		</g>
		<g id="group86-148" transform="translate(929.277,-1153.94)" v:mID="86" v:groupContext="group">
			<title>Sheet.86</title>
			<g id="shape87-149" v:mID="87" v:groupContext="shape">
				<title>Triangle</title>
				<v:userDefs>
					<v:ud v:nameU="visVersion" v:val="VT0(14):26"/>
				</v:userDefs>
				<path d="M137.43 1281.5 L63.78 1153.94 L-9.87 1281.5 L137.43 1281.5 Z" class="st1"/>
			</g>
			<g id="group88-151" transform="translate(5.17323,-5.17323)" v:mID="88" v:groupContext="group">
				<title>Sheet.88</title>
				<g id="shape89-152" v:mID="89" v:groupContext="shape" transform="translate(1335.36,1178.46) rotate(90)">
					<title>Circle.15</title>
					<v:userDefs>
						<v:ud v:nameU="visVersion" v:val="VT0(14):26"/>
					</v:userDefs>
					<path d="M0 1276.75 A4.74803 4.74803 0 1 1 9.5 1276.75 A4.74803 4.74803 0 0 1 0 1276.75 Z" class="st1"/>
				</g>
				<g id="group90-154" v:mID="90" v:groupContext="group">
					<title>Sheet.90</title>
					<g id="shape91-155" v:mID="91" v:groupContext="shape" transform="translate(1281.5,1272) rotate(90)">
						<title>Circle.12</title>
						<v:userDefs>
							<v:ud v:nameU="visVersion" v:val="VT0(14):26"/>
						</v:userDefs>
						<path d="M0 1276.75 A4.74803 4.74803 0 1 1 9.5 1276.75 A4.74803 4.74803 0 0 1 0 1276.75 Z" class="st1"/>
					</g>
					<g id="shape92-157" v:mID="92" v:groupContext="shape" transform="translate(1389.22,1272) rotate(90)">
						<title>Circle.14</title>
						<v:userDefs>
							<v:ud v:nameU="visVersion" v:val="VT0(14):26"/>
						</v:userDefs>
						<path d="M0 1276.75 A4.74803 4.74803 0 1 1 9.5 1276.75 A4.74803 4.74803 0 0 1 0 1276.75 Z" class="st1"/>
					</g>
				</g>
			</g>
		</g>
		<g id="group93-159" transform="translate(14.2531,-1148.27)" v:mID="93" v:groupContext="group">
			<title>Sheet.93</title>
			<g id="shape94-160" v:mID="94" v:groupContext="shape">
				<title>Triangle</title>
				<v:userDefs>
					<v:ud v:nameU="visVersion" v:val="VT0(14):26"/>
				</v:userDefs>
				<path d="M137.43 1281.5 L63.78 1153.94 L-9.87 1281.5 L137.43 1281.5 Z" class="st1"/>
			</g>
			<g id="group95-162" transform="translate(5.17323,-5.17323)" v:mID="95" v:groupContext="group">
				<title>Sheet.95</title>
				<g id="shape96-163" v:mID="96" v:groupContext="shape" transform="translate(1335.36,1178.46) rotate(90)">
					<title>Circle.15</title>
					<v:userDefs>
						<v:ud v:nameU="visVersion" v:val="VT0(14):26"/>
					</v:userDefs>
					<path d="M0 1276.75 A4.74803 4.74803 0 1 1 9.5 1276.75 A4.74803 4.74803 0 0 1 0 1276.75 Z" class="st1"/>
				</g>
				<g id="group97-165" v:mID="97" v:groupContext="group">
					<title>Sheet.97</title>
					<g id="shape98-166" v:mID="98" v:groupContext="shape" transform="translate(1281.5,1272) rotate(90)">
						<title>Circle.12</title>
						<v:userDefs>
							<v:ud v:nameU="visVersion" v:val="VT0(14):26"/>
						</v:userDefs>
						<path d="M0 1276.75 A4.74803 4.74803 0 1 1 9.5 1276.75 A4.74803 4.74803 0 0 1 0 1276.75 Z" class="st1"/>
					</g>
					<g id="shape99-168" v:mID="99" v:groupContext="shape" transform="translate(1389.22,1272) rotate(90)">
						<title>Circle.14</title>
						<v:userDefs>
							<v:ud v:nameU="visVersion" v:val="VT0(14):26"/>
						</v:userDefs>
						<path d="M0 1276.75 A4.74803 4.74803 0 1 1 9.5 1276.75 A4.74803 4.74803 0 0 1 0 1276.75 Z" class="st1"/>
					</g>
				</g>
			</g>
		</g>
		<g id="shape100-170" v:mID="100" v:groupContext="shape" transform="translate(508.62,-670.866)">
			<title>Sheet.100</title>
			<path d="M72 1236.68 L72 1209.5 L44.82 1209.5 L44.82 1226.06 L27.18 1226.06 L27.18 1209.5 L0 1209.5 L0 1236.68 L16.56
						 1236.68 L16.56 1254.32 L0 1254.32 L0 1281.5 L27.18 1281.5 L27.18 1264.94 L44.82 1264.94 L44.82 1281.5 L72
						 1281.5 L72 1254.32 L55.44 1254.32 L55.44 1236.68 L72 1236.68 Z" class="st5"/>
		</g>
		<g id="shape106-172" v:mID="106" v:groupContext="shape" transform="translate(1749.87,778.728) rotate(90)">
			<title>Rectangle.106</title>
			<v:userDefs>
				<v:ud v:nameU="visVersion" v:val="VT0(14):26"/>
			</v:userDefs>
			<rect x="0" y="1129" width="168.945" height="152.504" class="st5"/>
		</g>
		<g id="shape107-174" v:mID="107" v:groupContext="shape" transform="translate(1763.19,934.49) rotate(90)">
			<title>Circle.107</title>
			<v:userDefs>
				<v:ud v:nameU="visVersion" v:val="VT0(14):26"/>
			</v:userDefs>
			<path d="M0 1276.75 A4.74803 4.74803 0 1 1 9.5 1276.75 A4.74803 4.74803 0 0 1 0 1276.75 Z" class="st1"/>
		</g>
		<g id="shape108-176" v:mID="108" v:groupContext="shape" transform="translate(1890.41,795.739) rotate(90)">
			<title>Circle.108</title>
			<v:userDefs>
				<v:ud v:nameU="visVersion" v:val="VT0(14):26"/>
			</v:userDefs>
			<path d="M0 1276.75 A4.74803 4.74803 0 1 1 9.5 1276.75 A4.74803 4.74803 0 0 1 0 1276.75 Z" class="st1"/>
		</g>
		<g id="shape109-178" v:mID="109" v:groupContext="shape" transform="translate(492.62,-447.705)">
			<title>Sheet.109</title>
			<desc>MonsterMoto</desc>
			<v:textBlock v:margins="rect(4,4,4,4)"/>
			<v:textRect cx="52" cy="1273.5" width="104" height="16"/>
			<rect x="0" y="1265.5" width="104" height="16" class="st2"/>
			<text x="29.1" y="1275.9" class="st6" v:langID="1033"><v:paragraph v:horizAlign="1"/><v:tabList/>MonsterMoto</text>		</g>
		<g id="shape110-181" v:mID="110" v:groupContext="shape" transform="translate(702.505,-652.831)">
			<title>Circle.110</title>
			<v:userDefs>
				<v:ud v:nameU="visVersion" v:val="VT0(14):26"/>
			</v:userDefs>
			<path d="M0 1276.96 A4.53543 4.53543 0 0 1 9.07 1276.96 A4.53543 4.53543 0 0 1 0 1276.96 Z" class="st1"/>
		</g>
		<g id="group111-183" transform="translate(47.702,-192.996)" v:mID="111" v:groupContext="group">
			<title>Sheet.111</title>
			<g id="shape112-184" v:mID="112" v:groupContext="shape" transform="translate(20.6929,-20.6929)">
				<title>Sheet.112</title>
				<path d="M72 1236.68 L72 1209.5 L44.82 1209.5 L44.82 1226.06 L27.18 1226.06 L27.18 1209.5 L0 1209.5 L0 1236.68 L16.56
							 1236.68 L16.56 1254.32 L0 1254.32 L0 1281.5 L27.18 1281.5 L27.18 1264.94 L44.82 1264.94 L44.82 1281.5
							 L72 1281.5 L72 1254.32 L55.44 1254.32 L55.44 1236.68 L72 1236.68 Z" class="st1"/>
			</g>
			<g id="shape113-186" v:mID="113" v:groupContext="shape">
				<title>Octagon</title>
				<v:userDefs>
					<v:ud v:nameU="visVersion" v:val="VT0(14):26"/>
				</v:userDefs>
				<path d="M80.18 1168.11 L33.21 1168.11 L0 1201.32 L0 1248.29 L33.21 1281.5 L80.18 1281.5 L113.39 1248.29 L113.39
							 1201.32 L80.18 1168.11 Z" class="st1"/>
			</g>
			<g id="shape114-188" v:mID="114" v:groupContext="shape" transform="translate(5.66929,-52.1575)">
				<title>Circle</title>
				<v:userDefs>
					<v:ud v:nameU="visVersion" v:val="VT0(14):26"/>
				</v:userDefs>
				<path d="M0 1276.96 A4.53543 4.53543 0 0 1 9.07 1276.96 A4.53543 4.53543 0 0 1 0 1276.96 Z" class="st1"/>
			</g>
			<g id="shape115-190" v:mID="115" v:groupContext="shape" transform="translate(52.1575,-5.66929)">
				<title>Circle.131</title>
				<v:userDefs>
					<v:ud v:nameU="visVersion" v:val="VT0(14):26"/>
				</v:userDefs>
				<path d="M0 1276.96 A4.53543 4.53543 0 0 1 9.07 1276.96 A4.53543 4.53543 0 0 1 0 1276.96 Z" class="st1"/>
			</g>
			<g id="shape116-192" v:mID="116" v:groupContext="shape" transform="translate(98.6457,-52.1575)">
				<title>Circle.132</title>
				<v:userDefs>
					<v:ud v:nameU="visVersion" v:val="VT0(14):26"/>
				</v:userDefs>
				<path d="M0 1276.96 A4.53543 4.53543 0 0 1 9.07 1276.96 A4.53543 4.53543 0 0 1 0 1276.96 Z" class="st1"/>
			</g>
			<g id="shape117-194" v:mID="117" v:groupContext="shape" transform="translate(52.1575,-98.6457)">
				<title>Circle.133</title>
				<v:userDefs>
					<v:ud v:nameU="visVersion" v:val="VT0(14):26"/>
				</v:userDefs>
				<path d="M0 1276.96 A4.53543 4.53543 0 0 1 9.07 1276.96 A4.53543 4.53543 0 0 1 0 1276.96 Z" class="st1"/>
			</g>
		</g>
		<g id="group118-196" transform="translate(1000.14,-1030.63)" v:mID="118" v:groupContext="group">
			<title>Sheet.118</title>
			<g id="shape119-197" v:mID="119" v:groupContext="shape" transform="translate(20.6929,-20.6929)">
				<title>Sheet.119</title>
				<path d="M72 1236.68 L72 1209.5 L44.82 1209.5 L44.82 1226.06 L27.18 1226.06 L27.18 1209.5 L0 1209.5 L0 1236.68 L16.56
							 1236.68 L16.56 1254.32 L0 1254.32 L0 1281.5 L27.18 1281.5 L27.18 1264.94 L44.82 1264.94 L44.82 1281.5
							 L72 1281.5 L72 1254.32 L55.44 1254.32 L55.44 1236.68 L72 1236.68 Z" class="st1"/>
			</g>
			<g id="shape120-199" v:mID="120" v:groupContext="shape">
				<title>Octagon</title>
				<v:userDefs>
					<v:ud v:nameU="visVersion" v:val="VT0(14):26"/>
				</v:userDefs>
				<path d="M80.18 1168.11 L33.21 1168.11 L0 1201.32 L0 1248.29 L33.21 1281.5 L80.18 1281.5 L113.39 1248.29 L113.39
							 1201.32 L80.18 1168.11 Z" class="st1"/>
			</g>
			<g id="shape121-201" v:mID="121" v:groupContext="shape" transform="translate(5.66929,-52.1575)">
				<title>Circle</title>
				<v:userDefs>
					<v:ud v:nameU="visVersion" v:val="VT0(14):26"/>
				</v:userDefs>
				<path d="M0 1276.96 A4.53543 4.53543 0 0 1 9.07 1276.96 A4.53543 4.53543 0 0 1 0 1276.96 Z" class="st1"/>
			</g>
			<g id="shape122-203" v:mID="122" v:groupContext="shape" transform="translate(52.1575,-5.66929)">
				<title>Circle.131</title>
				<v:userDefs>
					<v:ud v:nameU="visVersion" v:val="VT0(14):26"/>
				</v:userDefs>
				<path d="M0 1276.96 A4.53543 4.53543 0 0 1 9.07 1276.96 A4.53543 4.53543 0 0 1 0 1276.96 Z" class="st1"/>
			</g>
			<g id="shape123-205" v:mID="123" v:groupContext="shape" transform="translate(98.6457,-52.1575)">
				<title>Circle.132</title>
				<v:userDefs>
					<v:ud v:nameU="visVersion" v:val="VT0(14):26"/>
				</v:userDefs>
				<path d="M0 1276.96 A4.53543 4.53543 0 0 1 9.07 1276.96 A4.53543 4.53543 0 0 1 0 1276.96 Z" class="st1"/>
			</g>
			<g id="shape124-207" v:mID="124" v:groupContext="shape" transform="translate(52.1575,-98.6457)">
				<title>Circle.133</title>
				<v:userDefs>
					<v:ud v:nameU="visVersion" v:val="VT0(14):26"/>
				</v:userDefs>
				<path d="M0 1276.96 A4.53543 4.53543 0 0 1 9.07 1276.96 A4.53543 4.53543 0 0 1 0 1276.96 Z" class="st1"/>
			</g>
		</g>
		<g id="shape125-209" v:mID="125" v:groupContext="shape" transform="translate(-800.093,538.527) rotate(-90)">
			<title>Rectangle.125</title>
			<v:userDefs>
				<v:ud v:nameU="visVersion" v:val="VT0(14):26"/>
			</v:userDefs>
			<rect x="0" y="1224.81" width="27" height="56.6929" class="st1"/>
		</g>
		<g id="shape126-211" v:mID="126" v:groupContext="shape" transform="translate(508.615,1919.35) rotate(180)">
			<title>Rectangle.126</title>
			<v:userDefs>
				<v:ud v:nameU="visVersion" v:val="VT0(14):26"/>
			</v:userDefs>
			<rect x="0" y="1224.81" width="27" height="56.6929" class="st1"/>
		</g>
		<g id="shape127-213" v:mID="127" v:groupContext="shape" transform="translate(1889.33,610.634) rotate(90)">
			<title>Rectangle.127</title>
			<v:userDefs>
				<v:ud v:nameU="visVersion" v:val="VT0(14):26"/>
			</v:userDefs>
			<rect x="0" y="1224.81" width="27" height="56.6929" class="st1"/>
		</g>
		<g id="shape128-215" v:mID="128" v:groupContext="shape" transform="translate(607.651,1736.23) rotate(180)">
			<title>Rectangle.128</title>
			<v:userDefs>
				<v:ud v:nameU="visVersion" v:val="VT0(14):26"/>
			</v:userDefs>
			<rect x="0" y="1224.81" width="27" height="56.6929" class="st1"/>
		</g>
		<g id="shape129-217" v:mID="129" v:groupContext="shape" transform="translate(536.116,-698.362)">
			<title>Circle.129</title>
			<v:userDefs>
				<v:ud v:nameU="visVersion" v:val="VT0(14):26"/>
			</v:userDefs>
			<path d="M0 1273 A8.50394 8.50394 0 1 1 17.01 1273 A8.50394 8.50394 0 0 1 0 1273 Z" class="st1"/>
		</g>
		<g id="group130-219" transform="translate(960.179,-627.314)" v:mID="130" v:groupContext="group">
			<title>Sheet.130</title>
			<g id="shape131-220" v:mID="131" v:groupContext="shape" transform="translate(-1.39888E-014,-141.733)">
				<title>Circle.3</title>
				<v:userDefs>
					<v:ud v:nameU="visVersion" v:val="VT0(14):26"/>
				</v:userDefs>
				<path d="M0 1273 A8.50394 8.50394 0 1 1 17.01 1273 A8.50394 8.50394 0 0 1 0 1273 Z" class="st1"/>
			</g>
			<g id="shape132-222" v:mID="132" v:groupContext="shape">
				<title>Circle.4</title>
				<v:userDefs>
					<v:ud v:nameU="visVersion" v:val="VT0(14):26"/>
				</v:userDefs>
				<path d="M0 1273 A8.50394 8.50394 0 1 1 17.01 1273 A8.50394 8.50394 0 0 1 0 1273 Z" class="st1"/>
			</g>
		</g>
		<g id="group133-224" transform="translate(127.781,-116.46)" v:mID="133" v:groupContext="group">
			<title>Sheet.133</title>
			<g id="shape134-225" v:mID="134" v:groupContext="shape">
				<title>Triangle</title>
				<v:userDefs>
					<v:ud v:nameU="visVersion" v:val="VT0(14):26"/>
				</v:userDefs>
				<path d="M137.43 1281.5 L63.78 1153.94 L-9.87 1281.5 L137.43 1281.5 Z" class="st1"/>
			</g>
			<g id="group135-227" transform="translate(5.17323,-5.17323)" v:mID="135" v:groupContext="group">
				<title>Sheet.135</title>
				<g id="shape136-228" v:mID="136" v:groupContext="shape" transform="translate(1335.36,1178.46) rotate(90)">
					<title>Circle.15</title>
					<v:userDefs>
						<v:ud v:nameU="visVersion" v:val="VT0(14):26"/>
					</v:userDefs>
					<path d="M0 1276.75 A4.74803 4.74803 0 1 1 9.5 1276.75 A4.74803 4.74803 0 0 1 0 1276.75 Z" class="st1"/>
				</g>
				<g id="group137-230" v:mID="137" v:groupContext="group">
					<title>Sheet.137</title>
					<g id="shape138-231" v:mID="138" v:groupContext="shape" transform="translate(1281.5,1272) rotate(90)">
						<title>Circle.12</title>
						<v:userDefs>
							<v:ud v:nameU="visVersion" v:val="VT0(14):26"/>
						</v:userDefs>
						<path d="M0 1276.75 A4.74803 4.74803 0 1 1 9.5 1276.75 A4.74803 4.74803 0 0 1 0 1276.75 Z" class="st1"/>
					</g>
					<g id="shape139-233" v:mID="139" v:groupContext="shape" transform="translate(1389.22,1272) rotate(90)">
						<title>Circle.14</title>
						<v:userDefs>
							<v:ud v:nameU="visVersion" v:val="VT0(14):26"/>
						</v:userDefs>
						<path d="M0 1276.75 A4.74803 4.74803 0 1 1 9.5 1276.75 A4.74803 4.74803 0 0 1 0 1276.75 Z" class="st1"/>
					</g>
				</g>
			</g>
		</g>
		<g id="shape140-235" v:mID="140" v:groupContext="shape" transform="translate(490.58,-539.957)">
			<title>Circle.140</title>
			<v:userDefs>
				<v:ud v:nameU="visVersion" v:val="VT0(14):26"/>
			</v:userDefs>
			<path d="M0 1276.96 A4.53543 4.53543 0 0 1 9.07 1276.96 A4.53543 4.53543 0 0 1 0 1276.96 Z" class="st1"/>
		</g>
		<g id="shape141-237" v:mID="141" v:groupContext="shape" transform="translate(377.655,-751.937)">
			<title>Circle.141</title>
			<v:userDefs>
				<v:ud v:nameU="visVersion" v:val="VT0(14):26"/>
			</v:userDefs>
			<path d="M0 1276.96 A4.53543 4.53543 0 0 1 9.07 1276.96 A4.53543 4.53543 0 0 1 0 1276.96 Z" class="st1"/>
		</g>
		<g id="shape142-239" v:mID="142" v:groupContext="shape" transform="translate(589.615,-864.807)">
			<title>Circle.142</title>
			<v:userDefs>
				<v:ud v:nameU="visVersion" v:val="VT0(14):26"/>
			</v:userDefs>
			<path d="M0 1276.96 A4.53543 4.53543 0 0 1 9.07 1276.96 A4.53543 4.53543 0 0 1 0 1276.96 Z" class="st1"/>
		</g>
		<g id="group143-241" transform="translate(514.001,2426.7) rotate(180)" v:mID="143" v:groupContext="group">
			<title>Sheet.143</title>
			<g id="shape144-242" v:mID="144" v:groupContext="shape">
				<title>Sheet.144</title>
				<path d="M26.93 1197.81 L26.93 1254.5 L126.14 1254.5 L126.14 1281.5 L182.83 1281.5 L182.83 1254.5 L239.53 1254.5
							 L239.53 1240.33 L211.18 1240.33 L96.28 1149.62 L26.93 1149.62 L26.93 1183.63 L0 1183.63 L0 1197.81 L26.93
							 1197.81 Z" class="st7"/>
			</g>
			<g id="shape145-244" v:mID="145" v:groupContext="shape" transform="translate(62.9291,-116.433)">
				<title>Circle - radius.382</title>
				<v:userDefs>
					<v:ud v:nameU="visVersion" v:val="VT0(14):26"/>
				</v:userDefs>
				<path d="M-9.92 1281.5 A9.92126 9.92126 0 1 1 9.92 1281.5 A9.92126 9.92126 0 1 1 -9.92 1281.5 Z" class="st1"/>
			</g>
			<g id="shape146-246" v:mID="146" v:groupContext="shape" transform="translate(62.9291,-45.2835)">
				<title>Circle - radius.386</title>
				<v:userDefs>
					<v:ud v:nameU="visVersion" v:val="VT0(14):26"/>
				</v:userDefs>
				<path d="M-9.92 1281.5 A9.92126 9.92126 0 1 1 9.92 1281.5 A9.92126 9.92126 0 1 1 -9.92 1281.5 Z" class="st1"/>
			</g>
			<g id="shape147-248" v:mID="147" v:groupContext="shape" transform="translate(-1155.57,1197.81) rotate(-90)">
				<title>Rectangle.388</title>
				<v:userDefs>
					<v:ud v:nameU="visVersion" v:val="VT0(14):26"/>
				</v:userDefs>
				<rect x="0" y="1254.5" width="14.1732" height="27" class="st7"/>
			</g>
		</g>
		<g id="group148-250" transform="translate(716.678,-7.99984)" v:mID="148" v:groupContext="group">
			<title>Sheet.148</title>
			<g id="shape149-251" v:mID="149" v:groupContext="shape">
				<title>Sheet.149</title>
				<path d="M26.93 1197.81 L26.93 1254.5 L126.14 1254.5 L126.14 1281.5 L182.83 1281.5 L182.83 1254.5 L239.53 1254.5
							 L239.53 1240.33 L211.18 1240.33 L96.28 1149.62 L26.93 1149.62 L26.93 1183.63 L0 1183.63 L0 1197.81 L26.93
							 1197.81 Z" class="st7"/>
			</g>
			<g id="shape150-253" v:mID="150" v:groupContext="shape" transform="translate(62.9291,-116.433)">
				<title>Circle - radius.382</title>
				<v:userDefs>
					<v:ud v:nameU="visVersion" v:val="VT0(14):26"/>
				</v:userDefs>
				<path d="M-9.92 1281.5 A9.92126 9.92126 0 1 1 9.92 1281.5 A9.92126 9.92126 0 1 1 -9.92 1281.5 Z" class="st1"/>
			</g>
			<g id="shape151-255" v:mID="151" v:groupContext="shape" transform="translate(62.9291,-45.2835)">
				<title>Circle - radius.386</title>
				<v:userDefs>
					<v:ud v:nameU="visVersion" v:val="VT0(14):26"/>
				</v:userDefs>
				<path d="M-9.92 1281.5 A9.92126 9.92126 0 1 1 9.92 1281.5 A9.92126 9.92126 0 1 1 -9.92 1281.5 Z" class="st1"/>
			</g>
			<g id="shape152-257" v:mID="152" v:groupContext="shape" transform="translate(-1155.57,1197.81) rotate(-90)">
				<title>Rectangle.388</title>
				<v:userDefs>
					<v:ud v:nameU="visVersion" v:val="VT0(14):26"/>
				</v:userDefs>
				<rect x="0" y="1254.5" width="14.1732" height="27" class="st7"/>
			</g>
		</g>
		<g id="group153-259" transform="translate(1028.49,2368.52) rotate(180)" v:mID="153" v:groupContext="group">
			<title>Sheet.153</title>
			<g id="shape154-260" v:mID="154" v:groupContext="shape">
				<title>Sheet.154</title>
				<path d="M26.93 1197.81 L26.93 1254.5 L126.14 1254.5 L126.14 1281.5 L182.83 1281.5 L182.83 1254.5 L239.53 1254.5
							 L239.53 1240.33 L211.18 1240.33 L96.28 1149.62 L26.93 1149.62 L26.93 1183.63 L0 1183.63 L0 1197.81 L26.93
							 1197.81 Z" class="st7"/>
			</g>
			<g id="shape155-262" v:mID="155" v:groupContext="shape" transform="translate(62.9291,-116.433)">
				<title>Circle - radius.382</title>
				<v:userDefs>
					<v:ud v:nameU="visVersion" v:val="VT0(14):26"/>
				</v:userDefs>
				<path d="M-9.92 1281.5 A9.92126 9.92126 0 1 1 9.92 1281.5 A9.92126 9.92126 0 1 1 -9.92 1281.5 Z" class="st1"/>
			</g>
			<g id="shape156-264" v:mID="156" v:groupContext="shape" transform="translate(62.9291,-45.2835)">
				<title>Circle - radius.386</title>
				<v:userDefs>
					<v:ud v:nameU="visVersion" v:val="VT0(14):26"/>
				</v:userDefs>
				<path d="M-9.92 1281.5 A9.92126 9.92126 0 1 1 9.92 1281.5 A9.92126 9.92126 0 1 1 -9.92 1281.5 Z" class="st1"/>
			</g>
			<g id="shape157-266" v:mID="157" v:groupContext="shape" transform="translate(-1155.57,1197.81) rotate(-90)">
				<title>Rectangle.388</title>
				<v:userDefs>
					<v:ud v:nameU="visVersion" v:val="VT0(14):26"/>
				</v:userDefs>
				<rect x="0" y="1254.5" width="14.1732" height="27" class="st7"/>
			</g>
		</g>
		<g id="group158-268" transform="translate(494.867,-0.24)" v:mID="158" v:groupContext="group">
			<title>Sheet.158</title>
			<g id="shape159-269" v:mID="159" v:groupContext="shape">
				<title>Sheet.159</title>
				<path d="M26.93 1197.81 L26.93 1254.5 L126.14 1254.5 L126.14 1281.5 L182.83 1281.5 L182.83 1254.5 L239.53 1254.5
							 L239.53 1240.33 L211.18 1240.33 L96.28 1149.62 L26.93 1149.62 L26.93 1183.63 L0 1183.63 L0 1197.81 L26.93
							 1197.81 Z" class="st7"/>
			</g>
			<g id="shape160-271" v:mID="160" v:groupContext="shape" transform="translate(62.9291,-116.433)">
				<title>Circle - radius.382</title>
				<v:userDefs>
					<v:ud v:nameU="visVersion" v:val="VT0(14):26"/>
				</v:userDefs>
				<path d="M-9.92 1281.5 A9.92126 9.92126 0 1 1 9.92 1281.5 A9.92126 9.92126 0 1 1 -9.92 1281.5 Z" class="st1"/>
			</g>
			<g id="shape161-273" v:mID="161" v:groupContext="shape" transform="translate(62.9291,-45.2835)">
				<title>Circle - radius.386</title>
				<v:userDefs>
					<v:ud v:nameU="visVersion" v:val="VT0(14):26"/>
				</v:userDefs>
				<path d="M-9.92 1281.5 A9.92126 9.92126 0 1 1 9.92 1281.5 A9.92126 9.92126 0 1 1 -9.92 1281.5 Z" class="st1"/>
			</g>
			<g id="shape162-275" v:mID="162" v:groupContext="shape" transform="translate(-1155.57,1197.81) rotate(-90)">
				<title>Rectangle.388</title>
				<v:userDefs>
					<v:ud v:nameU="visVersion" v:val="VT0(14):26"/>
				</v:userDefs>
				<rect x="0" y="1254.5" width="14.1732" height="27" class="st7"/>
			</g>
		</g>
	</g>
</svg>
