  0
SECTION
  2
HEADER
  9
$ACADVER
  1
AC1014
  9
$ACADMAINTVER
 70
     0
  9
$DWGCODEPAGE
  3
ANSI_1252
  9
$INSBASE
 10
0.0
 20
0.0
 30
0.0
  9
$EXTMIN
 10
0.0
 20
0.0
 30
0.0
  9
$EXTMAX
 10
81.28
 20
45.72
 30
0.0
  9
$LIMMIN
 10
0.0
 20
0.0
  9
$LIMMAX
 10
12.0
 20
9.0
  9
$ORTHOMODE
 70
     0
  9
$REGENMODE
 70
     1
  9
$FILLMODE
 70
     0
  9
$QTEXTMODE
 70
     0
  9
$MIRRTEXT
 70
     1
  9
$DRAGMODE
 70
     2
  9
$LTSCALE
 40
1.0
  9
$OSMODE
 70
    37
  9
$ATTMODE
 70
     1
  9
$TEXTSIZE
 40
0.2
  9
$TRACEWID
 40
0.05
  9
$TEXTSTYLE
  7
STANDARD
  9
$CLAYER
  8
0
  9
$CELTYPE
  6
BYLAYER
  9
$CECOLOR
 62
   256
  9
$CELTSCALE
 40
1.0
  9
$DELOBJ
 70
     1
  9
$DISPSILH
 70
     0
  9
$DIMSCALE
 40
1.0
  9
$DIMASZ
 40
0.18
  9
$DIMEXO
 40
0.0625
  9
$DIMDLI
 40
0.38
  9
$DIMRND
 40
0.0
  9
$DIMDLE
 40
0.0
  9
$DIMEXE
 40
0.18
  9
$DIMTP
 40
0.0
  9
$DIMTM
 40
0.0
  9
$DIMTXT
 40
0.18
  9
$DIMCEN
 40
0.09
  9
$DIMTSZ
 40
0.0
  9
$DIMTOL
 70
     0
  9
$DIMLIM
 70
     0
  9
$DIMTIH
 70
     0
  9
$DIMTOH
 70
     0
  9
$DIMSE1
 70
     0
  9
$DIMSE2
 70
     0
  9
$DIMTAD
 70
     1
  9
$DIMZIN
 70
     0
  9
$DIMBLK
  1

  9
$DIMASO
 70
     1
  9
$DIMSHO
 70
     1
  9
$DIMPOST
  1

  9
$DIMAPOST
  1

  9
$DIMALT
 70
     0
  9
$DIMALTD
 70
     2
  9
$DIMALTF
 40
25.4
  9
$DIMLFAC
 40
1.0
  9
$DIMTOFL
 70
     0
  9
$DIMTVP
 40
0.0
  9
$DIMTIX
 70
     0
  9
$DIMSOXD
 70
     0
  9
$DIMSAH
 70
     0
  9
$DIMBLK1
  1

  9
$DIMBLK2
  1

  9
$DIMSTYLE
  2
STANDARD
  9
$DIMCLRD
 70
     0
  9
$DIMCLRE
 70
     0
  9
$DIMCLRT
 70
     0
  9
$DIMTFAC
 40
1.0
  9
$DIMGAP
 40
0.09
  9
$DIMJUST
 70
     0
  9
$DIMSD1
 70
     0
  9
$DIMSD2
 70
     0
  9
$DIMTOLJ
 70
     1
  9
$DIMTZIN
 70
     0
  9
$DIMALTZ
 70
     0
  9
$DIMALTTZ
 70
     0
  9
$DIMFIT
 70
     5
  9
$DIMUPT
 70
     0
  9
$DIMUNIT
 70
     2
  9
$DIMDEC
 70
     2
  9
$DIMTDEC
 70
     4
  9
$DIMALTU
 70
     2
  9
$DIMALTTD
 70
     2
  9
$DIMTXSTY
  7
STANDARD
  9
$DIMAUNIT
 70
     0
  9
$LUNITS
 70
     2
  9
$LUPREC
 70
     4
  9
$SKETCHINC
 40
0.1
  9
$FILLETRAD
 40
0.5
  9
$AUNITS
 70
     0
  9
$AUPREC
 70
     0
  9
$MENU
  1
.
  9
$ELEVATION
 40
0.0
  9
$PELEVATION
 40
0.0
  9
$THICKNESS
 40
0.0
  9
$LIMCHECK
 70
     0
  9
$BLIPMODE
 70
     0
  9
$CHAMFERA
 40
0.5
  9
$CHAMFERB
 40
0.5
  9
$CHAMFERC
 40
1.0
  9
$CHAMFERD
 40
0.0
  9
$SKPOLY
 70
     0
  9
$TDCREATE
 40
2450772.666465926
  9
$TDUPDATE
 40
2456147.495624988
  9
$TDINDWG
 40
0.0011565046
  9
$TDUSRTIMER
 40
0.0011565046
  9
$USRTIMER
 70
     1
  9
$ANGBASE
 50
0.0
  9
$ANGDIR
 70
     0
  9
$PDMODE
 70
     0
  9
$PDSIZE
 40
0.0
  9
$PLINEWID
 40
0.0
  9
$COORDS
 70
     1
  9
$SPLFRAME
 70
     0
  9
$SPLINETYPE
 70
     6
  9
$SPLINESEGS
 70
     8
  9
$ATTDIA
 70
     0
  9
$ATTREQ
 70
     1
  9
$HANDLING
 70
     1
  9
$HANDSEED
  5
1BA
  9
$SURFTAB1
 70
     6
  9
$SURFTAB2
 70
     6
  9
$SURFTYPE
 70
     6
  9
$SURFU
 70
     6
  9
$SURFV
 70
     6
  9
$UCSNAME
  2

  9
$UCSORG
 10
0.0
 20
0.0
 30
0.0
  9
$UCSXDIR
 10
1.0
 20
0.0
 30
0.0
  9
$UCSYDIR
 10
0.0
 20
1.0
 30
0.0
  9
$PUCSNAME
  2

  9
$PUCSORG
 10
0.0
 20
0.0
 30
0.0
  9
$PUCSXDIR
 10
1.0
 20
0.0
 30
0.0
  9
$PUCSYDIR
 10
0.0
 20
1.0
 30
0.0
  9
$USERI1
 70
     0
  9
$USERI2
 70
     0
  9
$USERI3
 70
     0
  9
$USERI4
 70
     0
  9
$USERI5
 70
     0
  9
$USERR1
 40
0.0
  9
$USERR2
 40
0.0
  9
$USERR3
 40
0.0
  9
$USERR4
 40
0.0
  9
$USERR5
 40
0.0
  9
$WORLDVIEW
 70
     1
  9
$SHADEDGE
 70
     3
  9
$SHADEDIF
 70
    70
  9
$TILEMODE
 70
     1
  9
$MAXACTVP
 70
    48
  9
$PINSBASE
 10
0.0
 20
0.0
 30
0.0
  9
$PLIMCHECK
 70
     0
  9
$PEXTMIN
 10
0.0
 20
0.0
 30
0.0
  9
$PEXTMAX
 10
0.0
 20
0.0
 30
0.0
  9
$PLIMMIN
 10
0.0
 20
0.0
  9
$PLIMMAX
 10
12.0
 20
9.0
  9
$UNITMODE
 70
     0
  9
$VISRETAIN
 70
     1
  9
$PLINEGEN
 70
     0
  9
$PSLTSCALE
 70
     1
  9
$TREEDEPTH
 70
  3020
  9
$PICKSTYLE
 70
     1
  9
$CMLSTYLE
  2
STANDARD
  9
$CMLJUST
 70
     0
  9
$CMLSCALE
 40
1.0
  9
$PROXYGRAPHICS
 70
     1
  9
$MEASUREMENT
 70
     0
  0
ENDSEC
  0
SECTION
  2
CLASSES
  0
CLASS
  1
LWPOLYLINE
  2
AcDbPolyline
  3
AutoCAD 2000
 90
       20
280
     0
281
     1
  0
CLASS
  1
IMAGE
  2
AcDbRasterImage
  3
ISM
 90
       21
280
     0
281
     1
  0
CLASS
  1
OLE2FRAME
  2
AcDbOle2Frame
  3
AutoCAD 2000
 90
       21
280
     0
281
     1
  0
CLASS
  1
HATCH
  2
AcDbHatch
  3
AutoCAD 2000
 90
       20
280
     0
281
     1
  0
CLASS
  1
DICTIONARYVAR
  2
AcDbDictionaryVar
  3
ObjectDBX Classes
 90
       20
280
     0
281
     0
  0
CLASS
  1
RASTERVARIABLES
  2
AcDbRasterVariables
  3
ISM
 90
       21
280
     0
281
     0
  0
CLASS
  1
IMAGEDEF
  2
AcDbRasterImageDef
  3
ISM
 90
       21
280
     0
281
     0
  0
CLASS
  1
IMAGEDEF_REACTOR
  2
AcDbRasterImageDefReactor
  3
ISM
 90
       21
280
     0
281
     0
  0
CLASS
  1
IDBUFFER
  2
AcDbIdBuffer
  3
ObjectDBX Classes
 90
       20
280
     0
281
     0
  0
CLASS
  1
SPATIAL_FILTER
  2
AcDbSpatialFilter
  3
ObjectDBX Classes
 90
       20
280
     0
281
     0
  0
CLASS
  1
XRECORD
  2
AcDbXrecord
  3
AutoCAD 2000
 90
       21
280
     0
281
     0
  0
CLASS
  1
SORTENTSTABLE
  2
AcDbSortentsTable
  3
"AutoCAD"
 90
        0
280
     0
281
     0
  0
CLASS
  1
LAYER_INDEX
  2
AcDbLayerIndex
  3
"Acad"
 90
        0
280
     0
281
     0
  0
CLASS
  1
SPATIAL_INDEX
  2
AcDbSpatialIndex
  3
"Acad"
 90
        0
280
     0
281
     0
  0
CLASS
  1
OBJECT_PTR
  2
CAseDLPNTableRecord
  3
"ASE-LPNTableRecord"
 90
        1
280
     0
281
     0
  0
CLASS
  1
LAYOUT
  2
AcDbLayout
  3
"AutoCAD 2000"
 90
        1
280
     0
281
     0
  0
CLASS
  1
PLOTSETTINGS
  2
AcDbPlotsettings
  3
"AutoCAD 2000"
 90
        1
280
     0
281
     0
  0
CLASS
  1
ACDBDICTIONARYWDFLT
  2
AcDbDictionaryWithDefault
  3
"AutoCAD 2000"
 90
        1
280
     0
281
     0
  0
CLASS
  1
ACDBPLACEHOLDER
  2
AcDbPlaceholder
  3
"AutoCAD 2000"
 90
        1
280
     0
281
     0
  0
CLASS
  1
VBA_PROJECT
  2
AcDbVbaProject
  3
"AutoCAD 2000"
 90
        1
280
     0
281
     0
  0
CLASS
  1
WIPEOUT
  2
AcDbWipeout
  3
"AutoCAD 2000"
 90
        1
280
     0
281
     1
  0
CLASS
  1
WIPEOUTVARIABLES
  2
AcDbWipeoutVariables
  3
"AutoCAD 2000"
 90
        1
280
     0
281
     0
  0
CLASS
  1
RTEXT
  2
RText
  3
RText|AutoCAD Express Tool|expresstools@autodesk.com
 90
        1
280
     0
281
     1
  0
CLASS
  1
ARCALIGNEDTEXT
  2
AcDbArcAlignedText
  3
RText|AutoCAD Express Tool|expresstools@autodesk.com
 90
        1
280
     0
281
     1
  0
ENDSEC
  0
SECTION
  2
TABLES
  0
TABLE
  2
VPORT
  5
8
100
AcDbSymbolTable
 70
     1
  0
VPORT
  5
25
100
AcDbSymbolTableRecord
100
AcDbViewportTableRecord
  2
*ACTIVE
 70
     0
 10
0.0
 20
0.0
 11
1.0
 21
1.0
 12
40.64
 22
22.86
 13
0.0
 23
0.0
 14
0.5
 24
0.5
 15
0.5
 25
0.5
 16
0.0
 26
0.0
 36
1.0
 17
0.0
 27
0.0
 37
0.0
 40
45.72
 41
1.777778
 42
50.0
 43
0.0
 44
0.0
 50
0.0
 51
0.0
 71
     0
 72
   100
 73
     1
 74
     1
 75
     0
 76
     0
 77
     0
 78
     0
  0
ENDTAB
  0
TABLE
  2
LTYPE
  5
5
100
AcDbSymbolTable
 70
     3
  0
LTYPE
  5
12
100
AcDbSymbolTableRecord
100
AcDbLinetypeTableRecord
  2
BYBLOCK
 70
     0
  3

 72
    65
 73
     0
 40
0.0
  0
LTYPE
  5
13
100
AcDbSymbolTableRecord
100
AcDbLinetypeTableRecord
  2
BYLAYER
 70
     0
  3

 72
    65
 73
     0
 40
0.0
  0
LTYPE
  5
14
100
AcDbSymbolTableRecord
100
AcDbLinetypeTableRecord
  2
CONTINUOUS
 70
     0
  3
Solid line
 72
    65
 73
     0
 40
0.0
  0
ENDTAB
  0
TABLE
  2
LAYER
  5
2
100
AcDbSymbolTable
 70
     1
  0
LAYER
  5
E
100
AcDbSymbolTableRecord
100
AcDbLayerTableRecord
  2
0
 70
     0
 62
     7
  6
CONTINUOUS
  0
ENDTAB
  0
TABLE
  2
STYLE
  5
3
100
AcDbSymbolTable
 70
     1
  0
STYLE
  5
F
100
AcDbSymbolTableRecord
100
AcDbTextStyleTableRecord
  2
STANDARD
 70
     0
 40
0.0
 41
1.0
 50
0.0
 71
     0
 42
0.2
  3
txt.shx
  4

  0
ENDTAB
  0
TABLE
  2
VIEW
  5
6
100
AcDbSymbolTable
 70
     0
  0
ENDTAB
  0
TABLE
  2
UCS
  5
7
100
AcDbSymbolTable
 70
     0
  0
ENDTAB
  0
TABLE
  2
APPID
  5
9
100
AcDbSymbolTable
 70
     1
  0
APPID
  5
10
100
AcDbSymbolTableRecord
100
AcDbRegAppTableRecord
  2
ACAD
 70
     0
  0
ENDTAB
  0
TABLE
  2
DIMSTYLE
  5
A
100
AcDbSymbolTable
 70
     1
  0
DIMSTYLE
105
1D
100
AcDbSymbolTableRecord
100
AcDbDimStyleTableRecord
  2
STANDARD
 70
     0
  3

  4

  5

  6

  7

 40
1.0
 41
0.18
 42
0.0625
 43
0.38
 44
0.18
 45
0.0
 46
0.0
 47
0.0
 48
0.0
 71
     0
 72
     0
 73
     1
 74
     1
 75
     0
 76
     0
 77
     0
 78
     0
140
0.18
141
0.09
142
0.0
143
25.4
144
1.0
145
0.0
146
1.0
147
0.09
170
     0
171
     2
172
     0
173
     0
174
     0
175
     0
176
     0
177
     0
178
     0
270
     2
271
     4
272
     4
273
     2
274
     2
275
     0
280
     0
281
     0
282
     0
283
     1
284
     0
285
     0
286
     0
287
     3
288
     0
340
F
  0
ENDTAB
  0
TABLE
  2
BLOCK_RECORD
  5
1
100
AcDbSymbolTable
 70
    19
  0
BLOCK_RECORD
  5
18
100
AcDbSymbolTableRecord
100
AcDbBlockTableRecord
  2
*MODEL_SPACE
  0
BLOCK_RECORD
  5
15
100
AcDbSymbolTableRecord
100
AcDbBlockTableRecord
  2
*PAPER_SPACE
  0
BLOCK_RECORD
  5
13D
100
AcDbSymbolTableRecord
100
AcDbBlockTableRecord
  2
RECTANGLE
  0
BLOCK_RECORD
  5
141
100
AcDbSymbolTableRecord
100
AcDbBlockTableRecord
  2
CIRCLE_-_RADIUS
  0
BLOCK_RECORD
  5
145
100
AcDbSymbolTableRecord
100
AcDbBlockTableRecord
  2
CIRCLE_-_DIAMETER
  0
BLOCK_RECORD
  5
149
100
AcDbSymbolTableRecord
100
AcDbBlockTableRecord
  2
MEASURE_TOOL
  0
BLOCK_RECORD
  5
158
100
AcDbSymbolTableRecord
100
AcDbBlockTableRecord
  2
RECTANGLE_6
  0
BLOCK_RECORD
  5
15D
100
AcDbSymbolTableRecord
100
AcDbBlockTableRecord
  2
CIRCLE
  0
BLOCK_RECORD
  5
162
100
AcDbSymbolTableRecord
100
AcDbBlockTableRecord
  2
VERTICAL_MEASURE
  0
BLOCK_RECORD
  5
172
100
AcDbSymbolTableRecord
100
AcDbBlockTableRecord
  2
ROUNDED_RECTANGLE
  0
BLOCK_RECORD
  5
177
100
AcDbSymbolTableRecord
100
AcDbBlockTableRecord
  2
TRIANGLE
  0
BLOCK_RECORD
  5
17C
100
AcDbSymbolTableRecord
100
AcDbBlockTableRecord
  2
SQUARE
  0
BLOCK_RECORD
  5
181
100
AcDbSymbolTableRecord
100
AcDbBlockTableRecord
  2
OCTAGON
  0
BLOCK_RECORD
  5
186
100
AcDbSymbolTableRecord
100
AcDbBlockTableRecord
  2
RIGHT_TRIANGLE
  0
BLOCK_RECORD
  5
18B
100
AcDbSymbolTableRecord
100
AcDbBlockTableRecord
  2
HORIZONTAL_MEASURE
  0
BLOCK_RECORD
  5
19B
100
AcDbSymbolTableRecord
100
AcDbBlockTableRecord
  2
RIGHT_TRIANGLE_16
  0
BLOCK_RECORD
  5
1A0
100
AcDbSymbolTableRecord
100
AcDbBlockTableRecord
  2
RECTANGLE_17
  0
BLOCK_RECORD
  5
1A5
100
AcDbSymbolTableRecord
100
AcDbBlockTableRecord
  2
OCTAGON_18
  0
BLOCK_RECORD
  5
1AA
100
AcDbSymbolTableRecord
100
AcDbBlockTableRecord
  2
CIRCLE_19
  0
BLOCK_RECORD
  5
1AF
100
AcDbSymbolTableRecord
100
AcDbBlockTableRecord
  2
SQUARE_20
  0
BLOCK_RECORD
  5
1B4
100
AcDbSymbolTableRecord
100
AcDbBlockTableRecord
  2
SIDE_BOX_CALLOUT
  0
ENDTAB
  0
ENDSEC
  0
SECTION
  2
BLOCKS
  0
BLOCK
  5
19
100
AcDbEntity
  8
0
100
AcDbBlockBegin
  2
*MODEL_SPACE
 70
     0
 10
0.0
 20
0.0
 30
0.0
  3
*MODEL_SPACE
  1

  0
ENDBLK
  5
1A
100
AcDbEntity
  8
0
100
AcDbBlockEnd
  0
BLOCK
  5
16
100
AcDbEntity
 67
     1
  8
0
100
AcDbBlockBegin
  2
*PAPER_SPACE
 70
     0
 10
0.0
 20
0.0
 30
0.0
  3
*PAPER_SPACE
  1

  0
ENDBLK
  5
17
100
AcDbEntity
 67
     1
  8
0
100
AcDbBlockEnd
  0
BLOCK
  5
13E
100
AcDbEntity
  8
0
100
AcDbBlockBegin
  2
RECTANGLE
 70
     0
 10
0.0
 20
0.0
 30
0.0
  3
RECTANGLE
  1

  0
LWPOLYLINE
  5
13F
102
{ACAD_REACTORS
330
14C
102
}
100
AcDbEntity
  8
0
  6
CONTINUOUS
 62
     7
100
AcDbPolyline
 90
        4
 70
     1
 10
4.0
 20
3.75
 10
6.0
 20
3.75
 10
6.0
 20
6.25
 10
4.0
 20
6.25
  0
ENDBLK
  5
140
100
AcDbEntity
  8
0
100
AcDbBlockEnd
  0
BLOCK
  5
142
100
AcDbEntity
  8
0
100
AcDbBlockBegin
  2
CIRCLE_-_RADIUS
 70
     0
 10
0.0
 20
0.0
 30
0.0
  3
CIRCLE_-_RADIUS
  1

  0
LWPOLYLINE
  5
143
102
{ACAD_REACTORS
330
14C
102
}
100
AcDbEntity
  8
0
  6
CONTINUOUS
 62
     7
100
AcDbPolyline
 90
        2
 70
     1
 10
3.75
 20
5.0
 42
-1.0
 10
6.25
 20
5.0
 42
-1.0
  0
ENDBLK
  5
144
100
AcDbEntity
  8
0
100
AcDbBlockEnd
  0
BLOCK
  5
146
100
AcDbEntity
  8
0
100
AcDbBlockBegin
  2
CIRCLE_-_DIAMETER
 70
     0
 10
0.0
 20
0.0
 30
0.0
  3
CIRCLE_-_DIAMETER
  1

  0
LWPOLYLINE
  5
147
102
{ACAD_REACTORS
330
14C
102
}
100
AcDbEntity
  8
0
  6
CONTINUOUS
 62
     7
100
AcDbPolyline
 90
        2
 70
     1
 10
3.75
 20
5.0
 42
-1.0
 10
6.25
 20
5.0
 42
-1.0
  0
ENDBLK
  5
148
100
AcDbEntity
  8
0
100
AcDbBlockEnd
  0
BLOCK
  5
14A
100
AcDbEntity
  8
0
100
AcDbBlockBegin
  2
MEASURE_TOOL
 70
     0
 10
0.0
 20
0.0
 30
0.0
  3
MEASURE_TOOL
  1

  0
LWPOLYLINE
  5
14B
102
{ACAD_REACTORS
330
14C
102
}
100
AcDbEntity
  8
0
  6
CONTINUOUS
 62
     7
100
AcDbPolyline
 90
        6
 70
     1
 10
0.0
 20
0.0
 10
0.0
 20
0.632282
 42
-0.414223
 10
0.158071
 20
0.790353
 10
1.36995
 20
0.790353
 42
-0.414223
 10
1.686091
 20
0.474212
 10
1.686091
 20
0.0
  0
HATCH
  5
14C
100
AcDbEntity
  8
0
 62
   254
100
AcDbHatch
 10
0.0
 20
0.0
 30
0.0
210
0.0
220
0.0
230
1.0
  2
SOLID
 70
     1
 71
     1
 91
        1
 92
        3
 72
     1
 73
     1
 93
        6
 10
0.0
 20
0.0
 42
0.0
 10
-0.0
 20
0.6322824783637152
 42
-0.4142231524190838
 10
0.158070619590931
 20
0.7903530979546438
 42
0.0
 10
1.3699498221282165
 20
0.7903530979546438
 42
-0.4142231524190798
 10
1.6860910613100744
 20
0.4742118587727864
 42
0.0
 10
1.6860910613100741
 20
0.0
 42
0.0
 97
        4
330
13F
330
143
330
147
330
14B
 75
     0
 76
     1
 98
        0
  0
LINE
  5
14D
100
AcDbEntity
  8
0
  6
CONTINUOUS
 62
     7
100
AcDbLine
 10
1.686091
 20
0.079035
 30
0.0
 11
3.0
 21
0.079035
 31
0.0
  0
LINE
  5
14E
100
AcDbEntity
  8
0
  6
CONTINUOUS
 62
     7
100
AcDbLine
 10
3.0
 20
0.158071
 30
0.0
 11
3.0
 21
0.0
 31
0.0
  0
LINE
  5
14F
100
AcDbEntity
  8
0
  6
CONTINUOUS
 62
     7
100
AcDbLine
 10
2.781015
 20
0.079035
 30
0.0
 11
2.781015
 21
0.118553
 31
0.0
  0
LINE
  5
150
100
AcDbEntity
  8
0
  6
CONTINUOUS
 62
     7
100
AcDbLine
 10
2.56203
 20
0.079035
 30
0.0
 11
2.56203
 21
0.158071
 31
0.0
  0
LINE
  5
151
100
AcDbEntity
  8
0
  6
CONTINUOUS
 62
     7
100
AcDbLine
 10
2.343046
 20
0.079035
 30
0.0
 11
2.343046
 21
0.118553
 31
0.0
  0
LINE
  5
152
100
AcDbEntity
  8
0
  6
CONTINUOUS
 62
     7
100
AcDbLine
 10
2.124061
 20
0.079035
 30
0.0
 11
2.124061
 21
0.158071
 31
0.0
  0
LINE
  5
153
100
AcDbEntity
  8
0
  6
CONTINUOUS
 62
     7
100
AcDbLine
 10
1.905076
 20
0.079035
 30
0.0
 11
1.905076
 21
0.118553
 31
0.0
  0
MTEXT
  5
154
100
AcDbEntity
  8
0
100
AcDbMText
 10
0.843046
 20
0.395177
 30
0.0
 40
0.317502
 41
1.686091
 71
     5
 72
     5
  1
\C7;\fCalibri|b0|i0|;\H0.31750242233276;30 mm.
  0
LWPOLYLINE
  5
155
102
{ACAD_REACTORS
330
156
102
}
100
AcDbEntity
  8
0
  6
CONTINUOUS
 62
     7
100
AcDbPolyline
 90
        4
 70
     1
 10
1.686091
 20
0.079035
 10
3.0
 20
0.079035
 10
3.0
 20
0.158071
 10
1.686091
 20
0.158071
  0
HATCH
  5
156
100
AcDbEntity
  8
0
 62
     2
100
AcDbHatch
 10
0.0
 20
0.0
 30
0.0
210
0.0
220
0.0
230
1.0
  2
SOLID
 70
     1
 71
     1
 91
        1
 92
        3
 72
     0
 73
     1
 93
        4
 10
1.6860910613100744
 20
0.0790353097954644
 10
3.0000000000000004
 20
0.0790353097954644
 10
3.0000000000000004
 20
0.1580706195909288
 10
1.6860910613100744
 20
0.1580706195909288
 97
        1
330
155
 75
     0
 76
     1
 98
        0
  0
ENDBLK
  5
157
100
AcDbEntity
  8
0
100
AcDbBlockEnd
  0
BLOCK
  5
159
100
AcDbEntity
  8
0
100
AcDbBlockBegin
  2
RECTANGLE_6
 70
     0
 10
0.0
 20
0.0
 30
0.0
  3
RECTANGLE_6
  1

  0
LWPOLYLINE
  5
15A
102
{ACAD_REACTORS
330
15B
102
}
100
AcDbEntity
  8
0
  6
CONTINUOUS
 62
     7
100
AcDbPolyline
 90
        4
 70
     1
 10
3.0
 20
3.5
 10
7.0
 20
3.5
 10
7.0
 20
6.5
 10
3.0
 20
6.5
  0
HATCH
  5
15B
100
AcDbEntity
  8
0
 62
   254
100
AcDbHatch
 10
0.0
 20
0.0
 30
0.0
210
0.0
220
0.0
230
1.0
  2
SOLID
 70
     1
 71
     1
 91
        1
 92
        3
 72
     0
 73
     1
 93
        4
 10
3.0000000000000004
 20
3.5
 10
7.0
 20
3.5
 10
7.0
 20
6.5000000000000018
 10
3.0000000000000004
 20
6.5000000000000018
 97
        1
330
15A
 75
     0
 76
     1
 98
        0
  0
ENDBLK
  5
15C
100
AcDbEntity
  8
0
100
AcDbBlockEnd
  0
BLOCK
  5
15E
100
AcDbEntity
  8
0
100
AcDbBlockBegin
  2
CIRCLE
 70
     0
 10
0.0
 20
0.0
 30
0.0
  3
CIRCLE
  1

  0
LWPOLYLINE
  5
15F
102
{ACAD_REACTORS
330
160
102
}
100
AcDbEntity
  8
0
  6
CONTINUOUS
 62
     7
100
AcDbPolyline
 90
        2
 70
     1
 10
3.0
 20
5.0
 42
-1.0
 10
7.0
 20
5.0
 42
-1.0
  0
HATCH
  5
160
100
AcDbEntity
  8
0
 62
   254
100
AcDbHatch
 10
0.0
 20
0.0
 30
0.0
210
0.0
220
0.0
230
1.0
  2
SOLID
 70
     1
 71
     1
 91
        1
 92
        3
 72
     1
 73
     1
 93
        2
 10
3.0
 20
5.0
 42
-0.9999999999999999
 10
7.0
 20
5.0
 42
-1.0000000000000071
 97
        1
330
15F
 75
     0
 76
     1
 98
        0
  0
ENDBLK
  5
161
100
AcDbEntity
  8
0
100
AcDbBlockEnd
  0
BLOCK
  5
163
100
AcDbEntity
  8
0
100
AcDbBlockBegin
  2
VERTICAL_MEASURE
 70
     0
 10
0.0
 20
0.0
 30
0.0
  3
VERTICAL_MEASURE
  1

  0
LWPOLYLINE
  5
164
102
{ACAD_REACTORS
330
165
102
}
100
AcDbEntity
  8
0
  6
CONTINUOUS
 62
     7
100
AcDbPolyline
 90
        6
 70
     1
 10
1.5
 20
0.0
 10
0.867718
 20
0.0
 42
-0.414223
 10
0.709647
 20
0.158071
 10
0.709647
 20
1.36995
 42
-0.414223
 10
1.025788
 20
1.686091
 10
1.5
 20
1.686091
  0
HATCH
  5
165
100
AcDbEntity
  8
0
 62
   254
100
AcDbHatch
 10
0.0
 20
0.0
 30
0.0
210
0.0
220
0.0
230
1.0
  2
SOLID
 70
     1
 71
     1
 91
        1
 92
        3
 72
     1
 73
     1
 93
        6
 10
1.5
 20
0.0
 42
0.0
 10
0.8677175216362847
 20
-0.0
 42
-0.4142231524190838
 10
0.7096469020453561
 20
0.158070619590931
 42
0.0
 10
0.709646902045356
 20
1.3699498221282165
 42
-0.4142231524190798
 10
1.0257881412272134
 20
1.6860910613100744
 42
0.0
 10
1.5
 20
1.6860910613100741
 42
0.0
 97
        1
330
164
 75
     0
 76
     1
 98
        0
  0
LINE
  5
166
100
AcDbEntity
  8
0
  6
CONTINUOUS
 62
     7
100
AcDbLine
 10
1.420965
 20
1.686091
 30
0.0
 11
1.420965
 21
3.0
 31
0.0
  0
LINE
  5
167
100
AcDbEntity
  8
0
  6
CONTINUOUS
 62
     7
100
AcDbLine
 10
1.341929
 20
3.0
 30
0.0
 11
1.420965
 21
3.0
 31
0.0
  0
LINE
  5
168
100
AcDbEntity
  8
0
  6
CONTINUOUS
 62
     7
100
AcDbLine
 10
1.420965
 20
3.0
 30
0.0
 11
3.0
 21
3.0
 31
0.0
  0
LINE
  5
169
100
AcDbEntity
  8
0
  6
CONTINUOUS
 62
     7
100
AcDbLine
 10
1.420965
 20
2.781015
 30
0.0
 11
1.381447
 21
2.781015
 31
0.0
  0
LINE
  5
16A
100
AcDbEntity
  8
0
  6
CONTINUOUS
 62
     7
100
AcDbLine
 10
1.420965
 20
2.56203
 30
0.0
 11
1.341929
 21
2.56203
 31
0.0
  0
LINE
  5
16B
100
AcDbEntity
  8
0
  6
CONTINUOUS
 62
     7
100
AcDbLine
 10
1.420965
 20
2.343046
 30
0.0
 11
1.381447
 21
2.343046
 31
0.0
  0
LINE
  5
16C
100
AcDbEntity
  8
0
  6
CONTINUOUS
 62
     7
100
AcDbLine
 10
1.420965
 20
2.124061
 30
0.0
 11
1.341929
 21
2.124061
 31
0.0
  0
LINE
  5
16D
100
AcDbEntity
  8
0
  6
CONTINUOUS
 62
     7
100
AcDbLine
 10
1.420965
 20
1.905076
 30
0.0
 11
1.381447
 21
1.905076
 31
0.0
  0
MTEXT
  5
16E
100
AcDbEntity
  8
0
100
AcDbMText
 10
1.104823
 20
0.843046
 30
0.0
 40
0.317502
 41
1.686091
 71
     5
 72
     5
  1
\C7;\fCalibri|b0|i0|;\H0.31750242233276;30 mm.
 11
0.0
 21
1.0
 31
0.0
  0
LWPOLYLINE
  5
16F
102
{ACAD_REACTORS
330
170
102
}
100
AcDbEntity
  8
0
  6
CONTINUOUS
 62
     7
100
AcDbPolyline
 90
        4
 70
     1
 10
1.420965
 20
1.686091
 10
1.420965
 20
3.0
 10
1.341929
 20
3.0
 10
1.341929
 20
1.686091
  0
HATCH
  5
170
100
AcDbEntity
  8
0
 62
     2
100
AcDbHatch
 10
0.0
 20
0.0
 30
0.0
210
0.0
220
0.0
230
1.0
  2
SOLID
 70
     1
 71
     1
 91
        1
 92
        3
 72
     0
 73
     1
 93
        4
 10
1.4209646902045354
 20
1.6860910613100744
 10
1.4209646902045354
 20
3.0000000000000004
 10
1.3419293804090711
 20
3.0000000000000004
 10
1.3419293804090711
 20
1.6860910613100744
 97
        1
330
16F
 75
     0
 76
     1
 98
        0
  0
ENDBLK
  5
171
100
AcDbEntity
  8
0
100
AcDbBlockEnd
  0
BLOCK
  5
173
100
AcDbEntity
  8
0
100
AcDbBlockBegin
  2
ROUNDED_RECTANGLE
 70
     0
 10
0.0
 20
0.0
 30
0.0
  3
ROUNDED_RECTANGLE
  1

  0
LWPOLYLINE
  5
174
102
{ACAD_REACTORS
330
175
102
}
100
AcDbEntity
  8
0
  6
CONTINUOUS
 62
     7
100
AcDbPolyline
 90
        8
 70
     1
 10
6.5
 20
3.5
 42
0.414209
 10
7.0
 20
4.0
 10
7.0
 20
6.0
 42
0.414209
 10
6.5
 20
6.5
 10
3.5
 20
6.5
 42
0.414209
 10
3.0
 20
6.0
 10
3.0
 20
4.0
 42
0.414209
 10
3.5
 20
3.5
  0
HATCH
  5
175
100
AcDbEntity
  8
0
 62
   254
100
AcDbHatch
 10
0.0
 20
0.0
 30
0.0
210
0.0
220
0.0
230
1.0
  2
SOLID
 70
     1
 71
     1
 91
        1
 92
        3
 72
     1
 73
     1
 93
        8
 10
6.5000000093999999
 20
3.5
 42
0.4142090102834559
 10
7.0000000000000009
 20
3.9999999906000001
 42
0.0
 10
7.0
 20
6.0000000093999999
 42
0.4142090102834552
 10
6.500000009399999
 20
6.5000000000000018
 42
0.0
 10
3.4999999906000001
 20
6.5000000000000009
 42
0.414209010283455
 10
3.0000000000000004
 20
6.0000000093999999
 42
0.0
 10
3.0
 20
3.9999999906000001
 42
0.4142090102834558
 10
3.4999999906000006
 20
3.5
 42
0.0
 97
        1
330
174
 75
     0
 76
     1
 98
        0
  0
ENDBLK
  5
176
100
AcDbEntity
  8
0
100
AcDbBlockEnd
  0
BLOCK
  5
178
100
AcDbEntity
  8
0
100
AcDbBlockBegin
  2
TRIANGLE
 70
     0
 10
0.0
 20
0.0
 30
0.0
  3
TRIANGLE
  1

  0
LWPOLYLINE
  5
179
102
{ACAD_REACTORS
330
17A
102
}
100
AcDbEntity
  8
0
  6
CONTINUOUS
 62
     7
100
AcDbPolyline
 90
        3
 70
     1
 10
7.309401
 20
3.0
 10
5.0
 20
7.0
 10
2.690599
 20
3.0
  0
HATCH
  5
17A
100
AcDbEntity
  8
0
 62
   254
100
AcDbHatch
 10
0.0
 20
0.0
 30
0.0
210
0.0
220
0.0
230
1.0
  2
SOLID
 70
     1
 71
     1
 91
        1
 92
        3
 72
     0
 73
     1
 93
        3
 10
7.3094010666668021
 20
2.99999999999998
 10
5.0
 20
6.9999999999999796
 10
2.69059893333332
 20
2.99999999999998
 97
        1
330
179
 75
     0
 76
     1
 98
        0
  0
ENDBLK
  5
17B
100
AcDbEntity
  8
0
100
AcDbBlockEnd
  0
BLOCK
  5
17D
100
AcDbEntity
  8
0
100
AcDbBlockBegin
  2
SQUARE
 70
     0
 10
0.0
 20
0.0
 30
0.0
  3
SQUARE
  1

  0
LWPOLYLINE
  5
17E
102
{ACAD_REACTORS
330
17F
102
}
100
AcDbEntity
  8
0
  6
CONTINUOUS
 62
     7
100
AcDbPolyline
 90
        4
 70
     1
 10
3.0
 20
3.0
 10
7.0
 20
3.0
 10
7.0
 20
7.0
 10
3.0
 20
7.0
  0
HATCH
  5
17F
100
AcDbEntity
  8
0
 62
   254
100
AcDbHatch
 10
0.0
 20
0.0
 30
0.0
210
0.0
220
0.0
230
1.0
  2
SOLID
 70
     1
 71
     1
 91
        1
 92
        3
 72
     0
 73
     1
 93
        4
 10
3.0000000000000004
 20
3.0000000000000004
 10
7.0
 20
3.0000000000000004
 10
7.0
 20
7.0
 10
3.0000000000000004
 20
7.0
 97
        1
330
17E
 75
     0
 76
     1
 98
        0
  0
ENDBLK
  5
180
100
AcDbEntity
  8
0
100
AcDbBlockEnd
  0
BLOCK
  5
182
100
AcDbEntity
  8
0
100
AcDbBlockBegin
  2
OCTAGON
 70
     0
 10
0.0
 20
0.0
 30
0.0
  3
OCTAGON
  1

  0
LWPOLYLINE
  5
183
102
{ACAD_REACTORS
330
184
102
}
100
AcDbEntity
  8
0
  6
CONTINUOUS
 62
     7
100
AcDbPolyline
 90
        8
 70
     1
 10
5.828427
 20
7.0
 10
4.171573
 20
7.0
 10
3.0
 20
5.828427
 10
3.0
 20
4.171573
 10
4.171573
 20
3.0
 10
5.828427
 20
3.0
 10
7.0
 20
4.171573
 10
7.0
 20
5.828427
  0
HATCH
  5
184
100
AcDbEntity
  8
0
 62
   254
100
AcDbHatch
 10
0.0
 20
0.0
 30
0.0
210
0.0
220
0.0
230
1.0
  2
SOLID
 70
     1
 71
     1
 91
        1
 92
        3
 72
     0
 73
     1
 93
        8
 10
5.8284272000000019
 20
7.0
 10
4.1715728000000007
 20
7.0
 10
3.0000000000000004
 20
5.8284272000000019
 10
3.0000000000000004
 20
4.1715728000000007
 10
4.1715728000000007
 20
3.0000000000000004
 10
5.8284272000000019
 20
3.0000000000000004
 10
7.0
 20
4.1715728000000007
 10
7.0
 20
5.8284272000000019
 97
        1
330
183
 75
     0
 76
     1
 98
        0
  0
ENDBLK
  5
185
100
AcDbEntity
  8
0
100
AcDbBlockEnd
  0
BLOCK
  5
187
100
AcDbEntity
  8
0
100
AcDbBlockBegin
  2
RIGHT_TRIANGLE
 70
     0
 10
0.0
 20
0.0
 30
0.0
  3
RIGHT_TRIANGLE
  1

  0
LWPOLYLINE
  5
188
102
{ACAD_REACTORS
330
189
102
}
100
AcDbEntity
  8
0
  6
CONTINUOUS
 62
     7
100
AcDbPolyline
 90
        3
 70
     1
 10
3.0
 20
3.5
 10
7.0
 20
3.5
 10
3.0
 20
6.5
  0
HATCH
  5
189
100
AcDbEntity
  8
0
 62
   254
100
AcDbHatch
 10
0.0
 20
0.0
 30
0.0
210
0.0
220
0.0
230
1.0
  2
SOLID
 70
     1
 71
     1
 91
        1
 92
        3
 72
     0
 73
     1
 93
        3
 10
3.0000000000000004
 20
3.5
 10
7.0
 20
3.5
 10
3.0000000000000004
 20
6.5000000000000018
 97
        1
330
188
 75
     0
 76
     1
 98
        0
  0
ENDBLK
  5
18A
100
AcDbEntity
  8
0
100
AcDbBlockEnd
  0
BLOCK
  5
18C
100
AcDbEntity
  8
0
100
AcDbBlockBegin
  2
HORIZONTAL_MEASURE
 70
     0
 10
0.0
 20
0.0
 30
0.0
  3
HORIZONTAL_MEASURE
  1

  0
LWPOLYLINE
  5
18D
102
{ACAD_REACTORS
330
18E
102
}
100
AcDbEntity
  8
0
  6
CONTINUOUS
 62
     7
100
AcDbPolyline
 90
        6
 70
     1
 10
0.0
 20
1.5
 10
0.0
 20
2.132282
 42
-0.414223
 10
0.158071
 20
2.290353
 10
1.36995
 20
2.290353
 42
-0.414223
 10
1.686091
 20
1.974212
 10
1.686091
 20
1.5
  0
HATCH
  5
18E
100
AcDbEntity
  8
0
 62
   254
100
AcDbHatch
 10
0.0
 20
0.0
 30
0.0
210
0.0
220
0.0
230
1.0
  2
SOLID
 70
     1
 71
     1
 91
        1
 92
        3
 72
     1
 73
     1
 93
        6
 10
0.0
 20
1.5
 42
0.0
 10
-0.0
 20
2.1322824783637153
 42
-0.4142231524190838
 10
0.158070619590931
 20
2.2903530979546436
 42
0.0
 10
1.3699498221282165
 20
2.290353097954644
 42
-0.4142231524190798
 10
1.6860910613100744
 20
1.9742118587727862
 42
0.0
 10
1.6860910613100741
 20
1.5
 42
0.0
 97
        1
330
18D
 75
     0
 76
     1
 98
        0
  0
LINE
  5
18F
100
AcDbEntity
  8
0
  6
CONTINUOUS
 62
     7
100
AcDbLine
 10
1.686091
 20
1.579035
 30
0.0
 11
3.0
 21
1.579035
 31
0.0
  0
LINE
  5
190
100
AcDbEntity
  8
0
  6
CONTINUOUS
 62
     7
100
AcDbLine
 10
3.0
 20
1.658071
 30
0.0
 11
3.0
 21
1.579035
 31
0.0
  0
LINE
  5
191
100
AcDbEntity
  8
0
  6
CONTINUOUS
 62
     7
100
AcDbLine
 10
3.0
 20
1.579035
 30
0.0
 11
3.0
 21
0.0
 31
0.0
  0
LINE
  5
192
100
AcDbEntity
  8
0
  6
CONTINUOUS
 62
     7
100
AcDbLine
 10
2.781015
 20
1.579035
 30
0.0
 11
2.781015
 21
1.618553
 31
0.0
  0
LINE
  5
193
100
AcDbEntity
  8
0
  6
CONTINUOUS
 62
     7
100
AcDbLine
 10
2.56203
 20
1.579035
 30
0.0
 11
2.56203
 21
1.658071
 31
0.0
  0
LINE
  5
194
100
AcDbEntity
  8
0
  6
CONTINUOUS
 62
     7
100
AcDbLine
 10
2.343046
 20
1.579035
 30
0.0
 11
2.343046
 21
1.618553
 31
0.0
  0
LINE
  5
195
100
AcDbEntity
  8
0
  6
CONTINUOUS
 62
     7
100
AcDbLine
 10
2.124061
 20
1.579035
 30
0.0
 11
2.124061
 21
1.658071
 31
0.0
  0
LINE
  5
196
100
AcDbEntity
  8
0
  6
CONTINUOUS
 62
     7
100
AcDbLine
 10
1.905076
 20
1.579035
 30
0.0
 11
1.905076
 21
1.618553
 31
0.0
  0
MTEXT
  5
197
100
AcDbEntity
  8
0
100
AcDbMText
 10
0.843046
 20
1.895177
 30
0.0
 40
0.317502
 41
1.686091
 71
     5
 72
     5
  1
\C7;\fCalibri|b0|i0|;\H0.31750242233276;30 mm.
  0
LWPOLYLINE
  5
198
102
{ACAD_REACTORS
330
199
102
}
100
AcDbEntity
  8
0
  6
CONTINUOUS
 62
     7
100
AcDbPolyline
 90
        4
 70
     1
 10
1.686091
 20
1.579035
 10
3.0
 20
1.579035
 10
3.0
 20
1.658071
 10
1.686091
 20
1.658071
  0
HATCH
  5
199
100
AcDbEntity
  8
0
 62
     2
100
AcDbHatch
 10
0.0
 20
0.0
 30
0.0
210
0.0
220
0.0
230
1.0
  2
SOLID
 70
     1
 71
     1
 91
        1
 92
        3
 72
     0
 73
     1
 93
        4
 10
1.6860910613100744
 20
1.5790353097954644
 10
3.0000000000000004
 20
1.5790353097954644
 10
3.0000000000000004
 20
1.6580706195909287
 10
1.6860910613100744
 20
1.6580706195909287
 97
        1
330
198
 75
     0
 76
     1
 98
        0
  0
ENDBLK
  5
19A
100
AcDbEntity
  8
0
100
AcDbBlockEnd
  0
BLOCK
  5
19C
100
AcDbEntity
  8
0
100
AcDbBlockBegin
  2
RIGHT_TRIANGLE_16
 70
     0
 10
0.0
 20
0.0
 30
0.0
  3
RIGHT_TRIANGLE_16
  1

  0
LWPOLYLINE
  5
19D
102
{ACAD_REACTORS
330
19E
102
}
100
AcDbEntity
  8
0
  6
CONTINUOUS
 62
     7
100
AcDbPolyline
 90
        3
 70
     1
 10
1.905
 20
2.54
 10
5.715
 20
2.54
 10
1.905
 20
5.08
  0
HATCH
  5
19E
100
AcDbEntity
  8
0
 62
   254
100
AcDbHatch
 10
0.0
 20
0.0
 30
0.0
210
0.0
220
0.0
230
1.0
  2
SOLID
 70
     1
 71
     1
 91
        1
 92
        3
 72
     0
 73
     1
 93
        3
 10
1.905
 20
2.54
 10
5.7149999999999999
 20
2.54
 10
1.905
 20
5.0800000000000001
 97
        1
330
19D
 75
     0
 76
     1
 98
        0
  0
ENDBLK
  5
19F
100
AcDbEntity
  8
0
100
AcDbBlockEnd
  0
BLOCK
  5
1A1
100
AcDbEntity
  8
0
100
AcDbBlockBegin
  2
RECTANGLE_17
 70
     0
 10
0.0
 20
0.0
 30
0.0
  3
RECTANGLE_17
  1

  0
LWPOLYLINE
  5
1A2
102
{ACAD_REACTORS
330
1A3
102
}
100
AcDbEntity
  8
0
  6
CONTINUOUS
 62
     7
100
AcDbPolyline
 90
        4
 70
     1
 10
1.905
 20
2.54
 10
5.715
 20
2.54
 10
5.715
 20
5.08
 10
1.905
 20
5.08
  0
HATCH
  5
1A3
100
AcDbEntity
  8
0
 62
   254
100
AcDbHatch
 10
0.0
 20
0.0
 30
0.0
210
0.0
220
0.0
230
1.0
  2
SOLID
 70
     1
 71
     1
 91
        1
 92
        3
 72
     0
 73
     1
 93
        4
 10
1.905
 20
2.54
 10
5.7149999999999999
 20
2.54
 10
5.7149999999999999
 20
5.0800000000000001
 10
1.905
 20
5.0800000000000001
 97
        1
330
1A2
 75
     0
 76
     1
 98
        0
  0
ENDBLK
  5
1A4
100
AcDbEntity
  8
0
100
AcDbBlockEnd
  0
BLOCK
  5
1A6
100
AcDbEntity
  8
0
100
AcDbBlockBegin
  2
OCTAGON_18
 70
     0
 10
0.0
 20
0.0
 30
0.0
  3
OCTAGON_18
  1

  0
LWPOLYLINE
  5
1A7
102
{ACAD_REACTORS
330
1A8
102
}
100
AcDbEntity
  8
0
  6
CONTINUOUS
 62
     7
100
AcDbPolyline
 90
        8
 70
     1
 10
5.869077
 20
6.985
 10
4.290923
 20
6.985
 10
3.175
 20
5.869077
 10
3.175
 20
4.290923
 10
4.290923
 20
3.175
 10
5.869077
 20
3.175
 10
6.985
 20
4.290923
 10
6.985
 20
5.869077
  0
HATCH
  5
1A8
100
AcDbEntity
  8
0
 62
   254
100
AcDbHatch
 10
0.0
 20
0.0
 30
0.0
210
0.0
220
0.0
230
1.0
  2
SOLID
 70
     1
 71
     1
 91
        1
 92
        3
 72
     0
 73
     1
 93
        8
 10
5.8690769080000003
 20
6.9850000000000003
 10
4.2909230919999999
 20
6.9850000000000003
 10
3.1749999999999998
 20
5.8690769080000003
 10
3.1749999999999998
 20
4.2909230919999999
 10
4.2909230919999999
 20
3.1749999999999998
 10
5.8690769080000003
 20
3.1749999999999998
 10
6.9850000000000003
 20
4.2909230919999999
 10
6.9850000000000003
 20
5.8690769080000003
 97
        1
330
1A7
 75
     0
 76
     1
 98
        0
  0
ENDBLK
  5
1A9
100
AcDbEntity
  8
0
100
AcDbBlockEnd
  0
BLOCK
  5
1AB
100
AcDbEntity
  8
0
100
AcDbBlockBegin
  2
CIRCLE_19
 70
     0
 10
0.0
 20
0.0
 30
0.0
  3
CIRCLE_19
  1

  0
LWPOLYLINE
  5
1AC
102
{ACAD_REACTORS
330
1AD
102
}
100
AcDbEntity
  8
0
  6
CONTINUOUS
 62
     7
100
AcDbPolyline
 90
        2
 70
     1
 10
1.905
 20
3.81
 42
-1.0
 10
5.715
 20
3.81
 42
-1.0
  0
HATCH
  5
1AD
100
AcDbEntity
  8
0
 62
   254
100
AcDbHatch
 10
0.0
 20
0.0
 30
0.0
210
0.0
220
0.0
230
1.0
  2
SOLID
 70
     1
 71
     1
 91
        1
 92
        3
 72
     1
 73
     1
 93
        2
 10
1.905
 20
3.8100000000000005
 42
-0.9999999999999999
 10
5.7149999999999999
 20
3.8100000000000001
 42
-1.0000000000000071
 97
        1
330
1AC
 75
     0
 76
     1
 98
        0
  0
ENDBLK
  5
1AE
100
AcDbEntity
  8
0
100
AcDbBlockEnd
  0
BLOCK
  5
1B0
100
AcDbEntity
  8
0
100
AcDbBlockBegin
  2
SQUARE_20
 70
     0
 10
0.0
 20
0.0
 30
0.0
  3
SQUARE_20
  1

  0
LWPOLYLINE
  5
1B1
102
{ACAD_REACTORS
330
1B2
102
}
100
AcDbEntity
  8
0
  6
CONTINUOUS
 62
     7
100
AcDbPolyline
 90
        4
 70
     1
 10
3.175
 20
3.175
 10
6.985
 20
3.175
 10
6.985
 20
6.985
 10
3.175
 20
6.985
  0
HATCH
  5
1B2
100
AcDbEntity
  8
0
 62
   254
100
AcDbHatch
 10
0.0
 20
0.0
 30
0.0
210
0.0
220
0.0
230
1.0
  2
SOLID
 70
     1
 71
     1
 91
        1
 92
        3
 72
     0
 73
     1
 93
        4
 10
3.1749999999999998
 20
3.1749999999999998
 10
6.9850000000000003
 20
3.1749999999999998
 10
6.9850000000000003
 20
6.9850000000000003
 10
3.1749999999999998
 20
6.9850000000000003
 97
        1
330
1B1
 75
     0
 76
     1
 98
        0
  0
ENDBLK
  5
1B3
100
AcDbEntity
  8
0
100
AcDbBlockEnd
  0
BLOCK
  5
1B5
100
AcDbEntity
  8
0
100
AcDbBlockBegin
  2
SIDE_BOX_CALLOUT
 70
     0
 10
0.0
 20
0.0
 30
0.0
  3
SIDE_BOX_CALLOUT
  1

  0
LINE
  5
1B6
100
AcDbEntity
  8
0
  6
CONTINUOUS
 62
     7
100
AcDbLine
 10
0.5
 20
1.496
 30
0.0
 11
1.5
 21
2.996
 31
0.0
  0
LWPOLYLINE
  5
1B7
100
AcDbEntity
  8
0
  6
CONTINUOUS
 62
     7
100
AcDbPolyline
 90
        4
 70
     1
 10
4.5
 20
2.346827
 10
1.5
 20
2.346827
 10
1.5
 20
3.645173
 10
4.5
 20
3.645173
  0
MTEXT
  5
1B8
100
AcDbEntity
  8
0
100
AcDbMText
 10
1.641111
 20
2.996
 30
0.0
 40
0.211666
 41
3.0
 71
     4
 72
     5
  1
\C7;\fCalibri|b0|i0|;\H0.21166585922241;Drag the side handles \Pto change the width of \Pthe text block.
  0
ENDBLK
  5
1B9
100
AcDbEntity
  8
0
100
AcDbBlockEnd
  0
ENDSEC
  0
SECTION
  2
ENTITIES
  0
LWPOLYLINE
  5
31
100
AcDbEntity
  8
0
  6
CONTINUOUS
 62
     7
100
AcDbPolyline
 90
        2
 70
     1
 10
43.58015
 20
34.1418
 42
-1.0
 10
44.28015
 20
34.1418
 42
-1.0
  0
LWPOLYLINE
  5
32
100
AcDbEntity
  8
0
  6
CONTINUOUS
 62
     7
100
AcDbPolyline
 90
        2
 70
     1
 10
76.88015
 20
34.1418
 42
-1.0
 10
77.58015
 20
34.1418
 42
-1.0
  0
LWPOLYLINE
  5
33
100
AcDbEntity
  8
0
  6
CONTINUOUS
 62
     7
100
AcDbPolyline
 90
        2
 70
     1
 10
76.78015
 20
16.4418
 42
-1.0
 10
77.48015
 20
16.4418
 42
-1.0
  0
LWPOLYLINE
  5
34
100
AcDbEntity
  8
0
  6
CONTINUOUS
 62
     7
100
AcDbPolyline
 90
        2
 70
     1
 10
43.58015
 20
16.4418
 42
-1.0
 10
44.28015
 20
16.4418
 42
-1.0
  0
LWPOLYLINE
  5
35
100
AcDbEntity
  8
0
  6
CONTINUOUS
 62
     7
100
AcDbPolyline
 90
        2
 70
     1
 10
65.3939
 20
22.3982
 42
-1.0
 10
65.3939
 20
20.8982
 42
-1.0
  0
LWPOLYLINE
  5
36
100
AcDbEntity
  8
0
  6
CONTINUOUS
 62
     7
100
AcDbPolyline
 90
        2
 70
     1
 10
55.6664
 20
22.3982
 42
-1.0
 10
55.6664
 20
20.8982
 42
-1.0
  0
LWPOLYLINE
  5
38
102
{ACAD_REACTORS
330
37
102
}
100
AcDbEntity
  8
0
  6
CONTINUOUS
 62
     7
100
AcDbPolyline
 90
        2
 70
     1
 10
45.27015
 20
27.741813
 42
-1.0
 10
45.87015
 20
27.741813
 42
-1.0
  0
LWPOLYLINE
  5
39
102
{ACAD_REACTORS
330
37
102
}
100
AcDbEntity
  8
0
  6
CONTINUOUS
 62
     7
100
AcDbPolyline
 90
        2
 70
     1
 10
45.27015
 20
22.741787
 42
-1.0
 10
45.87015
 20
22.741787
 42
-1.0
  0
LWPOLYLINE
  5
3A
100
AcDbEntity
  8
0
  6
CONTINUOUS
 62
     7
100
AcDbPolyline
 90
       21
 70
     1
 10
41.317181
 20
17.4918
 42
0.102797
 10
43.835956
 20
13.651723
 10
48.940073
 20
8.547606
 42
0.198912
 10
56.920995
 20
5.2418
 10
64.139305
 20
5.2418
 42
0.198912
 10
72.120227
 20
8.547606
 10
77.224344
 20
13.651723
 42
0.102797
 10
79.743119
 20
17.4918
 10
76.53015
 20
17.4918
 10
76.53015
 20
32.9918
 10
79.743119
 20
32.9918
 42
0.004262
 10
79.670999
 20
33.170199
 42
0.098491
 10
77.224344
 20
36.831877
 10
72.120227
 20
41.935994
 42
0.198912
 10
64.139305
 20
45.2418
 10
56.920995
 20
45.2418
 42
0.198912
 10
48.940073
 20
41.935994
 10
43.835956
 20
36.831877
 42
0.102797
 10
41.317181
 20
32.9918
 10
44.53015
 20
32.9918
 10
44.53015
 20
17.4918
  0
MTEXT
  5
3B
100
AcDbEntity
  8
0
100
AcDbMText
 10
51.586661
 20
9.136944
 30
0.0
 40
0.317502
 41
3.470822
 71
     5
 72
     5
  1
\C3;\fCalibri|b0|i0|;\H0.31750242233276;MARK 2\PDrive Base\P2012-05-29
  0
LWPOLYLINE
  5
3C
100
AcDbEntity
  8
0
  6
CONTINUOUS
 62
    10
100
AcDbPolyline
 90
        4
 70
     1
 10
69.71375
 20
18.5582
 10
65.17375
 20
18.5582
 10
65.17375
 20
10.1982
 10
69.71375
 20
10.1982
  0
LWPOLYLINE
  5
3D
100
AcDbEntity
  8
0
  6
CONTINUOUS
 62
     7
100
AcDbPolyline
 90
        2
 70
     1
 10
69.24868
 20
10.733224
 42
-1.0
 10
68.90868
 20
10.733224
 42
-1.0
  0
LWPOLYLINE
  5
3E
100
AcDbEntity
  8
0
  6
CONTINUOUS
 62
     7
100
AcDbPolyline
 90
        2
 70
     1
 10
65.63882
 20
18.023176
 42
-1.0
 10
65.97882
 20
18.023176
 42
-1.0
  0
LWPOLYLINE
  5
3F
100
AcDbEntity
  8
0
  6
CONTINUOUS
 62
     7
100
AcDbPolyline
 90
        2
 70
     1
 10
69.24868
 20
18.023176
 42
-1.0
 10
68.90868
 20
18.023176
 42
-1.0
  0
LWPOLYLINE
  5
40
100
AcDbEntity
  8
0
  6
CONTINUOUS
 62
     7
100
AcDbPolyline
 90
        2
 70
     1
 10
65.97882
 20
10.733224
 42
-1.0
 10
65.63882
 20
10.733224
 42
-1.0
  0
MTEXT
  5
41
100
AcDbEntity
  8
0
100
AcDbMText
 10
67.44375
 20
16.887778
 30
0.0
 40
0.211666
 41
3.668889
 71
     5
 72
     5
  1
\C3;\fCalibri|b0|i0|;\H0.21166585922241;Breadboard
  0
LWPOLYLINE
  5
43
102
{ACAD_REACTORS
330
42
102
}
100
AcDbEntity
  8
0
  6
CONTINUOUS
 62
     7
100
AcDbPolyline
 90
        2
 70
     1
 10
51.700013
 20
2.029974
 42
-1.0
 10
51.700013
 20
1.429974
 42
-1.0
  0
LWPOLYLINE
  5
44
102
{ACAD_REACTORS
330
42
102
}
100
AcDbEntity
  8
0
  6
CONTINUOUS
 62
     7
100
AcDbPolyline
 90
        2
 70
     1
 10
46.699987
 20
2.029974
 42
-1.0
 10
46.699987
 20
1.429974
 42
-1.0
  0
LWPOLYLINE
  5
45
102
{ACAD_REACTORS
330
42
102
}
100
AcDbEntity
  8
0
  6
CONTINUOUS
 62
     7
100
AcDbPolyline
 90
        8
 70
     1
 10
52.2875
 20
0.69625
 42
0.414209
 10
52.7875
 20
1.19625
 10
52.7875
 20
2.24375
 42
0.414209
 10
52.2875
 20
2.74375
 10
46.1125
 20
2.74375
 42
0.414209
 10
45.6125
 20
2.24375
 10
45.6125
 20
1.19625
 42
0.414209
 10
46.1125
 20
0.69625
  0
LWPOLYLINE
  5
47
102
{ACAD_REACTORS
330
46
102
}
100
AcDbEntity
  8
0
  6
CONTINUOUS
 62
     7
100
AcDbPolyline
 90
        2
 70
     1
 10
43.066276
 20
24.170013
 42
-1.0
 10
43.666276
 20
24.170013
 42
-1.0
  0
LWPOLYLINE
  5
48
102
{ACAD_REACTORS
330
46
102
}
100
AcDbEntity
  8
0
  6
CONTINUOUS
 62
     7
100
AcDbPolyline
 90
        2
 70
     1
 10
43.066276
 20
19.169987
 42
-1.0
 10
43.666276
 20
19.169987
 42
-1.0
  0
LWPOLYLINE
  5
49
102
{ACAD_REACTORS
330
46
102
}
100
AcDbEntity
  8
0
  6
CONTINUOUS
 62
     7
100
AcDbPolyline
 90
        8
 70
     1
 10
44.4
 20
24.7575
 42
0.414209
 10
43.9
 20
25.2575
 10
42.8525
 20
25.2575
 42
0.414209
 10
42.3525
 20
24.7575
 10
42.3525
 20
18.5825
 42
0.414209
 10
42.8525
 20
18.0825
 10
43.9
 20
18.0825
 42
0.414209
 10
44.4
 20
18.5825
  0
LWPOLYLINE
  5
4B
102
{ACAD_REACTORS
330
4A
102
}
100
AcDbEntity
  8
0
  6
CONTINUOUS
 62
     7
100
AcDbPolyline
 90
        2
 70
     1
 10
43.066276
 20
31.582513
 42
-1.0
 10
43.666276
 20
31.582513
 42
-1.0
  0
LWPOLYLINE
  5
4C
102
{ACAD_REACTORS
330
4A
102
}
100
AcDbEntity
  8
0
  6
CONTINUOUS
 62
     7
100
AcDbPolyline
 90
        2
 70
     1
 10
43.066276
 20
26.582487
 42
-1.0
 10
43.666276
 20
26.582487
 42
-1.0
  0
LWPOLYLINE
  5
4D
102
{ACAD_REACTORS
330
4A
102
}
100
AcDbEntity
  8
0
  6
CONTINUOUS
 62
     7
100
AcDbPolyline
 90
        8
 70
     1
 10
44.4
 20
32.17
 42
0.414209
 10
43.9
 20
32.67
 10
42.8525
 20
32.67
 42
0.414209
 10
42.3525
 20
32.17
 10
42.3525
 20
25.995
 42
0.414209
 10
42.8525
 20
25.495
 10
43.9
 20
25.495
 42
0.414209
 10
44.4
 20
25.995
  0
LWPOLYLINE
  5
4F
102
{ACAD_REACTORS
330
4E
102
}
100
AcDbEntity
  8
0
  6
CONTINUOUS
 62
     7
100
AcDbPolyline
 90
        2
 70
     1
 10
78.666276
 20
6.670013
 42
-1.0
 10
79.266276
 20
6.670013
 42
-1.0
  0
LWPOLYLINE
  5
50
102
{ACAD_REACTORS
330
4E
102
}
100
AcDbEntity
  8
0
  6
CONTINUOUS
 62
     7
100
AcDbPolyline
 90
        2
 70
     1
 10
78.666276
 20
1.669987
 42
-1.0
 10
79.266276
 20
1.669987
 42
-1.0
  0
LWPOLYLINE
  5
51
102
{ACAD_REACTORS
330
4E
102
}
100
AcDbEntity
  8
0
  6
CONTINUOUS
 62
     7
100
AcDbPolyline
 90
        8
 70
     1
 10
80.0
 20
7.2575
 42
0.414209
 10
79.5
 20
7.7575
 10
78.4525
 20
7.7575
 42
0.414209
 10
77.9525
 20
7.2575
 10
77.9525
 20
1.0825
 42
0.414209
 10
78.4525
 20
0.5825
 10
79.5
 20
0.5825
 42
0.414209
 10
80.0
 20
1.0825
  0
LWPOLYLINE
  5
53
102
{ACAD_REACTORS
330
52
102
}
100
AcDbEntity
  8
0
  6
CONTINUOUS
 62
     7
100
AcDbPolyline
 90
        2
 70
     1
 10
77.666276
 20
24.082513
 42
-1.0
 10
78.266276
 20
24.082513
 42
-1.0
  0
LWPOLYLINE
  5
54
102
{ACAD_REACTORS
330
52
102
}
100
AcDbEntity
  8
0
  6
CONTINUOUS
 62
     7
100
AcDbPolyline
 90
        2
 70
     1
 10
77.666276
 20
19.082487
 42
-1.0
 10
78.266276
 20
19.082487
 42
-1.0
  0
LWPOLYLINE
  5
55
102
{ACAD_REACTORS
330
52
102
}
100
AcDbEntity
  8
0
  6
CONTINUOUS
 62
     7
100
AcDbPolyline
 90
        8
 70
     1
 10
79.0
 20
24.67
 42
0.414209
 10
78.5
 20
25.17
 10
77.4525
 20
25.17
 42
0.414209
 10
76.9525
 20
24.67
 10
76.9525
 20
18.495
 42
0.414209
 10
77.4525
 20
17.995
 10
78.5
 20
17.995
 42
0.414209
 10
79.0
 20
18.495
  0
LWPOLYLINE
  5
57
102
{ACAD_REACTORS
330
56
102
}
100
AcDbEntity
  8
0
  6
CONTINUOUS
 62
     7
100
AcDbPolyline
 90
        2
 70
     1
 10
77.666276
 20
31.432513
 42
-1.0
 10
78.266276
 20
31.432513
 42
-1.0
  0
LWPOLYLINE
  5
58
102
{ACAD_REACTORS
330
56
102
}
100
AcDbEntity
  8
0
  6
CONTINUOUS
 62
     7
100
AcDbPolyline
 90
        2
 70
     1
 10
77.666276
 20
26.432487
 42
-1.0
 10
78.266276
 20
26.432487
 42
-1.0
  0
LWPOLYLINE
  5
59
102
{ACAD_REACTORS
330
56
102
}
100
AcDbEntity
  8
0
  6
CONTINUOUS
 62
     7
100
AcDbPolyline
 90
        8
 70
     1
 10
79.0
 20
32.02
 42
0.414209
 10
78.5
 20
32.52
 10
77.4525
 20
32.52
 42
0.414209
 10
76.9525
 20
32.02
 10
76.9525
 20
25.845
 42
0.414209
 10
77.4525
 20
25.345
 10
78.5
 20
25.345
 42
0.414209
 10
79.0
 20
25.845
  0
LWPOLYLINE
  5
5B
102
{ACAD_REACTORS
330
5A
102
}
100
AcDbEntity
  8
0
  6
CONTINUOUS
 62
    10
100
AcDbPolyline
 90
        3
 70
     1
 10
57.932074
 20
43.8482
 10
60.53015
 20
39.3482
 10
63.128226
 20
43.8482
  0
LWPOLYLINE
  5
5C
102
{ACAD_REACTORS
330
5A
102
}
100
AcDbEntity
  8
0
  6
CONTINUOUS
 62
     7
100
AcDbPolyline
 90
        2
 70
     1
 10
60.53015
 20
40.0307
 42
-1.0
 10
60.53015
 20
40.3657
 42
-1.0
  0
LWPOLYLINE
  5
5D
102
{ACAD_REACTORS
330
5A
102
}
100
AcDbEntity
  8
0
  6
CONTINUOUS
 62
     7
100
AcDbPolyline
 90
        2
 70
     1
 10
62.43015
 20
43.3307
 42
-1.0
 10
62.43015
 20
43.6657
 42
-1.0
  0
LWPOLYLINE
  5
5E
102
{ACAD_REACTORS
330
5A
102
}
100
AcDbEntity
  8
0
  6
CONTINUOUS
 62
     7
100
AcDbPolyline
 90
        2
 70
     1
 10
58.63015
 20
43.3307
 42
-1.0
 10
58.63015
 20
43.6657
 42
-1.0
  0
MTEXT
  5
5F
100
AcDbEntity
  8
0
100
AcDbMText
 10
60.613837
 20
42.2482
 30
0.0
 40
0.211666
 41
3.668889
 71
     5
 72
     5
  1
\C3;\fCalibri|b0|i0|;\H0.21166585922241;Caster
  0
LWPOLYLINE
  5
61
102
{ACAD_REACTORS
330
60
102
}
100
AcDbEntity
  8
0
  6
CONTINUOUS
 62
    10
100
AcDbPolyline
 90
        3
 70
     1
 10
63.128226
 20
7.0982
 10
60.53015
 20
11.5982
 10
57.932074
 20
7.0982
  0
LWPOLYLINE
  5
62
102
{ACAD_REACTORS
330
60
102
}
100
AcDbEntity
  8
0
  6
CONTINUOUS
 62
     7
100
AcDbPolyline
 90
        2
 70
     1
 10
60.53015
 20
10.9157
 42
-1.0
 10
60.53015
 20
10.5807
 42
-1.0
  0
LWPOLYLINE
  5
63
102
{ACAD_REACTORS
330
60
102
}
100
AcDbEntity
  8
0
  6
CONTINUOUS
 62
     7
100
AcDbPolyline
 90
        2
 70
     1
 10
58.63015
 20
7.6157
 42
-1.0
 10
58.63015
 20
7.2807
 42
-1.0
  0
LWPOLYLINE
  5
64
102
{ACAD_REACTORS
330
60
102
}
100
AcDbEntity
  8
0
  6
CONTINUOUS
 62
     7
100
AcDbPolyline
 90
        2
 70
     1
 10
62.43015
 20
7.6157
 42
-1.0
 10
62.43015
 20
7.2807
 42
-1.0
  0
MTEXT
  5
65
100
AcDbEntity
  8
0
100
AcDbMText
 10
60.446463
 20
8.6982
 30
0.0
 40
0.211666
 41
3.668889
 71
     5
 72
     5
  1
\C3;\fCalibri|b0|i0|;\H0.21166585922241;Caster
  0
LWPOLYLINE
  5
67
102
{ACAD_REACTORS
330
66
102
}
100
AcDbEntity
  8
0
  6
CONTINUOUS
 62
     7
100
AcDbPolyline
 90
        3
 70
     1
 10
79.598076
 20
8.27
 10
77.0
 20
12.77
 10
74.401924
 20
8.27
  0
LWPOLYLINE
  5
68
102
{ACAD_REACTORS
330
66
102
}
100
AcDbEntity
  8
0
  6
CONTINUOUS
 62
     7
100
AcDbPolyline
 90
        2
 70
     1
 10
77.0
 20
12.0875
 42
-1.0
 10
77.0
 20
11.7525
 42
-1.0
  0
LWPOLYLINE
  5
69
102
{ACAD_REACTORS
330
66
102
}
100
AcDbEntity
  8
0
  6
CONTINUOUS
 62
     7
100
AcDbPolyline
 90
        2
 70
     1
 10
75.1
 20
8.7875
 42
-1.0
 10
75.1
 20
8.4525
 42
-1.0
  0
LWPOLYLINE
  5
6A
102
{ACAD_REACTORS
330
66
102
}
100
AcDbEntity
  8
0
  6
CONTINUOUS
 62
     7
100
AcDbPolyline
 90
        2
 70
     1
 10
78.9
 20
8.7875
 42
-1.0
 10
78.9
 20
8.4525
 42
-1.0
  0
LWPOLYLINE
  5
6C
102
{ACAD_REACTORS
330
6B
102
}
100
AcDbEntity
  8
0
  6
CONTINUOUS
 62
     7
100
AcDbPolyline
 90
        3
 70
     1
 10
44.751924
 20
45.32
 10
47.35
 20
40.82
 10
49.948076
 20
45.32
  0
LWPOLYLINE
  5
6D
102
{ACAD_REACTORS
330
6B
102
}
100
AcDbEntity
  8
0
  6
CONTINUOUS
 62
     7
100
AcDbPolyline
 90
        2
 70
     1
 10
47.35
 20
41.5025
 42
-1.0
 10
47.35
 20
41.8375
 42
-1.0
  0
LWPOLYLINE
  5
6E
102
{ACAD_REACTORS
330
6B
102
}
100
AcDbEntity
  8
0
  6
CONTINUOUS
 62
     7
100
AcDbPolyline
 90
        2
 70
     1
 10
49.25
 20
44.8025
 42
-1.0
 10
49.25
 20
45.1375
 42
-1.0
  0
LWPOLYLINE
  5
6F
102
{ACAD_REACTORS
330
6B
102
}
100
AcDbEntity
  8
0
  6
CONTINUOUS
 62
     7
100
AcDbPolyline
 90
        2
 70
     1
 10
45.45
 20
44.8025
 42
-1.0
 10
45.45
 20
45.1375
 42
-1.0
  0
LWPOLYLINE
  5
71
102
{ACAD_REACTORS
330
70
102
}
100
AcDbEntity
  8
0
  6
CONTINUOUS
 62
     7
100
AcDbPolyline
 90
        3
 70
     1
 10
70.771924
 20
45.52
 10
73.37
 20
41.02
 10
75.968076
 20
45.52
  0
LWPOLYLINE
  5
72
102
{ACAD_REACTORS
330
70
102
}
100
AcDbEntity
  8
0
  6
CONTINUOUS
 62
     7
100
AcDbPolyline
 90
        2
 70
     1
 10
73.37
 20
41.7025
 42
-1.0
 10
73.37
 20
42.0375
 42
-1.0
  0
LWPOLYLINE
  5
73
102
{ACAD_REACTORS
330
70
102
}
100
AcDbEntity
  8
0
  6
CONTINUOUS
 62
     7
100
AcDbPolyline
 90
        2
 70
     1
 10
75.27
 20
45.0025
 42
-1.0
 10
75.27
 20
45.3375
 42
-1.0
  0
LWPOLYLINE
  5
74
102
{ACAD_REACTORS
330
70
102
}
100
AcDbEntity
  8
0
  6
CONTINUOUS
 62
     7
100
AcDbPolyline
 90
        2
 70
     1
 10
71.47
 20
45.0025
 42
-1.0
 10
71.47
 20
45.3375
 42
-1.0
  0
LWPOLYLINE
  5
76
102
{ACAD_REACTORS
330
75
102
}
100
AcDbEntity
  8
0
  6
CONTINUOUS
 62
     7
100
AcDbPolyline
 90
        3
 70
     1
 10
78.948076
 20
41.02
 10
76.35
 20
45.52
 10
73.751924
 20
41.02
  0
LWPOLYLINE
  5
77
102
{ACAD_REACTORS
330
75
102
}
100
AcDbEntity
  8
0
  6
CONTINUOUS
 62
     7
100
AcDbPolyline
 90
        2
 70
     1
 10
76.35
 20
44.8375
 42
-1.0
 10
76.35
 20
44.5025
 42
-1.0
  0
LWPOLYLINE
  5
78
102
{ACAD_REACTORS
330
75
102
}
100
AcDbEntity
  8
0
  6
CONTINUOUS
 62
     7
100
AcDbPolyline
 90
        2
 70
     1
 10
74.45
 20
41.5375
 42
-1.0
 10
74.45
 20
41.2025
 42
-1.0
  0
LWPOLYLINE
  5
79
102
{ACAD_REACTORS
330
75
102
}
100
AcDbEntity
  8
0
  6
CONTINUOUS
 62
     7
100
AcDbPolyline
 90
        2
 70
     1
 10
78.25
 20
41.5375
 42
-1.0
 10
78.25
 20
41.2025
 42
-1.0
  0
LWPOLYLINE
  5
7B
102
{ACAD_REACTORS
330
7A
102
}
100
AcDbEntity
  8
0
  6
CONTINUOUS
 62
     7
100
AcDbPolyline
 90
        3
 70
     1
 10
46.668076
 20
40.82
 10
44.07
 20
45.32
 10
41.471924
 20
40.82
  0
LWPOLYLINE
  5
7C
102
{ACAD_REACTORS
330
7A
102
}
100
AcDbEntity
  8
0
  6
CONTINUOUS
 62
     7
100
AcDbPolyline
 90
        2
 70
     1
 10
44.07
 20
44.6375
 42
-1.0
 10
44.07
 20
44.3025
 42
-1.0
  0
LWPOLYLINE
  5
7D
102
{ACAD_REACTORS
330
7A
102
}
100
AcDbEntity
  8
0
  6
CONTINUOUS
 62
     7
100
AcDbPolyline
 90
        2
 70
     1
 10
42.17
 20
41.3375
 42
-1.0
 10
42.17
 20
41.0025
 42
-1.0
  0
LWPOLYLINE
  5
7E
102
{ACAD_REACTORS
330
7A
102
}
100
AcDbEntity
  8
0
  6
CONTINUOUS
 62
     7
100
AcDbPolyline
 90
        2
 70
     1
 10
45.97
 20
41.3375
 42
-1.0
 10
45.97
 20
41.0025
 42
-1.0
  0
LWPOLYLINE
  5
7F
100
AcDbEntity
  8
0
  6
CONTINUOUS
 62
    10
100
AcDbPolyline
 90
       20
 70
     1
 10
61.80015
 20
25.55935
 10
61.80015
 20
26.5182
 10
60.8413
 20
26.5182
 10
60.8413
 20
25.934
 10
60.219
 20
25.934
 10
60.219
 20
26.5182
 10
59.26015
 20
26.5182
 10
59.26015
 20
25.55935
 10
59.84435
 20
25.55935
 10
59.84435
 20
24.93705
 10
59.26015
 20
24.93705
 10
59.26015
 20
23.9782
 10
60.219
 20
23.9782
 10
60.219
 20
24.5624
 10
60.8413
 20
24.5624
 10
60.8413
 20
23.9782
 10
61.80015
 20
23.9782
 10
61.80015
 20
24.93705
 10
61.21595
 20
24.93705
 10
61.21595
 20
25.55935
  0
LWPOLYLINE
  5
80
100
AcDbEntity
  8
0
  6
CONTINUOUS
 62
    10
100
AcDbPolyline
 90
        4
 70
     1
 10
57.84015
 20
18.0482
 10
57.84015
 20
12.0882
 10
63.22015
 20
12.0882
 10
63.22015
 20
18.0482
  0
LWPOLYLINE
  5
81
100
AcDbEntity
  8
0
  6
CONTINUOUS
 62
     7
100
AcDbPolyline
 90
        2
 70
     1
 10
58.477764
 20
12.553256
 42
-1.0
 10
58.477764
 20
12.218256
 42
-1.0
  0
LWPOLYLINE
  5
82
100
AcDbEntity
  8
0
  6
CONTINUOUS
 62
     7
100
AcDbPolyline
 90
        2
 70
     1
 10
62.965712
 20
17.448086
 42
-1.0
 10
62.965712
 20
17.113086
 42
-1.0
  0
MTEXT
  5
83
100
AcDbEntity
  8
0
100
AcDbMText
 10
60.53015
 20
16.387778
 30
0.0
 40
0.211666
 41
3.668889
 71
     5
 72
     5
  1
\C3;\fCalibri|b0|i0|;\H0.21166585922241;MonsterMoto
  0
LWPOLYLINE
  5
84
100
AcDbEntity
  8
0
  6
CONTINUOUS
 62
     7
100
AcDbPolyline
 90
        2
 70
     1
 10
66.1
 20
23.50195
 42
-1.0
 10
66.42
 20
23.50195
 42
-1.0
  0
LWPOLYLINE
  5
86
102
{ACAD_REACTORS
330
85
102
}
100
AcDbEntity
  8
0
  6
CONTINUOUS
 62
     7
100
AcDbPolyline
 90
       20
 70
     1
 10
46.27
 20
9.43115
 10
46.27
 20
10.39
 10
45.31115
 20
10.39
 10
45.31115
 20
9.8058
 10
44.68885
 20
9.8058
 10
44.68885
 20
10.39
 10
43.73
 20
10.39
 10
43.73
 20
9.43115
 10
44.3142
 20
9.43115
 10
44.3142
 20
8.80885
 10
43.73
 20
8.80885
 10
43.73
 20
7.85
 10
44.68885
 20
7.85
 10
44.68885
 20
8.4342
 10
45.31115
 20
8.4342
 10
45.31115
 20
7.85
 10
46.27
 20
7.85
 10
46.27
 20
8.80885
 10
45.6858
 20
8.80885
 10
45.6858
 20
9.43115
  0
LWPOLYLINE
  5
87
102
{ACAD_REACTORS
330
85
102
}
100
AcDbEntity
  8
0
  6
CONTINUOUS
 62
     7
100
AcDbPolyline
 90
        8
 70
     1
 10
45.828427
 20
11.12
 10
44.171573
 20
11.12
 10
43.0
 20
9.948427
 10
43.0
 20
8.291573
 10
44.171573
 20
7.12
 10
45.828427
 20
7.12
 10
47.0
 20
8.291573
 10
47.0
 20
9.948427
  0
LWPOLYLINE
  5
88
102
{ACAD_REACTORS
330
85
102
}
100
AcDbEntity
  8
0
  6
CONTINUOUS
 62
     7
100
AcDbPolyline
 90
        2
 70
     1
 10
43.2
 20
9.12
 42
-1.0
 10
43.52
 20
9.12
 42
-1.0
  0
LWPOLYLINE
  5
89
102
{ACAD_REACTORS
330
85
102
}
100
AcDbEntity
  8
0
  6
CONTINUOUS
 62
     7
100
AcDbPolyline
 90
        2
 70
     1
 10
44.84
 20
7.48
 42
-1.0
 10
45.16
 20
7.48
 42
-1.0
  0
LWPOLYLINE
  5
8A
102
{ACAD_REACTORS
330
85
102
}
100
AcDbEntity
  8
0
  6
CONTINUOUS
 62
     7
100
AcDbPolyline
 90
        2
 70
     1
 10
46.48
 20
9.12
 42
-1.0
 10
46.8
 20
9.12
 42
-1.0
  0
LWPOLYLINE
  5
8B
102
{ACAD_REACTORS
330
85
102
}
100
AcDbEntity
  8
0
  6
CONTINUOUS
 62
     7
100
AcDbPolyline
 90
        2
 70
     1
 10
44.84
 20
10.76
 42
-1.0
 10
45.16
 20
10.76
 42
-1.0
  0
LWPOLYLINE
  5
8D
102
{ACAD_REACTORS
330
8C
102
}
100
AcDbEntity
  8
0
  6
CONTINUOUS
 62
     7
100
AcDbPolyline
 90
       20
 70
     1
 10
79.87
 20
38.98115
 10
79.87
 20
39.94
 10
78.91115
 20
39.94
 10
78.91115
 20
39.3558
 10
78.28885
 20
39.3558
 10
78.28885
 20
39.94
 10
77.33
 20
39.94
 10
77.33
 20
38.98115
 10
77.9142
 20
38.98115
 10
77.9142
 20
38.35885
 10
77.33
 20
38.35885
 10
77.33
 20
37.4
 10
78.28885
 20
37.4
 10
78.28885
 20
37.9842
 10
78.91115
 20
37.9842
 10
78.91115
 20
37.4
 10
79.87
 20
37.4
 10
79.87
 20
38.35885
 10
79.2858
 20
38.35885
 10
79.2858
 20
38.98115
  0
LWPOLYLINE
  5
8E
102
{ACAD_REACTORS
330
8C
102
}
100
AcDbEntity
  8
0
  6
CONTINUOUS
 62
     7
100
AcDbPolyline
 90
        8
 70
     1
 10
79.428427
 20
40.67
 10
77.771573
 20
40.67
 10
76.6
 20
39.498427
 10
76.6
 20
37.841573
 10
77.771573
 20
36.67
 10
79.428427
 20
36.67
 10
80.6
 20
37.841573
 10
80.6
 20
39.498427
  0
LWPOLYLINE
  5
8F
102
{ACAD_REACTORS
330
8C
102
}
100
AcDbEntity
  8
0
  6
CONTINUOUS
 62
     7
100
AcDbPolyline
 90
        2
 70
     1
 10
76.8
 20
38.67
 42
-1.0
 10
77.12
 20
38.67
 42
-1.0
  0
LWPOLYLINE
  5
90
102
{ACAD_REACTORS
330
8C
102
}
100
AcDbEntity
  8
0
  6
CONTINUOUS
 62
     7
100
AcDbPolyline
 90
        2
 70
     1
 10
78.44
 20
37.03
 42
-1.0
 10
78.76
 20
37.03
 42
-1.0
  0
LWPOLYLINE
  5
91
102
{ACAD_REACTORS
330
8C
102
}
100
AcDbEntity
  8
0
  6
CONTINUOUS
 62
     7
100
AcDbPolyline
 90
        2
 70
     1
 10
80.08
 20
38.67
 42
-1.0
 10
80.4
 20
38.67
 42
-1.0
  0
LWPOLYLINE
  5
92
102
{ACAD_REACTORS
330
8C
102
}
100
AcDbEntity
  8
0
  6
CONTINUOUS
 62
     7
100
AcDbPolyline
 90
        2
 70
     1
 10
78.44
 20
40.31
 42
-1.0
 10
78.76
 20
40.31
 42
-1.0
  0
LWPOLYLINE
  5
93
100
AcDbEntity
  8
0
  6
CONTINUOUS
 62
     7
100
AcDbPolyline
 90
        4
 70
     1
 10
58.30015
 20
26.52195
 10
58.30015
 20
27.47445
 10
56.30015
 20
27.47445
 10
56.30015
 20
26.52195
  0
LWPOLYLINE
  5
94
100
AcDbEntity
  8
0
  6
CONTINUOUS
 62
     7
100
AcDbPolyline
 90
        4
 70
     1
 10
59.26
 20
23.0182
 10
58.3075
 20
23.0182
 10
58.3075
 20
21.0182
 10
59.26
 20
21.0182
  0
LWPOLYLINE
  5
95
100
AcDbEntity
  8
0
  6
CONTINUOUS
 62
     7
100
AcDbPolyline
 90
        4
 70
     1
 10
62.76015
 20
23.9782
 10
62.76015
 20
23.0257
 10
64.76015
 20
23.0257
 10
64.76015
 20
23.9782
  0
LWPOLYLINE
  5
96
100
AcDbEntity
  8
0
  6
CONTINUOUS
 62
     7
100
AcDbPolyline
 90
        4
 70
     1
 10
62.75375
 20
29.4782
 10
61.80125
 20
29.4782
 10
61.80125
 20
27.4782
 10
62.75375
 20
27.4782
  0
LWPOLYLINE
  5
97
100
AcDbEntity
  8
0
  6
CONTINUOUS
 62
     7
100
AcDbPolyline
 90
        2
 70
     1
 10
60.23015
 20
25.2482
 42
-1.0
 10
60.83015
 20
25.2482
 42
-1.0
  0
LWPOLYLINE
  5
99
102
{ACAD_REACTORS
330
98
102
}
100
AcDbEntity
  8
0
  6
CONTINUOUS
 62
     7
100
AcDbPolyline
 90
        2
 70
     1
 10
75.19015
 20
27.741813
 42
-1.0
 10
75.79015
 20
27.741813
 42
-1.0
  0
LWPOLYLINE
  5
9A
102
{ACAD_REACTORS
330
98
102
}
100
AcDbEntity
  8
0
  6
CONTINUOUS
 62
     7
100
AcDbPolyline
 90
        2
 70
     1
 10
75.19015
 20
22.741787
 42
-1.0
 10
75.79015
 20
22.741787
 42
-1.0
  0
LWPOLYLINE
  5
9C
102
{ACAD_REACTORS
330
9B
102
}
100
AcDbEntity
  8
0
  6
CONTINUOUS
 62
     7
100
AcDbPolyline
 90
        3
 70
     1
 10
50.673076
 20
4.42
 10
48.075
 20
8.92
 10
45.476924
 20
4.42
  0
LWPOLYLINE
  5
9D
102
{ACAD_REACTORS
330
9B
102
}
100
AcDbEntity
  8
0
  6
CONTINUOUS
 62
     7
100
AcDbPolyline
 90
        2
 70
     1
 10
48.075
 20
8.2375
 42
-1.0
 10
48.075
 20
7.9025
 42
-1.0
  0
LWPOLYLINE
  5
9E
102
{ACAD_REACTORS
330
9B
102
}
100
AcDbEntity
  8
0
  6
CONTINUOUS
 62
     7
100
AcDbPolyline
 90
        2
 70
     1
 10
46.175
 20
4.9375
 42
-1.0
 10
46.175
 20
4.6025
 42
-1.0
  0
LWPOLYLINE
  5
9F
102
{ACAD_REACTORS
330
9B
102
}
100
AcDbEntity
  8
0
  6
CONTINUOUS
 62
     7
100
AcDbPolyline
 90
        2
 70
     1
 10
49.975
 20
4.9375
 42
-1.0
 10
49.975
 20
4.6025
 42
-1.0
  0
LWPOLYLINE
  5
A0
100
AcDbEntity
  8
0
  6
CONTINUOUS
 62
     7
100
AcDbPolyline
 90
        2
 70
     1
 10
58.62375
 20
19.52
 42
-1.0
 10
58.94375
 20
19.52
 42
-1.0
  0
LWPOLYLINE
  5
A1
100
AcDbEntity
  8
0
  6
CONTINUOUS
 62
     7
100
AcDbPolyline
 90
        2
 70
     1
 10
54.64
 20
26.9982
 42
-1.0
 10
54.96
 20
26.9982
 42
-1.0
  0
LWPOLYLINE
  5
A2
100
AcDbEntity
  8
0
  6
CONTINUOUS
 62
     7
100
AcDbPolyline
 90
        2
 70
     1
 10
62.1175
 20
30.98
 42
-1.0
 10
62.4375
 20
30.98
 42
-1.0
  0
LWPOLYLINE
  5
A4
102
{ACAD_REACTORS
330
A3
102
}
100
AcDbEntity
  8
0
  6
CONTINUOUS
 62
     7
100
AcDbPolyline
 90
       14
 70
     1
 10
58.5
 20
2.1675
 10
58.5
 20
4.1675
 10
55.0
 20
4.1675
 10
55.0
 20
5.12
 10
53.0
 20
5.12
 10
53.0
 20
4.1675
 10
51.0
 20
4.1675
 10
51.0
 20
3.6675
 10
52.0
 20
3.6675
 10
56.053333
 20
0.4675
 10
58.5
 20
0.4675
 10
58.5
 20
1.6675
 10
59.45
 20
1.6675
 10
59.45
 20
2.1675
  0
LWPOLYLINE
  5
A5
102
{ACAD_REACTORS
330
A3
102
}
100
AcDbEntity
  8
0
  6
CONTINUOUS
 62
     7
100
AcDbPolyline
 90
        2
 70
     1
 10
57.58
 20
1.0125
 42
-1.0
 10
56.88
 20
1.0125
 42
-1.0
  0
LWPOLYLINE
  5
A6
102
{ACAD_REACTORS
330
A3
102
}
100
AcDbEntity
  8
0
  6
CONTINUOUS
 62
     7
100
AcDbPolyline
 90
        2
 70
     1
 10
57.58
 20
3.5225
 42
-1.0
 10
56.88
 20
3.5225
 42
-1.0
  0
LWPOLYLINE
  5
A7
102
{ACAD_REACTORS
330
A3
102
}
100
AcDbEntity
  8
0
  6
CONTINUOUS
 62
     7
100
AcDbPolyline
 90
        4
 70
     1
 10
55.00755
 20
2.1675
 10
55.00755
 20
1.6675
 10
55.96005
 20
1.6675
 10
55.96005
 20
2.1675
  0
LWPOLYLINE
  5
A9
102
{ACAD_REACTORS
330
A8
102
}
100
AcDbEntity
  8
0
  6
CONTINUOUS
 62
     7
100
AcDbPolyline
 90
       14
 70
     1
 10
67.55
 20
3.54625
 10
67.55
 20
1.54625
 10
71.05
 20
1.54625
 10
71.05
 20
0.59375
 10
73.05
 20
0.59375
 10
73.05
 20
1.54625
 10
75.05
 20
1.54625
 10
75.05
 20
2.04625
 10
74.05
 20
2.04625
 10
69.996667
 20
5.24625
 10
67.55
 20
5.24625
 10
67.55
 20
4.04625
 10
66.6
 20
4.04625
 10
66.6
 20
3.54625
  0
LWPOLYLINE
  5
AA
102
{ACAD_REACTORS
330
A8
102
}
100
AcDbEntity
  8
0
  6
CONTINUOUS
 62
     7
100
AcDbPolyline
 90
        2
 70
     1
 10
68.47
 20
4.70125
 42
-1.0
 10
69.17
 20
4.70125
 42
-1.0
  0
LWPOLYLINE
  5
AB
102
{ACAD_REACTORS
330
A8
102
}
100
AcDbEntity
  8
0
  6
CONTINUOUS
 62
     7
100
AcDbPolyline
 90
        2
 70
     1
 10
68.47
 20
2.19125
 42
-1.0
 10
69.17
 20
2.19125
 42
-1.0
  0
LWPOLYLINE
  5
AC
102
{ACAD_REACTORS
330
A8
102
}
100
AcDbEntity
  8
0
  6
CONTINUOUS
 62
     7
100
AcDbPolyline
 90
        4
 70
     1
 10
71.04245
 20
3.54625
 10
71.04245
 20
4.04625
 10
70.08995
 20
4.04625
 10
70.08995
 20
3.54625
  0
LWPOLYLINE
  5
AE
102
{ACAD_REACTORS
330
AD
102
}
100
AcDbEntity
  8
0
  6
CONTINUOUS
 62
     7
100
AcDbPolyline
 90
       14
 70
     1
 10
76.65
 20
4.22
 10
76.65
 20
6.22
 10
73.15
 20
6.22
 10
73.15
 20
7.1725
 10
71.15
 20
7.1725
 10
71.15
 20
6.22
 10
69.15
 20
6.22
 10
69.15
 20
5.72
 10
70.15
 20
5.72
 10
74.203333
 20
2.52
 10
76.65
 20
2.52
 10
76.65
 20
3.72
 10
77.6
 20
3.72
 10
77.6
 20
4.22
  0
LWPOLYLINE
  5
AF
102
{ACAD_REACTORS
330
AD
102
}
100
AcDbEntity
  8
0
  6
CONTINUOUS
 62
     7
100
AcDbPolyline
 90
        2
 70
     1
 10
75.73
 20
3.065
 42
-1.0
 10
75.03
 20
3.065
 42
-1.0
  0
LWPOLYLINE
  5
B0
102
{ACAD_REACTORS
330
AD
102
}
100
AcDbEntity
  8
0
  6
CONTINUOUS
 62
     7
100
AcDbPolyline
 90
        2
 70
     1
 10
75.73
 20
5.575
 42
-1.0
 10
75.03
 20
5.575
 42
-1.0
  0
LWPOLYLINE
  5
B1
102
{ACAD_REACTORS
330
AD
102
}
100
AcDbEntity
  8
0
  6
CONTINUOUS
 62
     7
100
AcDbPolyline
 90
        4
 70
     1
 10
73.15755
 20
4.22
 10
73.15755
 20
3.72
 10
74.11005
 20
3.72
 10
74.11005
 20
4.22
  0
LWPOLYLINE
  5
B3
102
{ACAD_REACTORS
330
B2
102
}
100
AcDbEntity
  8
0
  6
CONTINUOUS
 62
     7
100
AcDbPolyline
 90
       14
 70
     1
 10
59.725
 20
3.2725
 10
59.725
 20
1.2725
 10
63.225
 20
1.2725
 10
63.225
 20
0.32
 10
65.225
 20
0.32
 10
65.225
 20
1.2725
 10
67.225
 20
1.2725
 10
67.225
 20
1.7725
 10
66.225
 20
1.7725
 10
62.171667
 20
4.9725
 10
59.725
 20
4.9725
 10
59.725
 20
3.7725
 10
58.775
 20
3.7725
 10
58.775
 20
3.2725
  0
LWPOLYLINE
  5
B4
102
{ACAD_REACTORS
330
B2
102
}
100
AcDbEntity
  8
0
  6
CONTINUOUS
 62
     7
100
AcDbPolyline
 90
        2
 70
     1
 10
60.645
 20
4.4275
 42
-1.0
 10
61.345
 20
4.4275
 42
-1.0
  0
LWPOLYLINE
  5
B5
102
{ACAD_REACTORS
330
B2
102
}
100
AcDbEntity
  8
0
  6
CONTINUOUS
 62
     7
100
AcDbPolyline
 90
        2
 70
     1
 10
60.645
 20
1.9175
 42
-1.0
 10
61.345
 20
1.9175
 42
-1.0
  0
LWPOLYLINE
  5
B6
102
{ACAD_REACTORS
330
B2
102
}
100
AcDbEntity
  8
0
  6
CONTINUOUS
 62
     7
100
AcDbPolyline
 90
        4
 70
     1
 10
63.21745
 20
3.2725
 10
63.21745
 20
3.7725
 10
62.26495
 20
3.7725
 10
62.26495
 20
3.2725
  0
LWPOLYLINE
  5
B7
100
AcDbEntity
  8
0
  6
CONTINUOUS
 62
     7
100
AcDbPolyline
 90
        2
 70
     1
 10
2.78015
 20
33.9418
 42
-1.0
 10
3.48015
 20
33.9418
 42
-1.0
  0
LWPOLYLINE
  5
B8
100
AcDbEntity
  8
0
  6
CONTINUOUS
 62
     7
100
AcDbPolyline
 90
        2
 70
     1
 10
36.08015
 20
33.9418
 42
-1.0
 10
36.78015
 20
33.9418
 42
-1.0
  0
LWPOLYLINE
  5
B9
100
AcDbEntity
  8
0
  6
CONTINUOUS
 62
     7
100
AcDbPolyline
 90
        2
 70
     1
 10
35.98015
 20
16.2418
 42
-1.0
 10
36.68015
 20
16.2418
 42
-1.0
  0
LWPOLYLINE
  5
BA
100
AcDbEntity
  8
0
  6
CONTINUOUS
 62
     7
100
AcDbPolyline
 90
        2
 70
     1
 10
2.78015
 20
16.2418
 42
-1.0
 10
3.48015
 20
16.2418
 42
-1.0
  0
LWPOLYLINE
  5
BB
100
AcDbEntity
  8
0
  6
CONTINUOUS
 62
     7
100
AcDbPolyline
 90
        2
 70
     1
 10
24.5939
 20
22.1982
 42
-1.0
 10
24.5939
 20
20.6982
 42
-1.0
  0
LWPOLYLINE
  5
BC
100
AcDbEntity
  8
0
  6
CONTINUOUS
 62
     7
100
AcDbPolyline
 90
        2
 70
     1
 10
14.8664
 20
22.1982
 42
-1.0
 10
14.8664
 20
20.6982
 42
-1.0
  0
LWPOLYLINE
  5
BE
102
{ACAD_REACTORS
330
BD
102
}
100
AcDbEntity
  8
0
  6
CONTINUOUS
 62
     7
100
AcDbPolyline
 90
        2
 70
     1
 10
4.47015
 20
27.541813
 42
-1.0
 10
5.07015
 20
27.541813
 42
-1.0
  0
LWPOLYLINE
  5
BF
102
{ACAD_REACTORS
330
BD
102
}
100
AcDbEntity
  8
0
  6
CONTINUOUS
 62
     7
100
AcDbPolyline
 90
        2
 70
     1
 10
4.47015
 20
22.541787
 42
-1.0
 10
5.07015
 20
22.541787
 42
-1.0
  0
LWPOLYLINE
  5
C0
100
AcDbEntity
  8
0
  6
CONTINUOUS
 62
     7
100
AcDbPolyline
 90
       21
 70
     1
 10
0.517181
 20
17.2918
 42
0.102797
 10
3.035956
 20
13.451723
 10
8.140073
 20
8.347606
 42
0.198912
 10
16.120995
 20
5.0418
 10
23.339305
 20
5.0418
 42
0.198912
 10
31.320227
 20
8.347606
 10
36.424344
 20
13.451723
 42
0.102797
 10
38.943119
 20
17.2918
 10
35.73015
 20
17.2918
 10
35.73015
 20
32.7918
 10
38.943119
 20
32.7918
 42
0.004262
 10
38.870999
 20
32.970199
 42
0.098491
 10
36.424344
 20
36.631877
 10
31.320227
 20
41.735994
 42
0.198912
 10
23.339305
 20
45.0418
 10
16.120995
 20
45.0418
 42
0.198912
 10
8.140073
 20
41.735994
 10
3.035956
 20
36.631877
 42
0.102797
 10
0.517181
 20
32.7918
 10
3.73015
 20
32.7918
 10
3.73015
 20
17.2918
  0
MTEXT
  5
C1
100
AcDbEntity
  8
0
100
AcDbMText
 10
10.786661
 20
8.936944
 30
0.0
 40
0.317502
 41
3.470822
 71
     5
 72
     5
  1
\C3;\fCalibri|b0|i0|;\H0.31750242233276;MARK 2\PDrive Base\P2012-05-29
  0
LWPOLYLINE
  5
C2
100
AcDbEntity
  8
0
  6
CONTINUOUS
 62
    10
100
AcDbPolyline
 90
        4
 70
     1
 10
28.91375
 20
18.3582
 10
24.37375
 20
18.3582
 10
24.37375
 20
9.9982
 10
28.91375
 20
9.9982
  0
LWPOLYLINE
  5
C3
100
AcDbEntity
  8
0
  6
CONTINUOUS
 62
     7
100
AcDbPolyline
 90
        2
 70
     1
 10
28.44868
 20
10.533224
 42
-1.0
 10
28.10868
 20
10.533224
 42
-1.0
  0
LWPOLYLINE
  5
C4
100
AcDbEntity
  8
0
  6
CONTINUOUS
 62
     7
100
AcDbPolyline
 90
        2
 70
     1
 10
24.83882
 20
17.823176
 42
-1.0
 10
25.17882
 20
17.823176
 42
-1.0
  0
LWPOLYLINE
  5
C5
100
AcDbEntity
  8
0
  6
CONTINUOUS
 62
     7
100
AcDbPolyline
 90
        2
 70
     1
 10
28.44868
 20
17.823176
 42
-1.0
 10
28.10868
 20
17.823176
 42
-1.0
  0
LWPOLYLINE
  5
C6
100
AcDbEntity
  8
0
  6
CONTINUOUS
 62
     7
100
AcDbPolyline
 90
        2
 70
     1
 10
25.17882
 20
10.533224
 42
-1.0
 10
24.83882
 20
10.533224
 42
-1.0
  0
MTEXT
  5
C7
100
AcDbEntity
  8
0
100
AcDbMText
 10
26.64375
 20
16.687778
 30
0.0
 40
0.211666
 41
3.668889
 71
     5
 72
     5
  1
\C3;\fCalibri|b0|i0|;\H0.21166585922241;Breadboard
  0
LWPOLYLINE
  5
C9
102
{ACAD_REACTORS
330
C8
102
}
100
AcDbEntity
  8
0
  6
CONTINUOUS
 62
     7
100
AcDbPolyline
 90
        2
 70
     1
 10
10.900013
 20
1.829974
 42
-1.0
 10
10.900013
 20
1.229974
 42
-1.0
  0
LWPOLYLINE
  5
CA
102
{ACAD_REACTORS
330
C8
102
}
100
AcDbEntity
  8
0
  6
CONTINUOUS
 62
     7
100
AcDbPolyline
 90
        2
 70
     1
 10
5.899987
 20
1.829974
 42
-1.0
 10
5.899987
 20
1.229974
 42
-1.0
  0
LWPOLYLINE
  5
CB
102
{ACAD_REACTORS
330
C8
102
}
100
AcDbEntity
  8
0
  6
CONTINUOUS
 62
     7
100
AcDbPolyline
 90
        8
 70
     1
 10
11.4875
 20
0.49625
 42
0.414209
 10
11.9875
 20
0.99625
 10
11.9875
 20
2.04375
 42
0.414209
 10
11.4875
 20
2.54375
 10
5.3125
 20
2.54375
 42
0.414209
 10
4.8125
 20
2.04375
 10
4.8125
 20
0.99625
 42
0.414209
 10
5.3125
 20
0.49625
  0
LWPOLYLINE
  5
CD
102
{ACAD_REACTORS
330
CC
102
}
100
AcDbEntity
  8
0
  6
CONTINUOUS
 62
     7
100
AcDbPolyline
 90
        2
 70
     1
 10
2.266276
 20
23.970013
 42
-1.0
 10
2.866276
 20
23.970013
 42
-1.0
  0
LWPOLYLINE
  5
CE
102
{ACAD_REACTORS
330
CC
102
}
100
AcDbEntity
  8
0
  6
CONTINUOUS
 62
     7
100
AcDbPolyline
 90
        2
 70
     1
 10
2.266276
 20
18.969987
 42
-1.0
 10
2.866276
 20
18.969987
 42
-1.0
  0
LWPOLYLINE
  5
CF
102
{ACAD_REACTORS
330
CC
102
}
100
AcDbEntity
  8
0
  6
CONTINUOUS
 62
     7
100
AcDbPolyline
 90
        8
 70
     1
 10
3.6
 20
24.5575
 42
0.414209
 10
3.1
 20
25.0575
 10
2.0525
 20
25.0575
 42
0.414209
 10
1.5525
 20
24.5575
 10
1.5525
 20
18.3825
 42
0.414209
 10
2.0525
 20
17.8825
 10
3.1
 20
17.8825
 42
0.414209
 10
3.6
 20
18.3825
  0
LWPOLYLINE
  5
D1
102
{ACAD_REACTORS
330
D0
102
}
100
AcDbEntity
  8
0
  6
CONTINUOUS
 62
     7
100
AcDbPolyline
 90
        2
 70
     1
 10
2.266276
 20
31.382513
 42
-1.0
 10
2.866276
 20
31.382513
 42
-1.0
  0
LWPOLYLINE
  5
D2
102
{ACAD_REACTORS
330
D0
102
}
100
AcDbEntity
  8
0
  6
CONTINUOUS
 62
     7
100
AcDbPolyline
 90
        2
 70
     1
 10
2.266276
 20
26.382487
 42
-1.0
 10
2.866276
 20
26.382487
 42
-1.0
  0
LWPOLYLINE
  5
D3
102
{ACAD_REACTORS
330
D0
102
}
100
AcDbEntity
  8
0
  6
CONTINUOUS
 62
     7
100
AcDbPolyline
 90
        8
 70
     1
 10
3.6
 20
31.97
 42
0.414209
 10
3.1
 20
32.47
 10
2.0525
 20
32.47
 42
0.414209
 10
1.5525
 20
31.97
 10
1.5525
 20
25.795
 42
0.414209
 10
2.0525
 20
25.295
 10
3.1
 20
25.295
 42
0.414209
 10
3.6
 20
25.795
  0
LWPOLYLINE
  5
D5
102
{ACAD_REACTORS
330
D4
102
}
100
AcDbEntity
  8
0
  6
CONTINUOUS
 62
     7
100
AcDbPolyline
 90
        2
 70
     1
 10
37.866276
 20
6.470013
 42
-1.0
 10
38.466276
 20
6.470013
 42
-1.0
  0
LWPOLYLINE
  5
D6
102
{ACAD_REACTORS
330
D4
102
}
100
AcDbEntity
  8
0
  6
CONTINUOUS
 62
     7
100
AcDbPolyline
 90
        2
 70
     1
 10
37.866276
 20
1.469987
 42
-1.0
 10
38.466276
 20
1.469987
 42
-1.0
  0
LWPOLYLINE
  5
D7
102
{ACAD_REACTORS
330
D4
102
}
100
AcDbEntity
  8
0
  6
CONTINUOUS
 62
     7
100
AcDbPolyline
 90
        8
 70
     1
 10
39.2
 20
7.0575
 42
0.414209
 10
38.7
 20
7.5575
 10
37.6525
 20
7.5575
 42
0.414209
 10
37.1525
 20
7.0575
 10
37.1525
 20
0.8825
 42
0.414209
 10
37.6525
 20
0.3825
 10
38.7
 20
0.3825
 42
0.414209
 10
39.2
 20
0.8825
  0
LWPOLYLINE
  5
D9
102
{ACAD_REACTORS
330
D8
102
}
100
AcDbEntity
  8
0
  6
CONTINUOUS
 62
     7
100
AcDbPolyline
 90
        2
 70
     1
 10
36.866276
 20
23.882513
 42
-1.0
 10
37.466276
 20
23.882513
 42
-1.0
  0
LWPOLYLINE
  5
DA
102
{ACAD_REACTORS
330
D8
102
}
100
AcDbEntity
  8
0
  6
CONTINUOUS
 62
     7
100
AcDbPolyline
 90
        2
 70
     1
 10
36.866276
 20
18.882487
 42
-1.0
 10
37.466276
 20
18.882487
 42
-1.0
  0
LWPOLYLINE
  5
DB
102
{ACAD_REACTORS
330
D8
102
}
100
AcDbEntity
  8
0
  6
CONTINUOUS
 62
     7
100
AcDbPolyline
 90
        8
 70
     1
 10
38.2
 20
24.47
 42
0.414209
 10
37.7
 20
24.97
 10
36.6525
 20
24.97
 42
0.414209
 10
36.1525
 20
24.47
 10
36.1525
 20
18.295
 42
0.414209
 10
36.6525
 20
17.795
 10
37.7
 20
17.795
 42
0.414209
 10
38.2
 20
18.295
  0
LWPOLYLINE
  5
DD
102
{ACAD_REACTORS
330
DC
102
}
100
AcDbEntity
  8
0
  6
CONTINUOUS
 62
     7
100
AcDbPolyline
 90
        2
 70
     1
 10
36.866276
 20
31.232513
 42
-1.0
 10
37.466276
 20
31.232513
 42
-1.0
  0
LWPOLYLINE
  5
DE
102
{ACAD_REACTORS
330
DC
102
}
100
AcDbEntity
  8
0
  6
CONTINUOUS
 62
     7
100
AcDbPolyline
 90
        2
 70
     1
 10
36.866276
 20
26.232487
 42
-1.0
 10
37.466276
 20
26.232487
 42
-1.0
  0
LWPOLYLINE
  5
DF
102
{ACAD_REACTORS
330
DC
102
}
100
AcDbEntity
  8
0
  6
CONTINUOUS
 62
     7
100
AcDbPolyline
 90
        8
 70
     1
 10
38.2
 20
31.82
 42
0.414209
 10
37.7
 20
32.32
 10
36.6525
 20
32.32
 42
0.414209
 10
36.1525
 20
31.82
 10
36.1525
 20
25.645
 42
0.414209
 10
36.6525
 20
25.145
 10
37.7
 20
25.145
 42
0.414209
 10
38.2
 20
25.645
  0
LWPOLYLINE
  5
E1
102
{ACAD_REACTORS
330
E0
102
}
100
AcDbEntity
  8
0
  6
CONTINUOUS
 62
    10
100
AcDbPolyline
 90
        3
 70
     1
 10
17.132074
 20
43.6482
 10
19.73015
 20
39.1482
 10
22.328226
 20
43.6482
  0
LWPOLYLINE
  5
E2
102
{ACAD_REACTORS
330
E0
102
}
100
AcDbEntity
  8
0
  6
CONTINUOUS
 62
     7
100
AcDbPolyline
 90
        2
 70
     1
 10
19.73015
 20
39.8307
 42
-1.0
 10
19.73015
 20
40.1657
 42
-1.0
  0
LWPOLYLINE
  5
E3
102
{ACAD_REACTORS
330
E0
102
}
100
AcDbEntity
  8
0
  6
CONTINUOUS
 62
     7
100
AcDbPolyline
 90
        2
 70
     1
 10
21.63015
 20
43.1307
 42
-1.0
 10
21.63015
 20
43.4657
 42
-1.0
  0
LWPOLYLINE
  5
E4
102
{ACAD_REACTORS
330
E0
102
}
100
AcDbEntity
  8
0
  6
CONTINUOUS
 62
     7
100
AcDbPolyline
 90
        2
 70
     1
 10
17.83015
 20
43.1307
 42
-1.0
 10
17.83015
 20
43.4657
 42
-1.0
  0
MTEXT
  5
E5
100
AcDbEntity
  8
0
100
AcDbMText
 10
19.813837
 20
42.0482
 30
0.0
 40
0.211666
 41
3.668889
 71
     5
 72
     5
  1
\C3;\fCalibri|b0|i0|;\H0.21166585922241;Caster
  0
LWPOLYLINE
  5
E7
102
{ACAD_REACTORS
330
E6
102
}
100
AcDbEntity
  8
0
  6
CONTINUOUS
 62
    10
100
AcDbPolyline
 90
        3
 70
     1
 10
22.328226
 20
6.8982
 10
19.73015
 20
11.3982
 10
17.132074
 20
6.8982
  0
LWPOLYLINE
  5
E8
102
{ACAD_REACTORS
330
E6
102
}
100
AcDbEntity
  8
0
  6
CONTINUOUS
 62
     7
100
AcDbPolyline
 90
        2
 70
     1
 10
19.73015
 20
10.7157
 42
-1.0
 10
19.73015
 20
10.3807
 42
-1.0
  0
LWPOLYLINE
  5
E9
102
{ACAD_REACTORS
330
E6
102
}
100
AcDbEntity
  8
0
  6
CONTINUOUS
 62
     7
100
AcDbPolyline
 90
        2
 70
     1
 10
17.83015
 20
7.4157
 42
-1.0
 10
17.83015
 20
7.0807
 42
-1.0
  0
LWPOLYLINE
  5
EA
102
{ACAD_REACTORS
330
E6
102
}
100
AcDbEntity
  8
0
  6
CONTINUOUS
 62
     7
100
AcDbPolyline
 90
        2
 70
     1
 10
21.63015
 20
7.4157
 42
-1.0
 10
21.63015
 20
7.0807
 42
-1.0
  0
MTEXT
  5
EB
100
AcDbEntity
  8
0
100
AcDbMText
 10
19.646463
 20
8.4982
 30
0.0
 40
0.211666
 41
3.668889
 71
     5
 72
     5
  1
\C3;\fCalibri|b0|i0|;\H0.21166585922241;Caster
  0
LWPOLYLINE
  5
ED
102
{ACAD_REACTORS
330
EC
102
}
100
AcDbEntity
  8
0
  6
CONTINUOUS
 62
     7
100
AcDbPolyline
 90
        3
 70
     1
 10
38.798076
 20
8.07
 10
36.2
 20
12.57
 10
33.601924
 20
8.07
  0
LWPOLYLINE
  5
EE
102
{ACAD_REACTORS
330
EC
102
}
100
AcDbEntity
  8
0
  6
CONTINUOUS
 62
     7
100
AcDbPolyline
 90
        2
 70
     1
 10
36.2
 20
11.8875
 42
-1.0
 10
36.2
 20
11.5525
 42
-1.0
  0
LWPOLYLINE
  5
EF
102
{ACAD_REACTORS
330
EC
102
}
100
AcDbEntity
  8
0
  6
CONTINUOUS
 62
     7
100
AcDbPolyline
 90
        2
 70
     1
 10
34.3
 20
8.5875
 42
-1.0
 10
34.3
 20
8.2525
 42
-1.0
  0
LWPOLYLINE
  5
F0
102
{ACAD_REACTORS
330
EC
102
}
100
AcDbEntity
  8
0
  6
CONTINUOUS
 62
     7
100
AcDbPolyline
 90
        2
 70
     1
 10
38.1
 20
8.5875
 42
-1.0
 10
38.1
 20
8.2525
 42
-1.0
  0
LWPOLYLINE
  5
F2
102
{ACAD_REACTORS
330
F1
102
}
100
AcDbEntity
  8
0
  6
CONTINUOUS
 62
     7
100
AcDbPolyline
 90
        3
 70
     1
 10
3.951924
 20
45.12
 10
6.55
 20
40.62
 10
9.148076
 20
45.12
  0
LWPOLYLINE
  5
F3
102
{ACAD_REACTORS
330
F1
102
}
100
AcDbEntity
  8
0
  6
CONTINUOUS
 62
     7
100
AcDbPolyline
 90
        2
 70
     1
 10
6.55
 20
41.3025
 42
-1.0
 10
6.55
 20
41.6375
 42
-1.0
  0
LWPOLYLINE
  5
F4
102
{ACAD_REACTORS
330
F1
102
}
100
AcDbEntity
  8
0
  6
CONTINUOUS
 62
     7
100
AcDbPolyline
 90
        2
 70
     1
 10
8.45
 20
44.6025
 42
-1.0
 10
8.45
 20
44.9375
 42
-1.0
  0
LWPOLYLINE
  5
F5
102
{ACAD_REACTORS
330
F1
102
}
100
AcDbEntity
  8
0
  6
CONTINUOUS
 62
     7
100
AcDbPolyline
 90
        2
 70
     1
 10
4.65
 20
44.6025
 42
-1.0
 10
4.65
 20
44.9375
 42
-1.0
  0
LWPOLYLINE
  5
F7
102
{ACAD_REACTORS
330
F6
102
}
100
AcDbEntity
  8
0
  6
CONTINUOUS
 62
     7
100
AcDbPolyline
 90
        3
 70
     1
 10
29.971924
 20
45.32
 10
32.57
 20
40.82
 10
35.168076
 20
45.32
  0
LWPOLYLINE
  5
F8
102
{ACAD_REACTORS
330
F6
102
}
100
AcDbEntity
  8
0
  6
CONTINUOUS
 62
     7
100
AcDbPolyline
 90
        2
 70
     1
 10
32.57
 20
41.5025
 42
-1.0
 10
32.57
 20
41.8375
 42
-1.0
  0
LWPOLYLINE
  5
F9
102
{ACAD_REACTORS
330
F6
102
}
100
AcDbEntity
  8
0
  6
CONTINUOUS
 62
     7
100
AcDbPolyline
 90
        2
 70
     1
 10
34.47
 20
44.8025
 42
-1.0
 10
34.47
 20
45.1375
 42
-1.0
  0
LWPOLYLINE
  5
FA
102
{ACAD_REACTORS
330
F6
102
}
100
AcDbEntity
  8
0
  6
CONTINUOUS
 62
     7
100
AcDbPolyline
 90
        2
 70
     1
 10
30.67
 20
44.8025
 42
-1.0
 10
30.67
 20
45.1375
 42
-1.0
  0
LWPOLYLINE
  5
FC
102
{ACAD_REACTORS
330
FB
102
}
100
AcDbEntity
  8
0
  6
CONTINUOUS
 62
     7
100
AcDbPolyline
 90
        3
 70
     1
 10
38.148076
 20
40.82
 10
35.55
 20
45.32
 10
32.951924
 20
40.82
  0
LWPOLYLINE
  5
FD
102
{ACAD_REACTORS
330
FB
102
}
100
AcDbEntity
  8
0
  6
CONTINUOUS
 62
     7
100
AcDbPolyline
 90
        2
 70
     1
 10
35.55
 20
44.6375
 42
-1.0
 10
35.55
 20
44.3025
 42
-1.0
  0
LWPOLYLINE
  5
FE
102
{ACAD_REACTORS
330
FB
102
}
100
AcDbEntity
  8
0
  6
CONTINUOUS
 62
     7
100
AcDbPolyline
 90
        2
 70
     1
 10
33.65
 20
41.3375
 42
-1.0
 10
33.65
 20
41.0025
 42
-1.0
  0
LWPOLYLINE
  5
FF
102
{ACAD_REACTORS
330
FB
102
}
100
AcDbEntity
  8
0
  6
CONTINUOUS
 62
     7
100
AcDbPolyline
 90
        2
 70
     1
 10
37.45
 20
41.3375
 42
-1.0
 10
37.45
 20
41.0025
 42
-1.0
  0
LWPOLYLINE
  5
101
102
{ACAD_REACTORS
330
100
102
}
100
AcDbEntity
  8
0
  6
CONTINUOUS
 62
     7
100
AcDbPolyline
 90
        3
 70
     1
 10
5.868076
 20
40.62
 10
3.27
 20
45.12
 10
0.671924
 20
40.62
  0
LWPOLYLINE
  5
102
102
{ACAD_REACTORS
330
100
102
}
100
AcDbEntity
  8
0
  6
CONTINUOUS
 62
     7
100
AcDbPolyline
 90
        2
 70
     1
 10
3.27
 20
44.4375
 42
-1.0
 10
3.27
 20
44.1025
 42
-1.0
  0
LWPOLYLINE
  5
103
102
{ACAD_REACTORS
330
100
102
}
100
AcDbEntity
  8
0
  6
CONTINUOUS
 62
     7
100
AcDbPolyline
 90
        2
 70
     1
 10
1.37
 20
41.1375
 42
-1.0
 10
1.37
 20
40.8025
 42
-1.0
  0
LWPOLYLINE
  5
104
102
{ACAD_REACTORS
330
100
102
}
100
AcDbEntity
  8
0
  6
CONTINUOUS
 62
     7
100
AcDbPolyline
 90
        2
 70
     1
 10
5.17
 20
41.1375
 42
-1.0
 10
5.17
 20
40.8025
 42
-1.0
  0
LWPOLYLINE
  5
105
100
AcDbEntity
  8
0
  6
CONTINUOUS
 62
    10
100
AcDbPolyline
 90
       20
 70
     1
 10
21.00015
 20
25.35935
 10
21.00015
 20
26.3182
 10
20.0413
 20
26.3182
 10
20.0413
 20
25.734
 10
19.419
 20
25.734
 10
19.419
 20
26.3182
 10
18.46015
 20
26.3182
 10
18.46015
 20
25.35935
 10
19.04435
 20
25.35935
 10
19.04435
 20
24.73705
 10
18.46015
 20
24.73705
 10
18.46015
 20
23.7782
 10
19.419
 20
23.7782
 10
19.419
 20
24.3624
 10
20.0413
 20
24.3624
 10
20.0413
 20
23.7782
 10
21.00015
 20
23.7782
 10
21.00015
 20
24.73705
 10
20.41595
 20
24.73705
 10
20.41595
 20
25.35935
  0
LWPOLYLINE
  5
106
100
AcDbEntity
  8
0
  6
CONTINUOUS
 62
    10
100
AcDbPolyline
 90
        4
 70
     1
 10
17.04015
 20
17.8482
 10
17.04015
 20
11.8882
 10
22.42015
 20
11.8882
 10
22.42015
 20
17.8482
  0
LWPOLYLINE
  5
107
100
AcDbEntity
  8
0
  6
CONTINUOUS
 62
     7
100
AcDbPolyline
 90
        2
 70
     1
 10
17.677764
 20
12.353256
 42
-1.0
 10
17.677764
 20
12.018256
 42
-1.0
  0
LWPOLYLINE
  5
108
100
AcDbEntity
  8
0
  6
CONTINUOUS
 62
     7
100
AcDbPolyline
 90
        2
 70
     1
 10
22.165712
 20
17.248086
 42
-1.0
 10
22.165712
 20
16.913086
 42
-1.0
  0
MTEXT
  5
109
100
AcDbEntity
  8
0
100
AcDbMText
 10
19.73015
 20
16.187778
 30
0.0
 40
0.211666
 41
3.668889
 71
     5
 72
     5
  1
\C3;\fCalibri|b0|i0|;\H0.21166585922241;MonsterMoto
  0
LWPOLYLINE
  5
10A
100
AcDbEntity
  8
0
  6
CONTINUOUS
 62
     7
100
AcDbPolyline
 90
        2
 70
     1
 10
25.3
 20
23.30195
 42
-1.0
 10
25.62
 20
23.30195
 42
-1.0
  0
LWPOLYLINE
  5
10C
102
{ACAD_REACTORS
330
10B
102
}
100
AcDbEntity
  8
0
  6
CONTINUOUS
 62
     7
100
AcDbPolyline
 90
       20
 70
     1
 10
5.47
 20
9.23115
 10
5.47
 20
10.19
 10
4.51115
 20
10.19
 10
4.51115
 20
9.6058
 10
3.88885
 20
9.6058
 10
3.88885
 20
10.19
 10
2.93
 20
10.19
 10
2.93
 20
9.23115
 10
3.5142
 20
9.23115
 10
3.5142
 20
8.60885
 10
2.93
 20
8.60885
 10
2.93
 20
7.65
 10
3.88885
 20
7.65
 10
3.88885
 20
8.2342
 10
4.51115
 20
8.2342
 10
4.51115
 20
7.65
 10
5.47
 20
7.65
 10
5.47
 20
8.60885
 10
4.8858
 20
8.60885
 10
4.8858
 20
9.23115
  0
LWPOLYLINE
  5
10D
102
{ACAD_REACTORS
330
10B
102
}
100
AcDbEntity
  8
0
  6
CONTINUOUS
 62
     7
100
AcDbPolyline
 90
        8
 70
     1
 10
5.028427
 20
10.92
 10
3.371573
 20
10.92
 10
2.2
 20
9.748427
 10
2.2
 20
8.091573
 10
3.371573
 20
6.92
 10
5.028427
 20
6.92
 10
6.2
 20
8.091573
 10
6.2
 20
9.748427
  0
LWPOLYLINE
  5
10E
102
{ACAD_REACTORS
330
10B
102
}
100
AcDbEntity
  8
0
  6
CONTINUOUS
 62
     7
100
AcDbPolyline
 90
        2
 70
     1
 10
2.4
 20
8.92
 42
-1.0
 10
2.72
 20
8.92
 42
-1.0
  0
LWPOLYLINE
  5
10F
102
{ACAD_REACTORS
330
10B
102
}
100
AcDbEntity
  8
0
  6
CONTINUOUS
 62
     7
100
AcDbPolyline
 90
        2
 70
     1
 10
4.04
 20
7.28
 42
-1.0
 10
4.36
 20
7.28
 42
-1.0
  0
LWPOLYLINE
  5
110
102
{ACAD_REACTORS
330
10B
102
}
100
AcDbEntity
  8
0
  6
CONTINUOUS
 62
     7
100
AcDbPolyline
 90
        2
 70
     1
 10
5.68
 20
8.92
 42
-1.0
 10
6.0
 20
8.92
 42
-1.0
  0
LWPOLYLINE
  5
111
102
{ACAD_REACTORS
330
10B
102
}
100
AcDbEntity
  8
0
  6
CONTINUOUS
 62
     7
100
AcDbPolyline
 90
        2
 70
     1
 10
4.04
 20
10.56
 42
-1.0
 10
4.36
 20
10.56
 42
-1.0
  0
LWPOLYLINE
  5
113
102
{ACAD_REACTORS
330
112
102
}
100
AcDbEntity
  8
0
  6
CONTINUOUS
 62
     7
100
AcDbPolyline
 90
       20
 70
     1
 10
39.07
 20
38.78115
 10
39.07
 20
39.74
 10
38.11115
 20
39.74
 10
38.11115
 20
39.1558
 10
37.48885
 20
39.1558
 10
37.48885
 20
39.74
 10
36.53
 20
39.74
 10
36.53
 20
38.78115
 10
37.1142
 20
38.78115
 10
37.1142
 20
38.15885
 10
36.53
 20
38.15885
 10
36.53
 20
37.2
 10
37.48885
 20
37.2
 10
37.48885
 20
37.7842
 10
38.11115
 20
37.7842
 10
38.11115
 20
37.2
 10
39.07
 20
37.2
 10
39.07
 20
38.15885
 10
38.4858
 20
38.15885
 10
38.4858
 20
38.78115
  0
LWPOLYLINE
  5
114
102
{ACAD_REACTORS
330
112
102
}
100
AcDbEntity
  8
0
  6
CONTINUOUS
 62
     7
100
AcDbPolyline
 90
        8
 70
     1
 10
38.628427
 20
40.47
 10
36.971573
 20
40.47
 10
35.8
 20
39.298427
 10
35.8
 20
37.641573
 10
36.971573
 20
36.47
 10
38.628427
 20
36.47
 10
39.8
 20
37.641573
 10
39.8
 20
39.298427
  0
LWPOLYLINE
  5
115
102
{ACAD_REACTORS
330
112
102
}
100
AcDbEntity
  8
0
  6
CONTINUOUS
 62
     7
100
AcDbPolyline
 90
        2
 70
     1
 10
36.0
 20
38.47
 42
-1.0
 10
36.32
 20
38.47
 42
-1.0
  0
LWPOLYLINE
  5
116
102
{ACAD_REACTORS
330
112
102
}
100
AcDbEntity
  8
0
  6
CONTINUOUS
 62
     7
100
AcDbPolyline
 90
        2
 70
     1
 10
37.64
 20
36.83
 42
-1.0
 10
37.96
 20
36.83
 42
-1.0
  0
LWPOLYLINE
  5
117
102
{ACAD_REACTORS
330
112
102
}
100
AcDbEntity
  8
0
  6
CONTINUOUS
 62
     7
100
AcDbPolyline
 90
        2
 70
     1
 10
39.28
 20
38.47
 42
-1.0
 10
39.6
 20
38.47
 42
-1.0
  0
LWPOLYLINE
  5
118
102
{ACAD_REACTORS
330
112
102
}
100
AcDbEntity
  8
0
  6
CONTINUOUS
 62
     7
100
AcDbPolyline
 90
        2
 70
     1
 10
37.64
 20
40.11
 42
-1.0
 10
37.96
 20
40.11
 42
-1.0
  0
LWPOLYLINE
  5
119
100
AcDbEntity
  8
0
  6
CONTINUOUS
 62
     7
100
AcDbPolyline
 90
        4
 70
     1
 10
17.50015
 20
26.32195
 10
17.50015
 20
27.27445
 10
15.50015
 20
27.27445
 10
15.50015
 20
26.32195
  0
LWPOLYLINE
  5
11A
100
AcDbEntity
  8
0
  6
CONTINUOUS
 62
     7
100
AcDbPolyline
 90
        4
 70
     1
 10
18.46
 20
22.8182
 10
17.5075
 20
22.8182
 10
17.5075
 20
20.8182
 10
18.46
 20
20.8182
  0
LWPOLYLINE
  5
11B
100
AcDbEntity
  8
0
  6
CONTINUOUS
 62
     7
100
AcDbPolyline
 90
        4
 70
     1
 10
21.96015
 20
23.7782
 10
21.96015
 20
22.8257
 10
23.96015
 20
22.8257
 10
23.96015
 20
23.7782
  0
LWPOLYLINE
  5
11C
100
AcDbEntity
  8
0
  6
CONTINUOUS
 62
     7
100
AcDbPolyline
 90
        4
 70
     1
 10
21.95375
 20
29.2782
 10
21.00125
 20
29.2782
 10
21.00125
 20
27.2782
 10
21.95375
 20
27.2782
  0
LWPOLYLINE
  5
11D
100
AcDbEntity
  8
0
  6
CONTINUOUS
 62
     7
100
AcDbPolyline
 90
        2
 70
     1
 10
19.43015
 20
25.0482
 42
-1.0
 10
20.03015
 20
25.0482
 42
-1.0
  0
LWPOLYLINE
  5
11F
102
{ACAD_REACTORS
330
11E
102
}
100
AcDbEntity
  8
0
  6
CONTINUOUS
 62
     7
100
AcDbPolyline
 90
        2
 70
     1
 10
34.39015
 20
27.541813
 42
-1.0
 10
34.99015
 20
27.541813
 42
-1.0
  0
LWPOLYLINE
  5
120
102
{ACAD_REACTORS
330
11E
102
}
100
AcDbEntity
  8
0
  6
CONTINUOUS
 62
     7
100
AcDbPolyline
 90
        2
 70
     1
 10
34.39015
 20
22.541787
 42
-1.0
 10
34.99015
 20
22.541787
 42
-1.0
  0
LWPOLYLINE
  5
122
102
{ACAD_REACTORS
330
121
102
}
100
AcDbEntity
  8
0
  6
CONTINUOUS
 62
     7
100
AcDbPolyline
 90
        3
 70
     1
 10
9.873076
 20
4.22
 10
7.275
 20
8.72
 10
4.676924
 20
4.22
  0
LWPOLYLINE
  5
123
102
{ACAD_REACTORS
330
121
102
}
100
AcDbEntity
  8
0
  6
CONTINUOUS
 62
     7
100
AcDbPolyline
 90
        2
 70
     1
 10
7.275
 20
8.0375
 42
-1.0
 10
7.275
 20
7.7025
 42
-1.0
  0
LWPOLYLINE
  5
124
102
{ACAD_REACTORS
330
121
102
}
100
AcDbEntity
  8
0
  6
CONTINUOUS
 62
     7
100
AcDbPolyline
 90
        2
 70
     1
 10
5.375
 20
4.7375
 42
-1.0
 10
5.375
 20
4.4025
 42
-1.0
  0
LWPOLYLINE
  5
125
102
{ACAD_REACTORS
330
121
102
}
100
AcDbEntity
  8
0
  6
CONTINUOUS
 62
     7
100
AcDbPolyline
 90
        2
 70
     1
 10
9.175
 20
4.7375
 42
-1.0
 10
9.175
 20
4.4025
 42
-1.0
  0
LWPOLYLINE
  5
126
100
AcDbEntity
  8
0
  6
CONTINUOUS
 62
     7
100
AcDbPolyline
 90
        2
 70
     1
 10
17.82375
 20
19.32
 42
-1.0
 10
18.14375
 20
19.32
 42
-1.0
  0
LWPOLYLINE
  5
127
100
AcDbEntity
  8
0
  6
CONTINUOUS
 62
     7
100
AcDbPolyline
 90
        2
 70
     1
 10
13.84
 20
26.7982
 42
-1.0
 10
14.16
 20
26.7982
 42
-1.0
  0
LWPOLYLINE
  5
128
100
AcDbEntity
  8
0
  6
CONTINUOUS
 62
     7
100
AcDbPolyline
 90
        2
 70
     1
 10
21.3175
 20
30.78
 42
-1.0
 10
21.6375
 20
30.78
 42
-1.0
  0
LWPOLYLINE
  5
12A
102
{ACAD_REACTORS
330
129
102
}
100
AcDbEntity
  8
0
  6
CONTINUOUS
 62
     7
100
AcDbPolyline
 90
       14
 70
     1
 10
17.7
 20
1.9675
 10
17.7
 20
3.9675
 10
14.2
 20
3.9675
 10
14.2
 20
4.92
 10
12.2
 20
4.92
 10
12.2
 20
3.9675
 10
10.2
 20
3.9675
 10
10.2
 20
3.4675
 10
11.2
 20
3.4675
 10
15.253333
 20
0.2675
 10
17.7
 20
0.2675
 10
17.7
 20
1.4675
 10
18.65
 20
1.4675
 10
18.65
 20
1.9675
  0
LWPOLYLINE
  5
12B
102
{ACAD_REACTORS
330
129
102
}
100
AcDbEntity
  8
0
  6
CONTINUOUS
 62
     7
100
AcDbPolyline
 90
        2
 70
     1
 10
16.78
 20
0.8125
 42
-1.0
 10
16.08
 20
0.8125
 42
-1.0
  0
LWPOLYLINE
  5
12C
102
{ACAD_REACTORS
330
129
102
}
100
AcDbEntity
  8
0
  6
CONTINUOUS
 62
     7
100
AcDbPolyline
 90
        2
 70
     1
 10
16.78
 20
3.3225
 42
-1.0
 10
16.08
 20
3.3225
 42
-1.0
  0
LWPOLYLINE
  5
12D
102
{ACAD_REACTORS
330
129
102
}
100
AcDbEntity
  8
0
  6
CONTINUOUS
 62
     7
100
AcDbPolyline
 90
        4
 70
     1
 10
14.20755
 20
1.9675
 10
14.20755
 20
1.4675
 10
15.16005
 20
1.4675
 10
15.16005
 20
1.9675
  0
LWPOLYLINE
  5
12F
102
{ACAD_REACTORS
330
12E
102
}
100
AcDbEntity
  8
0
  6
CONTINUOUS
 62
     7
100
AcDbPolyline
 90
       14
 70
     1
 10
26.75
 20
3.34625
 10
26.75
 20
1.34625
 10
30.25
 20
1.34625
 10
30.25
 20
0.39375
 10
32.25
 20
0.39375
 10
32.25
 20
1.34625
 10
34.25
 20
1.34625
 10
34.25
 20
1.84625
 10
33.25
 20
1.84625
 10
29.196667
 20
5.04625
 10
26.75
 20
5.04625
 10
26.75
 20
3.84625
 10
25.8
 20
3.84625
 10
25.8
 20
3.34625
  0
LWPOLYLINE
  5
130
102
{ACAD_REACTORS
330
12E
102
}
100
AcDbEntity
  8
0
  6
CONTINUOUS
 62
     7
100
AcDbPolyline
 90
        2
 70
     1
 10
27.67
 20
4.50125
 42
-1.0
 10
28.37
 20
4.50125
 42
-1.0
  0
LWPOLYLINE
  5
131
102
{ACAD_REACTORS
330
12E
102
}
100
AcDbEntity
  8
0
  6
CONTINUOUS
 62
     7
100
AcDbPolyline
 90
        2
 70
     1
 10
27.67
 20
1.99125
 42
-1.0
 10
28.37
 20
1.99125
 42
-1.0
  0
LWPOLYLINE
  5
132
102
{ACAD_REACTORS
330
12E
102
}
100
AcDbEntity
  8
0
  6
CONTINUOUS
 62
     7
100
AcDbPolyline
 90
        4
 70
     1
 10
30.24245
 20
3.34625
 10
30.24245
 20
3.84625
 10
29.28995
 20
3.84625
 10
29.28995
 20
3.34625
  0
LWPOLYLINE
  5
134
102
{ACAD_REACTORS
330
133
102
}
100
AcDbEntity
  8
0
  6
CONTINUOUS
 62
     7
100
AcDbPolyline
 90
       14
 70
     1
 10
35.85
 20
4.02
 10
35.85
 20
6.02
 10
32.35
 20
6.02
 10
32.35
 20
6.9725
 10
30.35
 20
6.9725
 10
30.35
 20
6.02
 10
28.35
 20
6.02
 10
28.35
 20
5.52
 10
29.35
 20
5.52
 10
33.403333
 20
2.32
 10
35.85
 20
2.32
 10
35.85
 20
3.52
 10
36.8
 20
3.52
 10
36.8
 20
4.02
  0
LWPOLYLINE
  5
135
102
{ACAD_REACTORS
330
133
102
}
100
AcDbEntity
  8
0
  6
CONTINUOUS
 62
     7
100
AcDbPolyline
 90
        2
 70
     1
 10
34.93
 20
2.865
 42
-1.0
 10
34.23
 20
2.865
 42
-1.0
  0
LWPOLYLINE
  5
136
102
{ACAD_REACTORS
330
133
102
}
100
AcDbEntity
  8
0
  6
CONTINUOUS
 62
     7
100
AcDbPolyline
 90
        2
 70
     1
 10
34.93
 20
5.375
 42
-1.0
 10
34.23
 20
5.375
 42
-1.0
  0
LWPOLYLINE
  5
137
102
{ACAD_REACTORS
330
133
102
}
100
AcDbEntity
  8
0
  6
CONTINUOUS
 62
     7
100
AcDbPolyline
 90
        4
 70
     1
 10
32.35755
 20
4.02
 10
32.35755
 20
3.52
 10
33.31005
 20
3.52
 10
33.31005
 20
4.02
  0
LWPOLYLINE
  5
139
102
{ACAD_REACTORS
330
138
102
}
100
AcDbEntity
  8
0
  6
CONTINUOUS
 62
     7
100
AcDbPolyline
 90
       14
 70
     1
 10
18.925
 20
3.0725
 10
18.925
 20
1.0725
 10
22.425
 20
1.0725
 10
22.425
 20
0.12
 10
24.425
 20
0.12
 10
24.425
 20
1.0725
 10
26.425
 20
1.0725
 10
26.425
 20
1.5725
 10
25.425
 20
1.5725
 10
21.371667
 20
4.7725
 10
18.925
 20
4.7725
 10
18.925
 20
3.5725
 10
17.975
 20
3.5725
 10
17.975
 20
3.0725
  0
LWPOLYLINE
  5
13A
102
{ACAD_REACTORS
330
138
102
}
100
AcDbEntity
  8
0
  6
CONTINUOUS
 62
     7
100
AcDbPolyline
 90
        2
 70
     1
 10
19.845
 20
4.2275
 42
-1.0
 10
20.545
 20
4.2275
 42
-1.0
  0
LWPOLYLINE
  5
13B
102
{ACAD_REACTORS
330
138
102
}
100
AcDbEntity
  8
0
  6
CONTINUOUS
 62
     7
100
AcDbPolyline
 90
        2
 70
     1
 10
19.845
 20
1.7175
 42
-1.0
 10
20.545
 20
1.7175
 42
-1.0
  0
LWPOLYLINE
  5
13C
102
{ACAD_REACTORS
330
138
102
}
100
AcDbEntity
  8
0
  6
CONTINUOUS
 62
     7
100
AcDbPolyline
 90
        4
 70
     1
 10
22.41745
 20
3.0725
 10
22.41745
 20
3.5725
 10
21.46495
 20
3.5725
 10
21.46495
 20
3.0725
  0
ENDSEC
  0
SECTION
  2
OBJECTS
  0
DICTIONARY
  5
C
100
AcDbDictionary
  3
ACAD_GROUP
350
D
  3
ACAD_MLINESTYLE
350
1B
  0
DICTIONARY
  5
D
102
{ACAD_REACTORS
330
C
102
}
100
AcDbDictionary
  3
VISIOGROUP_0
350
37
  3
VISIOGROUP_1
350
42
  3
VISIOGROUP_2
350
46
  3
VISIOGROUP_3
350
4A
  3
VISIOGROUP_4
350
4E
  3
VISIOGROUP_5
350
52
  3
VISIOGROUP_6
350
56
  3
VISIOGROUP_7
350
5A
  3
VISIOGROUP_8
350
60
  3
VISIOGROUP_9
350
66
  3
VISIOGROUP_10
350
6B
  3
VISIOGROUP_11
350
70
  3
VISIOGROUP_12
350
75
  3
VISIOGROUP_13
350
7A
  3
VISIOGROUP_14
350
85
  3
VISIOGROUP_15
350
8C
  3
VISIOGROUP_16
350
98
  3
VISIOGROUP_17
350
9B
  3
VISIOGROUP_18
350
A3
  3
VISIOGROUP_19
350
A8
  3
VISIOGROUP_20
350
AD
  3
VISIOGROUP_21
350
B2
  3
VISIOGROUP_22
350
BD
  3
VISIOGROUP_23
350
C8
  3
VISIOGROUP_24
350
CC
  3
VISIOGROUP_25
350
D0
  3
VISIOGROUP_26
350
D4
  3
VISIOGROUP_27
350
D8
  3
VISIOGROUP_28
350
DC
  3
VISIOGROUP_29
350
E0
  3
VISIOGROUP_30
350
E6
  3
VISIOGROUP_31
350
EC
  3
VISIOGROUP_32
350
F1
  3
VISIOGROUP_33
350
F6
  3
VISIOGROUP_34
350
FB
  3
VISIOGROUP_35
350
100
  3
VISIOGROUP_36
350
10B
  3
VISIOGROUP_37
350
112
  3
VISIOGROUP_38
350
11E
  3
VISIOGROUP_39
350
121
  3
VISIOGROUP_40
350
129
  3
VISIOGROUP_41
350
12E
  3
VISIOGROUP_42
350
133
  3
VISIOGROUP_43
350
138
  0
DICTIONARY
  5
1B
102
{ACAD_REACTORS
330
C
102
}
100
AcDbDictionary
  3
STANDARD
350
1C
  0
MLINESTYLE
  5
1C
102
{ACAD_REACTORS
330
1B
102
}
100
AcDbMlineStyle
  2
STANDARD
 70
     0
  3

 62
   256
 51
90.0
 52
90.0
 71
     2
 49
0.5
 62
   256
  6
BYLAYER
 49
-0.5
 62
   256
  6
BYLAYER
  0
DICTIONARY
  5
29
102
{ACAD_REACTORS
330
C
102
}
100
AcDbDictionary
  3
MODEL
350
2A
  3
LAYOUT1
350
2B
  0
DICTIONARY
  5
2C
102
{ACAD_REACTORS
330
C
102
}
100
AcDbDictionary
  0
GROUP
  5
37
102
{ACAD_REACTORS
330
D
102
}
100
AcDbGroup
300
Group created by Visio.
 70
     0
 71
     1
340
38
340
39
  0
GROUP
  5
42
102
{ACAD_REACTORS
330
D
102
}
100
AcDbGroup
300
Group created by Visio.
 70
     0
 71
     1
340
43
340
44
340
45
  0
GROUP
  5
46
102
{ACAD_REACTORS
330
D
102
}
100
AcDbGroup
300
Group created by Visio.
 70
     0
 71
     1
340
47
340
48
340
49
  0
GROUP
  5
4A
102
{ACAD_REACTORS
330
D
102
}
100
AcDbGroup
300
Group created by Visio.
 70
     0
 71
     1
340
4B
340
4C
340
4D
  0
GROUP
  5
4E
102
{ACAD_REACTORS
330
D
102
}
100
AcDbGroup
300
Group created by Visio.
 70
     0
 71
     1
340
4F
340
50
340
51
  0
GROUP
  5
52
102
{ACAD_REACTORS
330
D
102
}
100
AcDbGroup
300
Group created by Visio.
 70
     0
 71
     1
340
53
340
54
340
55
  0
GROUP
  5
56
102
{ACAD_REACTORS
330
D
102
}
100
AcDbGroup
300
Group created by Visio.
 70
     0
 71
     1
340
57
340
58
340
59
  0
GROUP
  5
5A
102
{ACAD_REACTORS
330
D
102
}
100
AcDbGroup
300
Group created by Visio.
 70
     0
 71
     1
340
5B
340
5C
340
5D
340
5E
  0
GROUP
  5
60
102
{ACAD_REACTORS
330
D
102
}
100
AcDbGroup
300
Group created by Visio.
 70
     0
 71
     1
340
61
340
62
340
63
340
64
  0
GROUP
  5
66
102
{ACAD_REACTORS
330
D
102
}
100
AcDbGroup
300
Group created by Visio.
 70
     0
 71
     1
340
67
340
68
340
69
340
6A
  0
GROUP
  5
6B
102
{ACAD_REACTORS
330
D
102
}
100
AcDbGroup
300
Group created by Visio.
 70
     0
 71
     1
340
6C
340
6D
340
6E
340
6F
  0
GROUP
  5
70
102
{ACAD_REACTORS
330
D
102
}
100
AcDbGroup
300
Group created by Visio.
 70
     0
 71
     1
340
71
340
72
340
73
340
74
  0
GROUP
  5
75
102
{ACAD_REACTORS
330
D
102
}
100
AcDbGroup
300
Group created by Visio.
 70
     0
 71
     1
340
76
340
77
340
78
340
79
  0
GROUP
  5
7A
102
{ACAD_REACTORS
330
D
102
}
100
AcDbGroup
300
Group created by Visio.
 70
     0
 71
     1
340
7B
340
7C
340
7D
340
7E
  0
GROUP
  5
85
102
{ACAD_REACTORS
330
D
102
}
100
AcDbGroup
300
Group created by Visio.
 70
     0
 71
     1
340
86
340
87
340
88
340
89
340
8A
340
8B
  0
GROUP
  5
8C
102
{ACAD_REACTORS
330
D
102
}
100
AcDbGroup
300
Group created by Visio.
 70
     0
 71
     1
340
8D
340
8E
340
8F
340
90
340
91
340
92
  0
GROUP
  5
98
102
{ACAD_REACTORS
330
D
102
}
100
AcDbGroup
300
Group created by Visio.
 70
     0
 71
     1
340
99
340
9A
  0
GROUP
  5
9B
102
{ACAD_REACTORS
330
D
102
}
100
AcDbGroup
300
Group created by Visio.
 70
     0
 71
     1
340
9C
340
9D
340
9E
340
9F
  0
GROUP
  5
A3
102
{ACAD_REACTORS
330
D
102
}
100
AcDbGroup
300
Group created by Visio.
 70
     0
 71
     1
340
A4
340
A5
340
A6
340
A7
  0
GROUP
  5
A8
102
{ACAD_REACTORS
330
D
102
}
100
AcDbGroup
300
Group created by Visio.
 70
     0
 71
     1
340
A9
340
AA
340
AB
340
AC
  0
GROUP
  5
AD
102
{ACAD_REACTORS
330
D
102
}
100
AcDbGroup
300
Group created by Visio.
 70
     0
 71
     1
340
AE
340
AF
340
B0
340
B1
  0
GROUP
  5
B2
102
{ACAD_REACTORS
330
D
102
}
100
AcDbGroup
300
Group created by Visio.
 70
     0
 71
     1
340
B3
340
B4
340
B5
340
B6
  0
GROUP
  5
BD
102
{ACAD_REACTORS
330
D
102
}
100
AcDbGroup
300
Group created by Visio.
 70
     0
 71
     1
340
BE
340
BF
  0
GROUP
  5
C8
102
{ACAD_REACTORS
330
D
102
}
100
AcDbGroup
300
Group created by Visio.
 70
     0
 71
     1
340
C9
340
CA
340
CB
  0
GROUP
  5
CC
102
{ACAD_REACTORS
330
D
102
}
100
AcDbGroup
300
Group created by Visio.
 70
     0
 71
     1
340
CD
340
CE
340
CF
  0
GROUP
  5
D0
102
{ACAD_REACTORS
330
D
102
}
100
AcDbGroup
300
Group created by Visio.
 70
     0
 71
     1
340
D1
340
D2
340
D3
  0
GROUP
  5
D4
102
{ACAD_REACTORS
330
D
102
}
100
AcDbGroup
300
Group created by Visio.
 70
     0
 71
     1
340
D5
340
D6
340
D7
  0
GROUP
  5
D8
102
{ACAD_REACTORS
330
D
102
}
100
AcDbGroup
300
Group created by Visio.
 70
     0
 71
     1
340
D9
340
DA
340
DB
  0
GROUP
  5
DC
102
{ACAD_REACTORS
330
D
102
}
100
AcDbGroup
300
Group created by Visio.
 70
     0
 71
     1
340
DD
340
DE
340
DF
  0
GROUP
  5
E0
102
{ACAD_REACTORS
330
D
102
}
100
AcDbGroup
300
Group created by Visio.
 70
     0
 71
     1
340
E1
340
E2
340
E3
340
E4
  0
GROUP
  5
E6
102
{ACAD_REACTORS
330
D
102
}
100
AcDbGroup
300
Group created by Visio.
 70
     0
 71
     1
340
E7
340
E8
340
E9
340
EA
  0
GROUP
  5
EC
102
{ACAD_REACTORS
330
D
102
}
100
AcDbGroup
300
Group created by Visio.
 70
     0
 71
     1
340
ED
340
EE
340
EF
340
F0
  0
GROUP
  5
F1
102
{ACAD_REACTORS
330
D
102
}
100
AcDbGroup
300
Group created by Visio.
 70
     0
 71
     1
340
F2
340
F3
340
F4
340
F5
  0
GROUP
  5
F6
102
{ACAD_REACTORS
330
D
102
}
100
AcDbGroup
300
Group created by Visio.
 70
     0
 71
     1
340
F7
340
F8
340
F9
340
FA
  0
GROUP
  5
FB
102
{ACAD_REACTORS
330
D
102
}
100
AcDbGroup
300
Group created by Visio.
 70
     0
 71
     1
340
FC
340
FD
340
FE
340
FF
  0
GROUP
  5
100
102
{ACAD_REACTORS
330
D
102
}
100
AcDbGroup
300
Group created by Visio.
 70
     0
 71
     1
340
101
340
102
340
103
340
104
  0
GROUP
  5
10B
102
{ACAD_REACTORS
330
D
102
}
100
AcDbGroup
300
Group created by Visio.
 70
     0
 71
     1
340
10C
340
10D
340
10E
340
10F
340
110
340
111
  0
GROUP
  5
112
102
{ACAD_REACTORS
330
D
102
}
100
AcDbGroup
300
Group created by Visio.
 70
     0
 71
     1
340
113
340
114
340
115
340
116
340
117
340
118
  0
GROUP
  5
11E
102
{ACAD_REACTORS
330
D
102
}
100
AcDbGroup
300
Group created by Visio.
 70
     0
 71
     1
340
11F
340
120
  0
GROUP
  5
121
102
{ACAD_REACTORS
330
D
102
}
100
AcDbGroup
300
Group created by Visio.
 70
     0
 71
     1
340
122
340
123
340
124
340
125
  0
GROUP
  5
129
102
{ACAD_REACTORS
330
D
102
}
100
AcDbGroup
300
Group created by Visio.
 70
     0
 71
     1
340
12A
340
12B
340
12C
340
12D
  0
GROUP
  5
12E
102
{ACAD_REACTORS
330
D
102
}
100
AcDbGroup
300
Group created by Visio.
 70
     0
 71
     1
340
12F
340
130
340
131
340
132
  0
GROUP
  5
133
102
{ACAD_REACTORS
330
D
102
}
100
AcDbGroup
300
Group created by Visio.
 70
     0
 71
     1
340
134
340
135
340
136
340
137
  0
GROUP
  5
138
102
{ACAD_REACTORS
330
D
102
}
100
AcDbGroup
300
Group created by Visio.
 70
     0
 71
     1
340
139
340
13A
340
13B
340
13C
  0
ENDSEC
  0
EOF
