  0
SECTION
  2
HEADER
  9
$ACADVER
  1
AC1014
  9
$ACADMAINTVER
 70
     0
  9
$DWGCODEPAGE
  3
ANSI_1252
  9
$INSBASE
 10
0.0
 20
0.0
 30
0.0
  9
$EXTMIN
 10
0.0
 20
0.0
 30
0.0
  9
$EXTMAX
 10
81.28
 20
45.72
 30
0.0
  9
$LIMMIN
 10
0.0
 20
0.0
  9
$LIMMAX
 10
12.0
 20
9.0
  9
$ORTHOMODE
 70
     0
  9
$REGENMODE
 70
     1
  9
$FILLMODE
 70
     0
  9
$QTEXTMODE
 70
     0
  9
$MIRRTEXT
 70
     1
  9
$DRAGMODE
 70
     2
  9
$LTSCALE
 40
1.0
  9
$OSMODE
 70
    37
  9
$ATTMODE
 70
     1
  9
$TEXTSIZE
 40
0.2
  9
$TRACEWID
 40
0.05
  9
$TEXTSTYLE
  7
STANDARD
  9
$CLAYER
  8
0
  9
$CELTYPE
  6
BYLAYER
  9
$CECOLOR
 62
   256
  9
$CELTSCALE
 40
1.0
  9
$DELOBJ
 70
     1
  9
$DISPSILH
 70
     0
  9
$DIMSCALE
 40
1.0
  9
$DIMASZ
 40
0.18
  9
$DIMEXO
 40
0.0625
  9
$DIMDLI
 40
0.38
  9
$DIMRND
 40
0.0
  9
$DIMDLE
 40
0.0
  9
$DIMEXE
 40
0.18
  9
$DIMTP
 40
0.0
  9
$DIMTM
 40
0.0
  9
$DIMTXT
 40
0.18
  9
$DIMCEN
 40
0.09
  9
$DIMTSZ
 40
0.0
  9
$DIMTOL
 70
     0
  9
$DIMLIM
 70
     0
  9
$DIMTIH
 70
     0
  9
$DIMTOH
 70
     0
  9
$DIMSE1
 70
     0
  9
$DIMSE2
 70
     0
  9
$DIMTAD
 70
     1
  9
$DIMZIN
 70
     0
  9
$DIMBLK
  1

  9
$DIMASO
 70
     1
  9
$DIMSHO
 70
     1
  9
$DIMPOST
  1

  9
$DIMAPOST
  1

  9
$DIMALT
 70
     0
  9
$DIMALTD
 70
     2
  9
$DIMALTF
 40
25.4
  9
$DIMLFAC
 40
1.0
  9
$DIMTOFL
 70
     0
  9
$DIMTVP
 40
0.0
  9
$DIMTIX
 70
     0
  9
$DIMSOXD
 70
     0
  9
$DIMSAH
 70
     0
  9
$DIMBLK1
  1

  9
$DIMBLK2
  1

  9
$DIMSTYLE
  2
STANDARD
  9
$DIMCLRD
 70
     0
  9
$DIMCLRE
 70
     0
  9
$DIMCLRT
 70
     0
  9
$DIMTFAC
 40
1.0
  9
$DIMGAP
 40
0.09
  9
$DIMJUST
 70
     0
  9
$DIMSD1
 70
     0
  9
$DIMSD2
 70
     0
  9
$DIMTOLJ
 70
     1
  9
$DIMTZIN
 70
     0
  9
$DIMALTZ
 70
     0
  9
$DIMALTTZ
 70
     0
  9
$DIMFIT
 70
     5
  9
$DIMUPT
 70
     0
  9
$DIMUNIT
 70
     2
  9
$DIMDEC
 70
     2
  9
$DIMTDEC
 70
     4
  9
$DIMALTU
 70
     2
  9
$DIMALTTD
 70
     2
  9
$DIMTXSTY
  7
STANDARD
  9
$DIMAUNIT
 70
     0
  9
$LUNITS
 70
     2
  9
$LUPREC
 70
     4
  9
$SKETCHINC
 40
0.1
  9
$FILLETRAD
 40
0.5
  9
$AUNITS
 70
     0
  9
$AUPREC
 70
     0
  9
$MENU
  1
.
  9
$ELEVATION
 40
0.0
  9
$PELEVATION
 40
0.0
  9
$THICKNESS
 40
0.0
  9
$LIMCHECK
 70
     0
  9
$BLIPMODE
 70
     0
  9
$CHAMFERA
 40
0.5
  9
$CHAMFERB
 40
0.5
  9
$CHAMFERC
 40
1.0
  9
$CHAMFERD
 40
0.0
  9
$SKPOLY
 70
     0
  9
$TDCREATE
 40
2450772.666465926
  9
$TDUPDATE
 40
2456147.504363426
  9
$TDINDWG
 40
0.0011565046
  9
$TDUSRTIMER
 40
0.0011565046
  9
$USRTIMER
 70
     1
  9
$ANGBASE
 50
0.0
  9
$ANGDIR
 70
     0
  9
$PDMODE
 70
     0
  9
$PDSIZE
 40
0.0
  9
$PLINEWID
 40
0.0
  9
$COORDS
 70
     1
  9
$SPLFRAME
 70
     0
  9
$SPLINETYPE
 70
     6
  9
$SPLINESEGS
 70
     8
  9
$ATTDIA
 70
     0
  9
$ATTREQ
 70
     1
  9
$HANDLING
 70
     1
  9
$HANDSEED
  5
9A
  9
$SURFTAB1
 70
     6
  9
$SURFTAB2
 70
     6
  9
$SURFTYPE
 70
     6
  9
$SURFU
 70
     6
  9
$SURFV
 70
     6
  9
$UCSNAME
  2

  9
$UCSORG
 10
0.0
 20
0.0
 30
0.0
  9
$UCSXDIR
 10
1.0
 20
0.0
 30
0.0
  9
$UCSYDIR
 10
0.0
 20
1.0
 30
0.0
  9
$PUCSNAME
  2

  9
$PUCSORG
 10
0.0
 20
0.0
 30
0.0
  9
$PUCSXDIR
 10
1.0
 20
0.0
 30
0.0
  9
$PUCSYDIR
 10
0.0
 20
1.0
 30
0.0
  9
$USERI1
 70
     0
  9
$USERI2
 70
     0
  9
$USERI3
 70
     0
  9
$USERI4
 70
     0
  9
$USERI5
 70
     0
  9
$USERR1
 40
0.0
  9
$USERR2
 40
0.0
  9
$USERR3
 40
0.0
  9
$USERR4
 40
0.0
  9
$USERR5
 40
0.0
  9
$WORLDVIEW
 70
     1
  9
$SHADEDGE
 70
     3
  9
$SHADEDIF
 70
    70
  9
$TILEMODE
 70
     1
  9
$MAXACTVP
 70
    48
  9
$PINSBASE
 10
0.0
 20
0.0
 30
0.0
  9
$PLIMCHECK
 70
     0
  9
$PEXTMIN
 10
0.0
 20
0.0
 30
0.0
  9
$PEXTMAX
 10
0.0
 20
0.0
 30
0.0
  9
$PLIMMIN
 10
0.0
 20
0.0
  9
$PLIMMAX
 10
12.0
 20
9.0
  9
$UNITMODE
 70
     0
  9
$VISRETAIN
 70
     1
  9
$PLINEGEN
 70
     0
  9
$PSLTSCALE
 70
     1
  9
$TREEDEPTH
 70
  3020
  9
$PICKSTYLE
 70
     1
  9
$CMLSTYLE
  2
STANDARD
  9
$CMLJUST
 70
     0
  9
$CMLSCALE
 40
1.0
  9
$PROXYGRAPHICS
 70
     1
  9
$MEASUREMENT
 70
     0
  0
ENDSEC
  0
SECTION
  2
CLASSES
  0
CLASS
  1
LWPOLYLINE
  2
AcDbPolyline
  3
AutoCAD 2000
 90
       20
280
     0
281
     1
  0
CLASS
  1
IMAGE
  2
AcDbRasterImage
  3
ISM
 90
       21
280
     0
281
     1
  0
CLASS
  1
OLE2FRAME
  2
AcDbOle2Frame
  3
AutoCAD 2000
 90
       21
280
     0
281
     1
  0
CLASS
  1
HATCH
  2
AcDbHatch
  3
AutoCAD 2000
 90
       20
280
     0
281
     1
  0
CLASS
  1
DICTIONARYVAR
  2
AcDbDictionaryVar
  3
ObjectDBX Classes
 90
       20
280
     0
281
     0
  0
CLASS
  1
RASTERVARIABLES
  2
AcDbRasterVariables
  3
ISM
 90
       21
280
     0
281
     0
  0
CLASS
  1
IMAGEDEF
  2
AcDbRasterImageDef
  3
ISM
 90
       21
280
     0
281
     0
  0
CLASS
  1
IMAGEDEF_REACTOR
  2
AcDbRasterImageDefReactor
  3
ISM
 90
       21
280
     0
281
     0
  0
CLASS
  1
IDBUFFER
  2
AcDbIdBuffer
  3
ObjectDBX Classes
 90
       20
280
     0
281
     0
  0
CLASS
  1
SPATIAL_FILTER
  2
AcDbSpatialFilter
  3
ObjectDBX Classes
 90
       20
280
     0
281
     0
  0
CLASS
  1
XRECORD
  2
AcDbXrecord
  3
AutoCAD 2000
 90
       21
280
     0
281
     0
  0
CLASS
  1
SORTENTSTABLE
  2
AcDbSortentsTable
  3
"AutoCAD"
 90
        0
280
     0
281
     0
  0
CLASS
  1
LAYER_INDEX
  2
AcDbLayerIndex
  3
"Acad"
 90
        0
280
     0
281
     0
  0
CLASS
  1
SPATIAL_INDEX
  2
AcDbSpatialIndex
  3
"Acad"
 90
        0
280
     0
281
     0
  0
CLASS
  1
OBJECT_PTR
  2
CAseDLPNTableRecord
  3
"ASE-LPNTableRecord"
 90
        1
280
     0
281
     0
  0
CLASS
  1
LAYOUT
  2
AcDbLayout
  3
"AutoCAD 2000"
 90
        1
280
     0
281
     0
  0
CLASS
  1
PLOTSETTINGS
  2
AcDbPlotsettings
  3
"AutoCAD 2000"
 90
        1
280
     0
281
     0
  0
CLASS
  1
ACDBDICTIONARYWDFLT
  2
AcDbDictionaryWithDefault
  3
"AutoCAD 2000"
 90
        1
280
     0
281
     0
  0
CLASS
  1
ACDBPLACEHOLDER
  2
AcDbPlaceholder
  3
"AutoCAD 2000"
 90
        1
280
     0
281
     0
  0
CLASS
  1
VBA_PROJECT
  2
AcDbVbaProject
  3
"AutoCAD 2000"
 90
        1
280
     0
281
     0
  0
CLASS
  1
WIPEOUT
  2
AcDbWipeout
  3
"AutoCAD 2000"
 90
        1
280
     0
281
     1
  0
CLASS
  1
WIPEOUTVARIABLES
  2
AcDbWipeoutVariables
  3
"AutoCAD 2000"
 90
        1
280
     0
281
     0
  0
CLASS
  1
RTEXT
  2
RText
  3
RText|AutoCAD Express Tool|expresstools@autodesk.com
 90
        1
280
     0
281
     1
  0
CLASS
  1
ARCALIGNEDTEXT
  2
AcDbArcAlignedText
  3
RText|AutoCAD Express Tool|expresstools@autodesk.com
 90
        1
280
     0
281
     1
  0
ENDSEC
  0
SECTION
  2
TABLES
  0
TABLE
  2
VPORT
  5
8
100
AcDbSymbolTable
 70
     1
  0
VPORT
  5
25
100
AcDbSymbolTableRecord
100
AcDbViewportTableRecord
  2
*ACTIVE
 70
     0
 10
0.0
 20
0.0
 11
1.0
 21
1.0
 12
40.64
 22
22.86
 13
0.0
 23
0.0
 14
0.5
 24
0.5
 15
0.5
 25
0.5
 16
0.0
 26
0.0
 36
1.0
 17
0.0
 27
0.0
 37
0.0
 40
45.72
 41
1.777778
 42
50.0
 43
0.0
 44
0.0
 50
0.0
 51
0.0
 71
     0
 72
   100
 73
     1
 74
     1
 75
     0
 76
     0
 77
     0
 78
     0
  0
ENDTAB
  0
TABLE
  2
LTYPE
  5
5
100
AcDbSymbolTable
 70
     3
  0
LTYPE
  5
12
100
AcDbSymbolTableRecord
100
AcDbLinetypeTableRecord
  2
BYBLOCK
 70
     0
  3

 72
    65
 73
     0
 40
0.0
  0
LTYPE
  5
13
100
AcDbSymbolTableRecord
100
AcDbLinetypeTableRecord
  2
BYLAYER
 70
     0
  3

 72
    65
 73
     0
 40
0.0
  0
LTYPE
  5
14
100
AcDbSymbolTableRecord
100
AcDbLinetypeTableRecord
  2
CONTINUOUS
 70
     0
  3
Solid line
 72
    65
 73
     0
 40
0.0
  0
ENDTAB
  0
TABLE
  2
LAYER
  5
2
100
AcDbSymbolTable
 70
     1
  0
LAYER
  5
E
100
AcDbSymbolTableRecord
100
AcDbLayerTableRecord
  2
0
 70
     0
 62
     7
  6
CONTINUOUS
  0
ENDTAB
  0
TABLE
  2
STYLE
  5
3
100
AcDbSymbolTable
 70
     1
  0
STYLE
  5
F
100
AcDbSymbolTableRecord
100
AcDbTextStyleTableRecord
  2
STANDARD
 70
     0
 40
0.0
 41
1.0
 50
0.0
 71
     0
 42
0.2
  3
txt.shx
  4

  0
ENDTAB
  0
TABLE
  2
VIEW
  5
6
100
AcDbSymbolTable
 70
     0
  0
ENDTAB
  0
TABLE
  2
UCS
  5
7
100
AcDbSymbolTable
 70
     0
  0
ENDTAB
  0
TABLE
  2
APPID
  5
9
100
AcDbSymbolTable
 70
     1
  0
APPID
  5
10
100
AcDbSymbolTableRecord
100
AcDbRegAppTableRecord
  2
ACAD
 70
     0
  0
ENDTAB
  0
TABLE
  2
DIMSTYLE
  5
A
100
AcDbSymbolTable
 70
     1
  0
DIMSTYLE
105
1D
100
AcDbSymbolTableRecord
100
AcDbDimStyleTableRecord
  2
STANDARD
 70
     0
  3

  4

  5

  6

  7

 40
1.0
 41
0.18
 42
0.0625
 43
0.38
 44
0.18
 45
0.0
 46
0.0
 47
0.0
 48
0.0
 71
     0
 72
     0
 73
     1
 74
     1
 75
     0
 76
     0
 77
     0
 78
     0
140
0.18
141
0.09
142
0.0
143
25.4
144
1.0
145
0.0
146
1.0
147
0.09
170
     0
171
     2
172
     0
173
     0
174
     0
175
     0
176
     0
177
     0
178
     0
270
     2
271
     4
272
     4
273
     2
274
     2
275
     0
280
     0
281
     0
282
     0
283
     1
284
     0
285
     0
286
     0
287
     3
288
     0
340
F
  0
ENDTAB
  0
TABLE
  2
BLOCK_RECORD
  5
1
100
AcDbSymbolTable
 70
     4
  0
BLOCK_RECORD
  5
18
100
AcDbSymbolTableRecord
100
AcDbBlockTableRecord
  2
*MODEL_SPACE
  0
BLOCK_RECORD
  5
15
100
AcDbSymbolTableRecord
100
AcDbBlockTableRecord
  2
*PAPER_SPACE
  0
BLOCK_RECORD
  5
7F
100
AcDbSymbolTableRecord
100
AcDbBlockTableRecord
  2
RECTANGLE
  0
BLOCK_RECORD
  5
83
100
AcDbSymbolTableRecord
100
AcDbBlockTableRecord
  2
CIRCLE_-_RADIUS
  0
BLOCK_RECORD
  5
87
100
AcDbSymbolTableRecord
100
AcDbBlockTableRecord
  2
CIRCLE_-_DIAMETER
  0
BLOCK_RECORD
  5
8B
100
AcDbSymbolTableRecord
100
AcDbBlockTableRecord
  2
MEASURE_TOOL
  0
ENDTAB
  0
ENDSEC
  0
SECTION
  2
BLOCKS
  0
BLOCK
  5
19
100
AcDbEntity
  8
0
100
AcDbBlockBegin
  2
*MODEL_SPACE
 70
     0
 10
0.0
 20
0.0
 30
0.0
  3
*MODEL_SPACE
  1

  0
ENDBLK
  5
1A
100
AcDbEntity
  8
0
100
AcDbBlockEnd
  0
BLOCK
  5
16
100
AcDbEntity
 67
     1
  8
0
100
AcDbBlockBegin
  2
*PAPER_SPACE
 70
     0
 10
0.0
 20
0.0
 30
0.0
  3
*PAPER_SPACE
  1

  0
ENDBLK
  5
17
100
AcDbEntity
 67
     1
  8
0
100
AcDbBlockEnd
  0
BLOCK
  5
80
100
AcDbEntity
  8
0
100
AcDbBlockBegin
  2
RECTANGLE
 70
     0
 10
0.0
 20
0.0
 30
0.0
  3
RECTANGLE
  1

  0
LWPOLYLINE
  5
81
102
{ACAD_REACTORS
330
8E
102
}
100
AcDbEntity
  8
0
  6
CONTINUOUS
 62
     7
100
AcDbPolyline
 90
        4
 70
     1
 10
4.0
 20
3.75
 10
6.0
 20
3.75
 10
6.0
 20
6.25
 10
4.0
 20
6.25
  0
ENDBLK
  5
82
100
AcDbEntity
  8
0
100
AcDbBlockEnd
  0
BLOCK
  5
84
100
AcDbEntity
  8
0
100
AcDbBlockBegin
  2
CIRCLE_-_RADIUS
 70
     0
 10
0.0
 20
0.0
 30
0.0
  3
CIRCLE_-_RADIUS
  1

  0
LWPOLYLINE
  5
85
102
{ACAD_REACTORS
330
8E
102
}
100
AcDbEntity
  8
0
  6
CONTINUOUS
 62
     7
100
AcDbPolyline
 90
        2
 70
     1
 10
3.75
 20
5.0
 42
-1.0
 10
6.25
 20
5.0
 42
-1.0
  0
ENDBLK
  5
86
100
AcDbEntity
  8
0
100
AcDbBlockEnd
  0
BLOCK
  5
88
100
AcDbEntity
  8
0
100
AcDbBlockBegin
  2
CIRCLE_-_DIAMETER
 70
     0
 10
0.0
 20
0.0
 30
0.0
  3
CIRCLE_-_DIAMETER
  1

  0
LWPOLYLINE
  5
89
102
{ACAD_REACTORS
330
8E
102
}
100
AcDbEntity
  8
0
  6
CONTINUOUS
 62
     7
100
AcDbPolyline
 90
        2
 70
     1
 10
3.75
 20
5.0
 42
-1.0
 10
6.25
 20
5.0
 42
-1.0
  0
ENDBLK
  5
8A
100
AcDbEntity
  8
0
100
AcDbBlockEnd
  0
BLOCK
  5
8C
100
AcDbEntity
  8
0
100
AcDbBlockBegin
  2
MEASURE_TOOL
 70
     0
 10
0.0
 20
0.0
 30
0.0
  3
MEASURE_TOOL
  1

  0
LWPOLYLINE
  5
8D
102
{ACAD_REACTORS
330
8E
102
}
100
AcDbEntity
  8
0
  6
CONTINUOUS
 62
     7
100
AcDbPolyline
 90
        6
 70
     1
 10
0.0
 20
0.0
 10
0.0
 20
0.632282
 42
-0.414223
 10
0.158071
 20
0.790353
 10
1.36995
 20
0.790353
 42
-0.414223
 10
1.686091
 20
0.474212
 10
1.686091
 20
0.0
  0
HATCH
  5
8E
100
AcDbEntity
  8
0
 62
   254
100
AcDbHatch
 10
0.0
 20
0.0
 30
0.0
210
0.0
220
0.0
230
1.0
  2
SOLID
 70
     1
 71
     1
 91
        1
 92
        3
 72
     1
 73
     1
 93
        6
 10
0.0
 20
0.0
 42
0.0
 10
-0.0
 20
0.6322824783637152
 42
-0.4142231524190838
 10
0.158070619590931
 20
0.7903530979546438
 42
0.0
 10
1.3699498221282165
 20
0.7903530979546438
 42
-0.4142231524190798
 10
1.6860910613100744
 20
0.4742118587727864
 42
0.0
 10
1.6860910613100741
 20
0.0
 42
0.0
 97
        4
330
81
330
85
330
89
330
8D
 75
     0
 76
     1
 98
        0
  0
LINE
  5
8F
100
AcDbEntity
  8
0
  6
CONTINUOUS
 62
     7
100
AcDbLine
 10
1.686091
 20
0.079035
 30
0.0
 11
3.0
 21
0.079035
 31
0.0
  0
LINE
  5
90
100
AcDbEntity
  8
0
  6
CONTINUOUS
 62
     7
100
AcDbLine
 10
3.0
 20
0.158071
 30
0.0
 11
3.0
 21
0.0
 31
0.0
  0
LINE
  5
91
100
AcDbEntity
  8
0
  6
CONTINUOUS
 62
     7
100
AcDbLine
 10
2.781015
 20
0.079035
 30
0.0
 11
2.781015
 21
0.118553
 31
0.0
  0
LINE
  5
92
100
AcDbEntity
  8
0
  6
CONTINUOUS
 62
     7
100
AcDbLine
 10
2.56203
 20
0.079035
 30
0.0
 11
2.56203
 21
0.158071
 31
0.0
  0
LINE
  5
93
100
AcDbEntity
  8
0
  6
CONTINUOUS
 62
     7
100
AcDbLine
 10
2.343046
 20
0.079035
 30
0.0
 11
2.343046
 21
0.118553
 31
0.0
  0
LINE
  5
94
100
AcDbEntity
  8
0
  6
CONTINUOUS
 62
     7
100
AcDbLine
 10
2.124061
 20
0.079035
 30
0.0
 11
2.124061
 21
0.158071
 31
0.0
  0
LINE
  5
95
100
AcDbEntity
  8
0
  6
CONTINUOUS
 62
     7
100
AcDbLine
 10
1.905076
 20
0.079035
 30
0.0
 11
1.905076
 21
0.118553
 31
0.0
  0
MTEXT
  5
96
100
AcDbEntity
  8
0
100
AcDbMText
 10
0.843046
 20
0.395177
 30
0.0
 40
0.317502
 41
1.686091
 71
     5
 72
     5
  1
\C7;\fCalibri|b0|i0|;\H0.31750242233276;30 mm.
  0
LWPOLYLINE
  5
97
102
{ACAD_REACTORS
330
98
102
}
100
AcDbEntity
  8
0
  6
CONTINUOUS
 62
     7
100
AcDbPolyline
 90
        4
 70
     1
 10
1.686091
 20
0.079035
 10
3.0
 20
0.079035
 10
3.0
 20
0.158071
 10
1.686091
 20
0.158071
  0
HATCH
  5
98
100
AcDbEntity
  8
0
 62
     2
100
AcDbHatch
 10
0.0
 20
0.0
 30
0.0
210
0.0
220
0.0
230
1.0
  2
SOLID
 70
     1
 71
     1
 91
        1
 92
        3
 72
     0
 73
     1
 93
        4
 10
1.6860910613100744
 20
0.0790353097954644
 10
3.0000000000000004
 20
0.0790353097954644
 10
3.0000000000000004
 20
0.1580706195909288
 10
1.6860910613100744
 20
0.1580706195909288
 97
        1
330
97
 75
     0
 76
     1
 98
        0
  0
ENDBLK
  5
99
100
AcDbEntity
  8
0
100
AcDbBlockEnd
  0
ENDSEC
  0
SECTION
  2
ENTITIES
  0
LWPOLYLINE
  5
31
100
AcDbEntity
  8
0
  6
CONTINUOUS
 62
     3
100
AcDbPolyline
 90
        4
 70
     1
 10
26.1064
 20
30.3136
 10
35.4064
 20
30.3136
 10
35.4064
 20
34.3136
 10
26.1064
 20
34.3136
  0
LWPOLYLINE
  5
32
100
AcDbEntity
  8
0
  6
CONTINUOUS
 62
     7
100
AcDbPolyline
 90
       17
 70
     1
 10
24.015555
 20
5.3136
 42
0.198912
 10
31.996477
 20
8.619406
 10
37.100594
 20
13.723523
 42
0.198912
 10
40.4064
 20
21.704445
 10
40.4064
 20
28.922755
 42
0.098491
 10
39.547249
 20
33.241999
 42
0.098491
 10
37.100594
 20
36.903677
 10
31.996477
 20
42.007794
 42
0.198912
 10
24.015555
 20
45.3136
 10
16.797245
 20
45.3136
 42
0.198912
 10
8.816323
 20
42.007794
 10
3.712206
 20
36.903677
 42
0.198912
 10
0.4064
 20
28.922755
 10
0.4064
 20
21.704445
 42
0.198912
 10
3.712206
 20
13.723523
 10
8.816323
 20
8.619406
 42
0.198912
 10
16.797245
 20
5.3136
  0
ARC
  5
34
102
{ACAD_REACTORS
330
33
102
}
100
AcDbEntity
  8
0
  6
CONTINUOUS
 62
     7
100
AcDbCircle
 10
21.230819
 20
35.058216
 30
0.0
 40
0.83
100
AcDbArc
 50
295.171366
 51
304.828634
  0
LINE
  5
35
102
{ACAD_REACTORS
330
33
102
}
100
AcDbEntity
  8
0
  6
CONTINUOUS
 62
     7
100
AcDbLine
 10
21.58384
 20
34.307033
 30
0.0
 11
20.881906
 21
33.901771
 31
0.0
  0
ARC
  5
36
102
{ACAD_REACTORS
330
33
102
}
100
AcDbEntity
  8
0
  6
CONTINUOUS
 62
     7
100
AcDbCircle
 10
20.407873
 20
34.583088
 30
0.0
 40
0.83
100
AcDbArc
 50
295.171366
 51
304.828634
  0
ARC
  5
37
102
{ACAD_REACTORS
330
33
102
}
100
AcDbEntity
  8
0
  6
CONTINUOUS
 62
     7
100
AcDbCircle
 10
20.407873
 20
34.583088
 30
0.0
 40
0.83
100
AcDbArc
 50
244.828634
 51
295.171366
  0
LINE
  5
38
102
{ACAD_REACTORS
330
33
102
}
100
AcDbEntity
  8
0
  6
CONTINUOUS
 62
     7
100
AcDbLine
 10
20.054851
 20
33.831905
 30
0.0
 11
19.93384
 21
33.901771
 31
0.0
  0
LINE
  5
39
102
{ACAD_REACTORS
330
33
102
}
100
AcDbEntity
  8
0
  6
CONTINUOUS
 62
     7
100
AcDbLine
 10
19.93384
 20
33.901771
 30
0.0
 11
19.167625
 21
34.344146
 31
0.0
  0
LINE
  5
3A
102
{ACAD_REACTORS
330
33
102
}
100
AcDbEntity
  8
0
  6
CONTINUOUS
 62
     7
100
AcDbLine
 10
19.167625
 20
34.344146
 30
0.0
 11
18.85089
 21
34.527013
 31
0.0
  0
ELLIPSE
  5
3B
102
{ACAD_REACTORS
330
33
102
}
100
AcDbEntity
  8
0
  6
CONTINUOUS
 62
     7
100
AcDbEllipse
 10
19.462578
 20
35.083426
 30
0.0
 11
-0.5958868394852922
 21
-0.5735246960937426
 31
0.0
210
0.0
220
0.0
230
1.0
 40
0.825097
 41
-0.2843289132248159
 42
-0.0341313795338211
  0
LINE
  5
3C
102
{ACAD_REACTORS
330
33
102
}
100
AcDbEntity
  8
0
  6
CONTINUOUS
 62
     7
100
AcDbLine
 10
18.757873
 20
34.670846
 30
0.0
 11
18.757873
 21
35.058216
 31
0.0
  0
LINE
  5
3D
102
{ACAD_REACTORS
330
33
102
}
100
AcDbEntity
  8
0
  6
CONTINUOUS
 62
     7
100
AcDbLine
 10
18.757873
 20
35.058216
 30
0.0
 11
18.757873
 21
35.938606
 31
0.0
  0
ARC
  5
3E
102
{ACAD_REACTORS
330
33
102
}
100
AcDbEntity
  8
0
  6
CONTINUOUS
 62
     7
100
AcDbCircle
 10
19.584927
 20
36.008472
 30
0.0
 40
0.83
100
AcDbArc
 50
175.171366
 51
184.828634
  0
ARC
  5
3F
102
{ACAD_REACTORS
330
33
102
}
100
AcDbEntity
  8
0
  6
CONTINUOUS
 62
     7
100
AcDbCircle
 10
19.584927
 20
36.008472
 30
0.0
 40
0.83
100
AcDbArc
 50
124.828634
 51
175.171366
  0
LINE
  5
40
102
{ACAD_REACTORS
330
33
102
}
100
AcDbEntity
  8
0
  6
CONTINUOUS
 62
     7
100
AcDbLine
 10
19.110894
 20
36.689789
 30
0.0
 11
19.231906
 21
36.759655
 31
0.0
  0
LINE
  5
41
102
{ACAD_REACTORS
330
33
102
}
100
AcDbEntity
  8
0
  6
CONTINUOUS
 62
     7
100
AcDbLine
 10
19.231906
 20
36.759655
 30
0.0
 11
19.93384
 21
37.164917
 31
0.0
  0
ARC
  5
42
102
{ACAD_REACTORS
330
33
102
}
100
AcDbEntity
  8
0
  6
CONTINUOUS
 62
     7
100
AcDbCircle
 10
20.407873
 20
36.4836
 30
0.0
 40
0.83
100
AcDbArc
 50
115.171366
 51
124.828634
  0
ARC
  5
43
102
{ACAD_REACTORS
330
33
102
}
100
AcDbEntity
  8
0
  6
CONTINUOUS
 62
     7
100
AcDbCircle
 10
20.407873
 20
36.4836
 30
0.0
 40
0.83
100
AcDbArc
 50
64.828634
 51
115.171366
  0
LINE
  5
44
102
{ACAD_REACTORS
330
33
102
}
100
AcDbEntity
  8
0
  6
CONTINUOUS
 62
     7
100
AcDbLine
 10
20.760894
 20
37.234783
 30
0.0
 11
20.881906
 21
37.164917
 31
0.0
  0
LINE
  5
45
102
{ACAD_REACTORS
330
33
102
}
100
AcDbEntity
  8
0
  6
CONTINUOUS
 62
     7
100
AcDbLine
 10
20.881906
 20
37.164917
 30
0.0
 11
21.58384
 21
36.759655
 31
0.0
  0
ARC
  5
46
102
{ACAD_REACTORS
330
33
102
}
100
AcDbEntity
  8
0
  6
CONTINUOUS
 62
     7
100
AcDbCircle
 10
21.230819
 20
36.008472
 30
0.0
 40
0.83
100
AcDbArc
 50
55.171366
 51
64.828634
  0
ARC
  5
47
102
{ACAD_REACTORS
330
33
102
}
100
AcDbEntity
  8
0
  6
CONTINUOUS
 62
     7
100
AcDbCircle
 10
21.230819
 20
36.008472
 30
0.0
 40
0.83
100
AcDbArc
 50
4.828634
 51
55.171366
  0
LINE
  5
48
102
{ACAD_REACTORS
330
33
102
}
100
AcDbEntity
  8
0
  6
CONTINUOUS
 62
     7
100
AcDbLine
 10
22.057873
 20
36.078338
 30
0.0
 11
22.057873
 21
35.938606
 31
0.0
  0
LINE
  5
49
102
{ACAD_REACTORS
330
33
102
}
100
AcDbEntity
  8
0
  6
CONTINUOUS
 62
     7
100
AcDbLine
 10
22.057873
 20
35.938606
 30
0.0
 11
22.057873
 21
35.128082
 31
0.0
  0
LINE
  5
4A
102
{ACAD_REACTORS
330
33
102
}
100
AcDbEntity
  8
0
  6
CONTINUOUS
 62
     7
100
AcDbLine
 10
22.057873
 20
35.128082
 30
0.0
 11
22.057873
 21
34.98835
 31
0.0
  0
ARC
  5
4B
102
{ACAD_REACTORS
330
33
102
}
100
AcDbEntity
  8
0
  6
CONTINUOUS
 62
     7
100
AcDbCircle
 10
21.230819
 20
35.058216
 30
0.0
 40
0.83
100
AcDbArc
 50
304.828634
 51
355.171366
  0
LINE
  5
4C
102
{ACAD_REACTORS
330
33
102
}
100
AcDbEntity
  8
0
  6
CONTINUOUS
 62
     7
100
AcDbLine
 10
21.704851
 20
34.376899
 30
0.0
 11
21.58384
 21
34.307033
 31
0.0
  0
LINE
  5
4D
102
{ACAD_REACTORS
330
33
102
}
100
AcDbEntity
  8
0
  6
CONTINUOUS
 62
     7
100
AcDbLine
 10
20.881906
 20
33.901771
 30
0.0
 11
20.760894
 21
33.831905
 31
0.0
  0
ARC
  5
4E
102
{ACAD_REACTORS
330
33
102
}
100
AcDbEntity
  8
0
  6
CONTINUOUS
 62
     7
100
AcDbCircle
 10
20.407873
 20
34.583088
 30
0.0
 40
0.83
100
AcDbArc
 50
235.171366
 51
244.828634
  0
ARC
  5
4F
102
{ACAD_REACTORS
330
33
102
}
100
AcDbEntity
  8
0
  6
CONTINUOUS
 62
     7
100
AcDbCircle
 10
19.584927
 20
36.008472
 30
0.0
 40
0.83
100
AcDbArc
 50
115.171366
 51
124.828634
  0
LINE
  5
50
102
{ACAD_REACTORS
330
33
102
}
100
AcDbEntity
  8
0
  6
CONTINUOUS
 62
     7
100
AcDbLine
 10
19.93384
 20
37.164917
 30
0.0
 11
20.054851
 21
37.234783
 31
0.0
  0
LINE
  5
51
102
{ACAD_REACTORS
330
33
102
}
100
AcDbEntity
  8
0
  6
CONTINUOUS
 62
     7
100
AcDbLine
 10
18.757873
 20
35.938606
 30
0.0
 11
18.757873
 21
36.078338
 31
0.0
  0
ARC
  5
52
102
{ACAD_REACTORS
330
33
102
}
100
AcDbEntity
  8
0
  6
CONTINUOUS
 62
     7
100
AcDbCircle
 10
20.407873
 20
36.4836
 30
0.0
 40
0.83
100
AcDbArc
 50
55.171366
 51
64.828634
  0
LINE
  5
53
102
{ACAD_REACTORS
330
33
102
}
100
AcDbEntity
  8
0
  6
CONTINUOUS
 62
     7
100
AcDbLine
 10
21.704851
 20
36.689789
 30
0.0
 11
21.58384
 21
36.759655
 31
0.0
  0
LWPOLYLINE
  5
54
100
AcDbEntity
  8
0
  6
CONTINUOUS
 62
     7
100
AcDbPolyline
 90
        2
 70
     1
 10
21.6864
 20
44.2136
 42
-1.0
 10
22.0864
 20
44.2136
 42
-1.0
  0
LWPOLYLINE
  5
55
100
AcDbEntity
  8
0
  6
CONTINUOUS
 62
     7
100
AcDbPolyline
 90
        2
 70
     1
 10
22.008902
 20
39.3236
 42
-1.0
 10
21.653898
 20
39.1436
 42
-1.0
  0
LWPOLYLINE
  5
56
100
AcDbEntity
  8
0
  6
CONTINUOUS
 62
     7
100
AcDbPolyline
 90
       11
 70
     1
 10
19.9064
 20
38.3136
 10
20.9064
 20
38.3136
 10
20.9064
 20
39.3136
 10
21.4064
 20
39.3136
 10
21.4064
 20
43.8136
 10
21.4064
 20
44.8136
 10
20.4064
 20
44.8136
 10
20.4064
 20
43.8136
 10
19.4064
 20
43.8136
 10
19.4064
 20
39.3136
 10
19.4064
 20
38.3136
  0
LWPOLYLINE
  5
57
100
AcDbEntity
  8
0
  6
CONTINUOUS
 62
     7
100
AcDbPolyline
 90
        2
 70
     1
 10
18.76649
 20
39.3236
 42
-1.0
 10
19.14631
 20
39.1436
 42
-1.0
  0
LWPOLYLINE
  5
58
100
AcDbEntity
  8
0
  6
CONTINUOUS
 62
     7
100
AcDbPolyline
 90
        2
 70
     1
 10
18.7664
 20
44.2136
 42
-1.0
 10
19.1464
 20
44.2136
 42
-1.0
  0
LWPOLYLINE
  5
59
100
AcDbEntity
  8
0
  6
CONTINUOUS
 62
     3
100
AcDbPolyline
 90
        4
 70
     1
 10
12.1664
 20
23.3136
 10
27.4064
 20
23.3136
 10
27.4064
 20
28.3936
 10
12.1664
 20
28.3936
  0
MTEXT
  5
5A
100
AcDbEntity
  8
0
100
AcDbMText
 10
18.140289
 20
41.543044
 30
0.0
 40
0.423332
 41
7.541111
 71
     5
 72
     5
  1
\C10;\fCalibri|b0|i0|;\H0.42333171844482;Pan/Tilt Mount
 11
0.0
 21
1.0
 31
0.0
  0
MTEXT
  5
5B
100
AcDbEntity
  8
0
100
AcDbMText
 10
18.113056
 20
35.56
 30
0.0
 40
0.423332
 41
5.770556
 71
     5
 72
     5
  1
\C10;\fCalibri|b0|i0|;\H0.42333171844482;Tube Inlet
 11
0.0
 21
1.0
 31
0.0
  0
LWPOLYLINE
  5
5C
100
AcDbEntity
  8
0
  6
CONTINUOUS
 62
     7
100
AcDbPolyline
 90
        2
 70
     1
 10
12.5664
 20
24.0636
 42
-1.0
 10
13.0664
 20
24.0636
 42
-1.0
  0
LWPOLYLINE
  5
5D
100
AcDbEntity
  8
0
  6
CONTINUOUS
 62
     7
100
AcDbPolyline
 90
        2
 70
     1
 10
12.8164
 20
27.3136
 42
-1.0
 10
12.8164
 20
27.8136
 42
-1.0
  0
LWPOLYLINE
  5
5E
100
AcDbEntity
  8
0
  6
CONTINUOUS
 62
     7
100
AcDbPolyline
 90
        2
 70
     1
 10
26.5364
 20
24.0636
 42
-1.0
 10
27.0364
 20
24.0636
 42
-1.0
  0
LWPOLYLINE
  5
5F
100
AcDbEntity
  8
0
  6
CONTINUOUS
 62
     7
100
AcDbPolyline
 90
        2
 70
     1
 10
26.5364
 20
27.5636
 42
-1.0
 10
27.0364
 20
27.5636
 42
-1.0
  0
LWPOLYLINE
  5
60
100
AcDbEntity
  8
0
  6
CONTINUOUS
 62
     3
100
AcDbPolyline
 90
        4
 70
     1
 10
8.4064
 20
16.5636
 10
33.4064
 20
16.5636
 10
33.4064
 20
22.8136
 10
8.4064
 20
22.8136
  0
LWPOLYLINE
  5
61
100
AcDbEntity
  8
0
  6
CONTINUOUS
 62
     7
100
AcDbPolyline
 90
        2
 70
     1
 10
11.3564
 20
19.6886
 42
-1.0
 10
10.8564
 20
19.6886
 42
-1.0
  0
LWPOLYLINE
  5
62
100
AcDbEntity
  8
0
  6
CONTINUOUS
 62
     7
100
AcDbPolyline
 90
        2
 70
     1
 10
29.4564
 20
19.6886
 42
-1.0
 10
29.9564
 20
19.6886
 42
-1.0
  0
MTEXT
  5
63
100
AcDbEntity
  8
0
100
AcDbMText
 10
20.5564
 20
25.8136
 30
0.0
 40
0.423332
 41
7.3
 71
     5
 72
     5
  1
\C10;\fCalibri|b0|i0|;\H0.42333171844482;Air Compressor
  0
MTEXT
  5
64
100
AcDbEntity
  8
0
100
AcDbMText
 10
20.226956
 20
19.8136
 30
0.0
 40
0.423332
 41
5.641111
 71
     5
 72
     5
  1
\C10;\fCalibri|b0|i0|;\H0.42333171844482;Air Tank
  0
LWPOLYLINE
  5
65
100
AcDbEntity
  8
0
  6
CONTINUOUS
 62
     3
100
AcDbPolyline
 90
        2
 70
     1
 10
15.8564
 20
11.3136
 42
-1.0
 10
24.9564
 20
11.3136
 42
-1.0
  0
LWPOLYLINE
  5
66
100
AcDbEntity
  8
0
  6
CONTINUOUS
 62
     7
100
AcDbPolyline
 90
        2
 70
     1
 10
20.306761
 20
14.932658
 42
-1.0
 10
20.506039
 20
15.434542
 42
-1.0
  0
LWPOLYLINE
  5
67
100
AcDbEntity
  8
0
  6
CONTINUOUS
 62
     7
100
AcDbPolyline
 90
        2
 70
     1
 10
16.3064
 20
11.3136
 42
-1.0
 10
16.8464
 20
11.3136
 42
-1.0
  0
LWPOLYLINE
  5
68
100
AcDbEntity
  8
0
  6
CONTINUOUS
 62
     7
100
AcDbPolyline
 90
        2
 70
     1
 10
20.4064
 20
7.2136
 42
-1.0
 10
20.4064
 20
7.7536
 42
-1.0
  0
LWPOLYLINE
  5
69
100
AcDbEntity
  8
0
  6
CONTINUOUS
 62
     7
100
AcDbPolyline
 90
        2
 70
     1
 10
24.4964
 20
11.3136
 42
-1.0
 10
23.9564
 20
11.3136
 42
-1.0
  0
MTEXT
  5
6A
100
AcDbEntity
  8
0
100
AcDbMText
 10
20.4064
 20
11.659156
 30
0.0
 40
0.423332
 41
7.241111
 71
     5
 72
     5
  1
\C10;\fCalibri|b0|i0|;\H0.42333171844482;Warning Light
  0
LWPOLYLINE
  5
6B
100
AcDbEntity
  8
0
  6
CONTINUOUS
 62
     7
100
AcDbPolyline
 90
        2
 70
     1
 10
3.4564
 20
34.2136
 42
-1.0
 10
4.1564
 20
34.2136
 42
-1.0
  0
LWPOLYLINE
  5
6C
100
AcDbEntity
  8
0
  6
CONTINUOUS
 62
     7
100
AcDbPolyline
 90
        2
 70
     1
 10
36.7564
 20
34.2136
 42
-1.0
 10
37.4564
 20
34.2136
 42
-1.0
  0
LWPOLYLINE
  5
6D
100
AcDbEntity
  8
0
  6
CONTINUOUS
 62
     7
100
AcDbPolyline
 90
        2
 70
     1
 10
36.6564
 20
16.5136
 42
-1.0
 10
37.3564
 20
16.5136
 42
-1.0
  0
LWPOLYLINE
  5
6E
100
AcDbEntity
  8
0
  6
CONTINUOUS
 62
     7
100
AcDbPolyline
 90
        2
 70
     1
 10
3.4564
 20
16.5136
 42
-1.0
 10
4.1564
 20
16.5136
 42
-1.0
  0
LWPOLYLINE
  5
6F
100
AcDbEntity
  8
0
  6
CONTINUOUS
 62
     7
100
AcDbPolyline
 90
        2
 70
     1
 10
29.9064
 20
38.1136
 42
-1.0
 10
31.9064
 20
38.1136
 42
-1.0
  0
LWPOLYLINE
  5
70
100
AcDbEntity
  8
0
  6
CONTINUOUS
 62
     7
100
AcDbPolyline
 90
        2
 70
     1
 10
29.2314
 20
32.0136
 42
-1.0
 10
29.5814
 20
32.0136
 42
-1.0
  0
LWPOLYLINE
  5
71
100
AcDbEntity
  8
0
  6
CONTINUOUS
 62
     7
100
AcDbPolyline
 90
        2
 70
     1
 10
31.9064
 20
32.0136
 42
-1.0
 10
32.2564
 20
32.0136
 42
-1.0
  0
MTEXT
  5
72
100
AcDbEntity
  8
0
100
AcDbMText
 10
30.7975
 20
32.736944
 30
0.0
 40
0.423332
 41
3.175
 71
     5
 72
     5
  1
\C10;\fCalibri|b0|i0|;\H0.42333171844482;Valve
  0
LWPOLYLINE
  5
73
100
AcDbEntity
  8
0
  6
CONTINUOUS
 62
     3
100
AcDbPolyline
 90
        4
 70
     1
 10
1.6064
 20
26.0136
 10
8.4064
 20
26.0136
 10
8.4064
 20
31.3136
 10
1.6064
 20
31.3136
  0
LWPOLYLINE
  5
74
100
AcDbEntity
  8
0
  6
CONTINUOUS
 62
     7
100
AcDbPolyline
 90
        2
 70
     1
 10
3.202979
 20
30.917664
 42
-1.0
 10
3.009821
 20
31.209536
 42
-1.0
  0
LWPOLYLINE
  5
75
100
AcDbEntity
  8
0
  6
CONTINUOUS
 62
     7
100
AcDbPolyline
 90
        2
 70
     1
 10
8.198844
 20
26.883375
 42
-1.0
 10
8.113956
 20
26.543825
 42
-1.0
  0
LWPOLYLINE
  5
76
100
AcDbEntity
  8
0
  6
CONTINUOUS
 62
     7
100
AcDbPolyline
 90
        2
 70
     1
 10
8.165139
 20
29.688382
 42
-1.0
 10
8.147661
 20
29.338818
 42
-1.0
  0
MTEXT
  5
77
100
AcDbEntity
  8
0
100
AcDbMText
 10
4.976956
 20
28.655544
 30
0.0
 40
0.423332
 41
5.141111
 71
     5
 72
     5
  1
\C10;\fCalibri|b0|i0|;\H0.42333171844482;Arduino
  0
LWPOLYLINE
  5
78
100
AcDbEntity
  8
0
  6
CONTINUOUS
 62
     3
100
AcDbPolyline
 90
        4
 70
     1
 10
8.622511
 20
31.7011
 10
13.922511
 20
31.7011
 10
13.922511
 20
40.9261
 10
8.622511
 20
40.9261
  0
LWPOLYLINE
  5
79
100
AcDbEntity
  8
0
  6
CONTINUOUS
 62
     7
100
AcDbPolyline
 90
        2
 70
     1
 10
13.016448
 20
39.849533
 42
-1.0
 10
12.828574
 20
40.202667
 42
-1.0
  0
LWPOLYLINE
  5
7A
100
AcDbEntity
  8
0
  6
CONTINUOUS
 62
     7
100
AcDbPolyline
 90
        2
 70
     1
 10
9.516099
 20
39.901459
 42
-1.0
 10
9.828923
 20
40.150741
 42
-1.0
  0
LWPOLYLINE
  5
7B
100
AcDbEntity
  8
0
  6
CONTINUOUS
 62
     7
100
AcDbPolyline
 90
        2
 70
     1
 10
13.109844
 20
32.626146
 42
-1.0
 10
12.735178
 20
32.486054
 42
-1.0
  0
LWPOLYLINE
  5
7C
100
AcDbEntity
  8
0
  6
CONTINUOUS
 62
     7
100
AcDbPolyline
 90
        2
 70
     1
 10
9.48252
 20
32.618578
 42
-1.0
 10
9.862502
 20
32.493622
 42
-1.0
  0
MTEXT
  5
7D
100
AcDbEntity
  8
0
100
AcDbMText
 10
11.272511
 20
36.3136
 30
0.0
 40
0.423332
 41
4.612511
 71
     5
 72
     5
  1
\C10;\fCalibri|b0|i0|;\H0.42333171844482;Transistors
  0
MTEXT
  5
7E
100
AcDbEntity
  8
0
100
AcDbMText
 10
30.914722
 20
36.336944
 30
0.0
 40
0.423332
 41
5.770556
 71
     5
 72
     5
  1
\C10;\fCalibri|b0|i0|;\H0.42333171844482;Tube Outlet
  0
ENDSEC
  0
SECTION
  2
OBJECTS
  0
DICTIONARY
  5
C
100
AcDbDictionary
  3
ACAD_GROUP
350
D
  3
ACAD_MLINESTYLE
350
1B
  0
DICTIONARY
  5
D
102
{ACAD_REACTORS
330
C
102
}
100
AcDbDictionary
  3
VISIOGROUP_0
350
33
  0
DICTIONARY
  5
1B
102
{ACAD_REACTORS
330
C
102
}
100
AcDbDictionary
  3
STANDARD
350
1C
  0
MLINESTYLE
  5
1C
102
{ACAD_REACTORS
330
1B
102
}
100
AcDbMlineStyle
  2
STANDARD
 70
     0
  3

 62
   256
 51
90.0
 52
90.0
 71
     2
 49
0.5
 62
   256
  6
BYLAYER
 49
-0.5
 62
   256
  6
BYLAYER
  0
DICTIONARY
  5
29
102
{ACAD_REACTORS
330
C
102
}
100
AcDbDictionary
  3
MODEL
350
2A
  3
LAYOUT1
350
2B
  0
DICTIONARY
  5
2C
102
{ACAD_REACTORS
330
C
102
}
100
AcDbDictionary
  0
GROUP
  5
33
102
{ACAD_REACTORS
330
D
102
}
100
AcDbGroup
300
Group created by Visio.
 70
     0
 71
     1
340
34
340
35
340
36
340
37
340
38
340
39
340
3A
340
3B
340
3C
340
3D
340
3E
340
3F
340
40
340
41
340
42
340
43
340
44
340
45
340
46
340
47
340
48
340
49
340
4A
340
4B
340
4C
340
4D
340
4E
340
4F
340
50
340
51
340
52
340
53
  0
ENDSEC
  0
EOF
