<?xml version="1.0" encoding="UTF-8" standalone="no"?>
<!DOCTYPE svg PUBLIC "-//W3C//DTD SVG 1.0//EN" "http://www.w3.org/TR/2001/REC-SVG-20010904/DTD/svg10.dtd">
<!-- Generated by Microsoft Visio 11.0, SVG Export, v1.0 Rocket Drive Base 4.svg Page-1 -->
<svg xmlns="http://www.w3.org/2000/svg" xmlns:xlink="http://www.w3.org/1999/xlink" xmlns:ev="http://www.w3.org/2001/xml-events"
		xmlns:v="http://schemas.microsoft.com/visio/2003/SVGExtensions/" width="32in" height="18in" viewBox="0 0 2304 1296"
		xml:space="preserve" color-interpolation-filters="sRGB" class="st7">
	<v:documentProperties v:langID="1033" v:viewMarkup="false">
		<v:userDefs>
			<v:ud v:nameU="msvSubprocessMaster" v:prompt="" v:val="VT4(Rectangle)"/>
			<v:ud v:nameU="msvNoAutoConnect" v:val="VT0(1):26"/>
		</v:userDefs>
	</v:documentProperties>

	<style type="text/css">
	<![CDATA[
		.st1 {fill:none;stroke:#000000;stroke-linecap:round;stroke-linejoin:round;stroke-width:0.75}
		.st2 {fill:none;stroke:none;stroke-linecap:round;stroke-linejoin:round;stroke-width:0.75}
		.st3 {fill:#00ff00;font-family:Calibri;font-size:1.00001em}
		.st4 {font-size:1em}
		.st5 {fill:none;stroke:#ff0000;stroke-linecap:round;stroke-linejoin:round;stroke-width:0.75}
		.st6 {fill:#00ff00;font-family:Calibri;font-size:0.666664em}
		.st7 {fill:none;fill-rule:evenodd;font-size:12px;overflow:visible;stroke-linecap:square;stroke-miterlimit:3}
	]]>
	</style>

	<g v:mID="0" v:index="1" v:groupContext="foregroundPage">
		<title>Page-1</title>
		<v:pageProperties v:drawingScale="1" v:pageScale="1" v:drawingUnits="0" v:shadowOffsetX="0" v:shadowOffsetY="0"/>
		<v:layer v:name="Measure" v:index="0" v:print="false"/>
		<g id="shape28-1" v:mID="28" v:groupContext="shape" transform="translate(107.898,-969.834)">
			<title>Circle - radius.190</title>
			<v:userDefs>
				<v:ud v:nameU="visVersion" v:val="VT0(14):26"/>
			</v:userDefs>
			<path d="M-9.92 1296 A9.92126 9.92126 0 0 1 9.92 1296 A9.92126 9.92126 0 0 1 -9.92 1296 Z" class="st1"/>
		</g>
		<g id="shape29-3" v:mID="29" v:groupContext="shape" transform="translate(1051.83,-969.834)">
			<title>Circle - radius.191</title>
			<v:userDefs>
				<v:ud v:nameU="visVersion" v:val="VT0(14):26"/>
			</v:userDefs>
			<path d="M-9.92 1296 A9.92126 9.92126 0 1 1 9.92 1296 A9.92126 9.92126 0 1 1 -9.92 1296 Z" class="st1"/>
		</g>
		<g id="shape30-5" v:mID="30" v:groupContext="shape" transform="translate(1049,-468.102)">
			<title>Circle - radius.192</title>
			<v:userDefs>
				<v:ud v:nameU="visVersion" v:val="VT0(14):26"/>
			</v:userDefs>
			<path d="M-9.92 1296 A9.92126 9.92126 0 1 1 9.92 1296 A9.92126 9.92126 0 1 1 -9.92 1296 Z" class="st1"/>
		</g>
		<g id="shape31-7" v:mID="31" v:groupContext="shape" transform="translate(107.898,-468.102)">
			<title>Circle - radius.193</title>
			<v:userDefs>
				<v:ud v:nameU="visVersion" v:val="VT0(14):26"/>
			</v:userDefs>
			<path d="M-9.92 1296 A9.92126 9.92126 0 0 1 9.92 1296 A9.92126 9.92126 0 0 1 -9.92 1296 Z" class="st1"/>
		</g>
		<g id="shape55-9" v:mID="55" v:groupContext="shape" transform="translate(1991.06,667.559) rotate(90)">
			<title>Circle.70</title>
			<v:userDefs>
				<v:ud v:nameU="visVersion" v:val="VT0(14):26"/>
			</v:userDefs>
			<path d="M0 1274.74 A21.2598 21.2598 0 0 1 42.52 1274.74 A21.2598 21.2598 0 1 1 0 1274.74 Z" class="st1"/>
		</g>
		<g id="shape56-11" v:mID="56" v:groupContext="shape" transform="translate(1715.32,667.559) rotate(90)">
			<title>Circle.68</title>
			<v:userDefs>
				<v:ud v:nameU="visVersion" v:val="VT0(14):26"/>
			</v:userDefs>
			<path d="M0 1274.74 A21.2598 21.2598 0 0 1 42.52 1274.74 A21.2598 21.2598 0 1 1 0 1274.74 Z" class="st1"/>
		</g>
		<g id="group1-13" transform="translate(994.008,-638.18)" v:mID="1" v:groupContext="group">
			<title>Sheet.1</title>
			<g id="shape3-14" v:mID="3" v:groupContext="shape" transform="translate(6.99441E-015,-141.733)">
				<title>Circle.68</title>
				<v:userDefs>
					<v:ud v:nameU="visVersion" v:val="VT0(14):26"/>
				</v:userDefs>
				<path d="M0 1287.5 A8.50394 8.50394 0 1 1 17.01 1287.5 A8.50394 8.50394 0 0 1 0 1287.5 Z" class="st1"/>
			</g>
			<g id="shape4-16" v:mID="4" v:groupContext="shape">
				<title>Circle.70</title>
				<v:userDefs>
					<v:ud v:nameU="visVersion" v:val="VT0(14):26"/>
				</v:userDefs>
				<path d="M0 1287.5 A8.50394 8.50394 0 1 1 17.01 1287.5 A8.50394 8.50394 0 0 1 0 1287.5 Z" class="st1"/>
			</g>
		</g>
		<g id="group5-18" transform="translate(145.882,-638.18)" v:mID="5" v:groupContext="group">
			<title>Sheet.5</title>
			<g id="shape6-19" v:mID="6" v:groupContext="shape" transform="translate(6.99441E-015,-141.733)">
				<title>Circle.68</title>
				<v:userDefs>
					<v:ud v:nameU="visVersion" v:val="VT0(14):26"/>
				</v:userDefs>
				<path d="M0 1287.5 A8.50394 8.50394 0 1 1 17.01 1287.5 A8.50394 8.50394 0 0 1 0 1287.5 Z" class="st1"/>
			</g>
			<g id="shape7-21" v:mID="7" v:groupContext="shape">
				<title>Circle.70</title>
				<v:userDefs>
					<v:ud v:nameU="visVersion" v:val="VT0(14):26"/>
				</v:userDefs>
				<path d="M0 1287.5 A8.50394 8.50394 0 1 1 17.01 1287.5 A8.50394 8.50394 0 0 1 0 1287.5 Z" class="st1"/>
			</g>
		</g>
		<g id="shape2-23" v:mID="2" v:groupContext="shape" transform="translate(33.8295,-150.622)">
			<title>Sheet.2</title>
			<path d="M0 948.76 A319.939 319.939 -176.1 0 0 71.4 1057.61 L216.08 1202.29 A319.939 319.939 -2.66 0 0 442.31 1296 L646.93
						 1296 A319.939 319.939 -3.6 0 0 873.16 1202.29 L1017.84 1057.61 A319.939 319.939 -178.22 0 0 1089.24 948.76
						 L998.16 948.76 L998.16 509.39 L1089.24 509.39 A319.939 319.939 -171.71 0 0 1087.19 504.33 A319.939 319.939
						 -178.16 0 0 1017.84 400.53 L873.16 255.85 A319.939 319.939 -1.37 0 0 646.93 162.14 L442.31 162.14 A319.939
						 319.939 -4.78 0 0 216.08 255.85 L71.4 400.53 A319.939 319.939 -176.85 0 0 -0 509.39 L91.08 509.39 L91.08
						 948.76 L0 948.76 Z" class="st1"/>
		</g>
		<g id="shape10-25" v:mID="10" v:groupContext="shape" transform="translate(529.256,-156.878)">
			<title>Sheet.10</title>
			<desc>Rocket Bot Drive Base 2012-05-15</desc>
			<v:textBlock v:margins="rect(4,4,4,4)"/>
			<v:textRect cx="49.1928" cy="1273.73" width="98.39" height="44.5433"/>
			<rect x="0" y="1251.46" width="98.3855" height="44.5433" class="st2"/>
			<text x="22.72" y="1262.93" class="st3" v:langID="1033"><v:paragraph v:horizAlign="1"/><v:tabList/>Rocket Bot<v:newlineChar/><tspan
						x="23.51" dy="1.2em" class="st4">Drive Base<v:newlineChar/></tspan><tspan x="21.19" dy="1.2em" class="st4">2012</tspan>-05-15</text>		</g>
		<g id="group11-30" transform="translate(459.961,-228.421)" v:mID="11" v:groupContext="group">
			<title>Sheet.11</title>
			<g id="shape49-31" v:mID="49" v:groupContext="shape" transform="translate(-1059.02,1296) rotate(-90)">
				<title>Rectangle.79</title>
				<v:userDefs>
					<v:ud v:nameU="visVersion" v:val="VT0(14):26"/>
				</v:userDefs>
				<rect x="0" y="1059.02" width="128.693" height="236.976" class="st5"/>
			</g>
			<g id="shape50-33" v:mID="50" v:groupContext="shape" transform="translate(-1276.02,1282.82) rotate(-90)">
				<title>Circle.80</title>
				<v:userDefs>
					<v:ud v:nameU="visVersion" v:val="VT0(14):26"/>
				</v:userDefs>
				<path d="M0 1291.18 A4.8189 4.8189 0 0 1 9.64 1291.18 A4.8189 4.8189 0 1 1 -0 1291.18 Z" class="st1"/>
			</g>
			<g id="shape51-35" v:mID="51" v:groupContext="shape" transform="translate(1512.99,1180.49) rotate(90)">
				<title>Circle.81</title>
				<v:userDefs>
					<v:ud v:nameU="visVersion" v:val="VT0(14):26"/>
				</v:userDefs>
				<path d="M0 1291.18 A4.8189 4.8189 0 0 1 9.64 1291.18 A4.8189 4.8189 0 1 1 -0 1291.18 Z" class="st1"/>
			</g>
			<g id="shape52-37" v:mID="52" v:groupContext="shape" transform="translate(-1069.37,1282.82) rotate(-90)">
				<title>Circle.82</title>
				<v:userDefs>
					<v:ud v:nameU="visVersion" v:val="VT0(14):26"/>
				</v:userDefs>
				<path d="M0 1291.18 A4.8189 4.8189 0 0 1 9.64 1291.18 A4.8189 4.8189 0 1 1 -0 1291.18 Z" class="st1"/>
			</g>
			<g id="shape53-39" v:mID="53" v:groupContext="shape" transform="translate(-1276.02,1190.13) rotate(-90)">
				<title>Circle.83</title>
				<v:userDefs>
					<v:ud v:nameU="visVersion" v:val="VT0(14):26"/>
				</v:userDefs>
				<path d="M0 1291.18 A4.8189 4.8189 0 0 1 9.64 1291.18 A4.8189 4.8189 0 1 1 -0 1291.18 Z" class="st1"/>
			</g>
			<g id="shape9-41" v:mID="9" v:groupContext="shape" transform="translate(66.4882,-43.0236)">
				<title>Sheet.9</title>
				<desc>Breadboard</desc>
				<v:textBlock v:margins="rect(4,4,4,4)"/>
				<v:textRect cx="52" cy="1288" width="104" height="16"/>
				<rect x="0" y="1280" width="104" height="16" class="st2"/>
				<text x="32.8" y="1290.4" class="st6" v:langID="1033"><v:paragraph v:horizAlign="1"/><v:tabList/>Breadboard</text>			</g>
		</g>
		<g id="group12-44" transform="translate(502.197,-384.114)" v:mID="12" v:groupContext="group">
			<title>Sheet.12</title>
			<g id="shape62-45" v:mID="62" v:groupContext="shape" transform="translate(1296,1127.06) rotate(90)">
				<title>Rectangle.84</title>
				<v:userDefs>
					<v:ud v:nameU="visVersion" v:val="VT0(14):26"/>
				</v:userDefs>
				<rect x="0" y="1143.5" width="168.945" height="152.504" class="st5"/>
			</g>
			<g id="shape63-47" v:mID="63" v:groupContext="shape" transform="translate(1309.33,1282.82) rotate(90)">
				<title>Circle.85</title>
				<v:userDefs>
					<v:ud v:nameU="visVersion" v:val="VT0(14):26"/>
				</v:userDefs>
				<path d="M0 1291.25 A4.74803 4.74803 0 1 1 9.5 1291.25 A4.74803 4.74803 0 0 1 0 1291.25 Z" class="st1"/>
			</g>
			<g id="shape64-49" v:mID="64" v:groupContext="shape" transform="translate(1436.54,1144.07) rotate(90)">
				<title>Circle.86</title>
				<v:userDefs>
					<v:ud v:nameU="visVersion" v:val="VT0(14):26"/>
				</v:userDefs>
				<path d="M0 1291.25 A4.74803 4.74803 0 1 1 9.5 1291.25 A4.74803 4.74803 0 0 1 0 1291.25 Z" class="st1"/>
			</g>
			<g id="shape8-51" v:mID="8" v:groupContext="shape" transform="translate(23.6496,-76.4724)">
				<title>Sheet.8</title>
				<desc>MonsterMoto</desc>
				<v:textBlock v:margins="rect(4,4,4,4)"/>
				<v:textRect cx="52" cy="1288" width="104" height="16"/>
				<rect x="0" y="1280" width="104" height="16" class="st2"/>
				<text x="29.1" y="1290.4" class="st6" v:langID="1033"><v:paragraph v:horizAlign="1"/><v:tabList/>MonsterMoto</text>			</g>
		</g>
	</g>
</svg>
