<?xml version="1.0" encoding="UTF-8" standalone="no"?>
<!DOCTYPE svg PUBLIC "-//W3C//DTD SVG 1.0//EN" "http://www.w3.org/TR/2001/REC-SVG-20010904/DTD/svg10.dtd">
<!-- Generated by Microsoft Visio 11.0, SVG Export, v1.0 Rocket Base 3.svg Page-1 -->
<svg xmlns="http://www.w3.org/2000/svg" xmlns:xlink="http://www.w3.org/1999/xlink" xmlns:ev="http://www.w3.org/2001/xml-events"
		xmlns:v="http://schemas.microsoft.com/visio/2003/SVGExtensions/" width="32in" height="18in" viewBox="0 0 2304 1296"
		xml:space="preserve" color-interpolation-filters="sRGB" class="st7">
	<v:documentProperties v:langID="1033" v:viewMarkup="false">
		<v:userDefs>
			<v:ud v:nameU="msvSubprocessMaster" v:prompt="" v:val="VT4(Rectangle)"/>
			<v:ud v:nameU="msvNoAutoConnect" v:val="VT0(1):26"/>
		</v:userDefs>
	</v:documentProperties>

	<style type="text/css">
	<![CDATA[
		.st1 {fill:none;stroke:#00ff00;stroke-linecap:round;stroke-linejoin:round;stroke-width:0.75}
		.st2 {fill:none;stroke:#000000;stroke-linecap:round;stroke-linejoin:round;stroke-width:0.75}
		.st3 {fill:none}
		.st4 {stroke:#000000;stroke-linecap:round;stroke-linejoin:round;stroke-width:0.75}
		.st5 {fill:none;stroke:none;stroke-linecap:round;stroke-linejoin:round;stroke-width:0.75}
		.st6 {fill:#ff0000;font-family:Calibri;font-size:1.33333em}
		.st7 {fill:none;fill-rule:evenodd;font-size:12px;overflow:visible;stroke-linecap:square;stroke-miterlimit:3}
	]]>
	</style>

	<g v:mID="0" v:index="1" v:groupContext="foregroundPage">
		<title>Page-1</title>
		<v:pageProperties v:drawingScale="1" v:pageScale="1" v:drawingUnits="0" v:shadowOffsetX="0" v:shadowOffsetY="0"/>
		<v:layer v:name="Measure" v:index="0" v:print="false"/>
		<g id="shape1-1" v:mID="1" v:groupContext="shape" transform="translate(740.024,-859.283)">
			<title>Rectangle.194</title>
			<v:userDefs>
				<v:ud v:nameU="visVersion" v:val="VT0(14):26"/>
			</v:userDefs>
			<rect x="0" y="1182.61" width="263.622" height="113.386" class="st1"/>
		</g>
		<g id="shape2-3" v:mID="2" v:groupContext="shape" transform="translate(11.52,-150.622)">
			<title>Sheet.2</title>
			<path d="M669.24 1296 A319.939 319.939 -3.72 0 0 895.47 1202.29 L1040.15 1057.61 A319.939 319.939 -178.2 0 0 1133.86
						 831.38 L1133.86 626.76 A319.939 319.939 -171.79 0 0 1109.5 504.33 A319.939 319.939 -178.14 0 0 1040.15 400.53
						 L895.47 255.85 A319.939 319.939 -1.37 0 0 669.24 162.14 L464.62 162.14 A319.939 319.939 -5.07 0 0 238.39
						 255.85 L93.71 400.53 A319.939 319.939 -176.77 0 0 0 626.76 L0 831.38 A319.939 319.939 -175.94 0 0 93.71
						 1057.61 L238.39 1202.29 A319.939 319.939 -2.71 0 0 464.62 1296 L669.24 1296 Z" class="st2"/>
		</g>
		<g id="group3-5" transform="translate(531.636,-956.78)" v:mID="3" v:groupContext="group">
			<title>Sheet.3</title>
			<g id="shape4-6" v:mID="4" v:groupContext="shape">
				<title>Sheet.4</title>
				<path d="M80.19 1280.3 L60.29 1291.79 A23.5276 23.5276 121.4 0 1 56.86 1293.77 A23.5276 23.5276 172.02 0 1 36.85
							 1293.77 L33.42 1291.79 L11.7 1279.25 L2.72 1274.06 A23.4439 19.3435 136.1 0 1 0.08 1269.98 L0.08 1259
							 L0.08 1234.05 A23.5276 23.5276 165.03 0 1 0.08 1230.09 A23.5276 23.5276 1.15 0 1 10.09 1212.75 L13.52
							 1210.77 L33.42 1199.29 A23.5276 23.5276 7.47 0 1 36.85 1197.31 A23.5276 23.5276 -0 0 1 56.86 1197.31
							 L60.29 1199.29 L80.19 1210.77 A23.5276 23.5276 171.22 0 1 83.62 1212.75 A23.5276 23.5276 4.94 0 1 93.63
							 1230.09 L93.63 1234.05 L93.63 1257.02 L93.63 1260.98 A23.5276 23.5276 177.97 0 1 83.62 1278.32 L80.19
							 1280.3 Z" class="st3"/>
				<path d="M80.19 1280.3 A23.5276 23.5276 -59.5 0 0 83.62 1278.32" class="st4"/>
				<path d="M80.19 1280.3 L60.29 1291.79 A23.5276 23.5276 121.4 0 1 56.86 1293.77 A23.5276 23.5276 172.02 0 1 36.85
							 1293.77 L33.42 1291.79 L11.7 1279.25 L2.72 1274.06 A23.4439 19.3435 136.1 0 1 0.08 1269.98 L0.08 1259
							 L0.08 1234.05 A23.5276 23.5276 165.03 0 1 0.08 1230.09 A23.5276 23.5276 1.15 0 1 10.09 1212.75 L13.52
							 1210.77 L33.42 1199.29 A23.5276 23.5276 7.47 0 1 36.85 1197.31 A23.5276 23.5276 -0 0 1 56.86 1197.31
							 L60.29 1199.29 L80.19 1210.77 A23.5276 23.5276 171.22 0 1 83.62 1212.75 A23.5276 23.5276 4.94 0 1 93.63
							 1230.09 L93.63 1234.05 L93.63 1257.02 L93.63 1260.98 A23.5276 23.5276 177.97 0 1 83.62 1278.32 L80.19
							 1280.3" class="st4"/>
				<path d="M60.29 1291.79 L56.86 1293.77" class="st4"/>
				<path d="M36.85 1293.77 A23.5276 23.5276 170.37 0 1 33.42 1291.79" class="st4"/>
				<path d="M13.52 1210.77 A23.5276 23.5276 -59.31 0 0 10.09 1212.75" class="st4"/>
				<path d="M33.42 1199.29 L36.85 1197.31" class="st4"/>
				<path d="M0.08 1234.05 L0.08 1230.09" class="st4"/>
				<path d="M56.86 1197.31 A23.5276 23.5276 171.22 0 1 60.29 1199.29" class="st4"/>
				<path d="M83.62 1212.75 L80.19 1210.77" class="st4"/>
			</g>
		</g>
		<g id="shape5-17" v:mID="5" v:groupContext="shape" transform="translate(620.402,-1253.3)">
			<title>Circle - radius</title>
			<v:userDefs>
				<v:ud v:nameU="visVersion" v:val="VT0(14):26"/>
			</v:userDefs>
			<path d="M-5.67 1296 A5.66929 5.66929 0 1 1 5.67 1296 A5.66929 5.66929 0 1 1 -5.67 1296 Z" class="st2"/>
		</g>
		<g id="shape6-19" v:mID="6" v:groupContext="shape" transform="translate(1204.93,1339.77) rotate(153.113)">
			<title>Circle - radius.6</title>
			<v:userDefs>
				<v:ud v:nameU="visVersion" v:val="VT0(14):26"/>
			</v:userDefs>
			<path d="M-5.64 1296 A5.64138 5.64138 0 0 1 5.64 1296 A5.64138 5.64138 0 0 1 -5.64 1296 Z" class="st2"/>
		</g>
		<g id="shape7-21" v:mID="7" v:groupContext="shape" transform="translate(550.103,-1086.05)">
			<title>Sheet.7</title>
			<path d="M14.17 1296 L42.52 1296 L42.52 1267.65 L56.69 1267.65 L56.69 1140.09 L56.69 1111.75 L28.35 1111.75 L28.35 1140.09
						 L0 1140.09 L0 1267.65 L0 1296 L14.17 1296 Z" class="st2"/>
		</g>
		<g id="shape8-23" v:mID="8" v:groupContext="shape" transform="translate(1092.36,-987.276) rotate(25.3567)">
			<title>Circle - radius.12</title>
			<v:userDefs>
				<v:ud v:nameU="visVersion" v:val="VT0(14):26"/>
			</v:userDefs>
			<path d="M-5.96 1296 A5.9572 5.9572 0 1 1 5.96 1296 A5.9572 5.9572 0 1 1 -5.96 1296 Z" class="st2"/>
		</g>
		<g id="shape9-25" v:mID="9" v:groupContext="shape" transform="translate(537.347,-1253.3)">
			<title>Circle - radius.9</title>
			<v:userDefs>
				<v:ud v:nameU="visVersion" v:val="VT0(14):26"/>
			</v:userDefs>
			<path d="M-5.39 1296 A5.38583 5.38583 0 0 1 5.39 1296 A5.38583 5.38583 0 0 1 -5.39 1296 Z" class="st2"/>
		</g>
		<g id="shape10-27" v:mID="10" v:groupContext="shape" transform="translate(344.874,-660.858)">
			<title>Rectangle.40</title>
			<v:userDefs>
				<v:ud v:nameU="visVersion" v:val="VT0(14):26"/>
			</v:userDefs>
			<rect x="0" y="1152" width="432" height="144" class="st1"/>
		</g>
		<g id="shape11-29" v:mID="11" v:groupContext="shape" transform="translate(-764.779,225.284) rotate(-90)">
			<title>Sheet.11</title>
			<desc>Pan/Tilt Mount</desc>
			<v:textBlock v:margins="rect(4,4,4,4)"/>
			<v:textRect cx="106.882" cy="1278.99" width="213.77" height="34.0157"/>
			<rect x="0" y="1261.98" width="213.764" height="34.0157" class="st5"/>
			<text x="57.42" y="1283.79" class="st6" v:langID="1033"><v:paragraph v:horizAlign="1"/><v:tabList/>Pan/Tilt Mount</text>		</g>
		<g id="shape12-32" v:mID="12" v:groupContext="shape" transform="translate(-773.118,369.787) rotate(-90)">
			<title>Sheet.12</title>
			<desc>Tube Inlet</desc>
			<v:textBlock v:margins="rect(4,4,4,4)"/>
			<v:textRect cx="81.7874" cy="1286.56" width="163.58" height="18.8819"/>
			<rect x="0" y="1277.12" width="163.575" height="18.8819" class="st5"/>
			<text x="48.98" y="1291.36" class="st6" v:langID="1033"><v:paragraph v:horizAlign="1"/><v:tabList/>Tube Inlet</text>		</g>
		<g id="shape13-35" v:mID="13" v:groupContext="shape" transform="translate(363.3,-682.118)">
			<title>Circle - radius.63</title>
			<v:userDefs>
				<v:ud v:nameU="visVersion" v:val="VT0(14):26"/>
			</v:userDefs>
			<path d="M-7.09 1296 A7.08661 7.08661 0 0 1 7.09 1296 A7.08661 7.08661 0 0 1 -7.09 1296 Z" class="st2"/>
		</g>
		<g id="shape14-37" v:mID="14" v:groupContext="shape" transform="translate(-932.7,514.67) rotate(-90)">
			<title>Circle - radius.77</title>
			<v:userDefs>
				<v:ud v:nameU="visVersion" v:val="VT0(14):26"/>
			</v:userDefs>
			<path d="M-7.09 1296 A7.08661 7.08661 0 0 1 7.09 1296 A7.08661 7.08661 0 0 1 -7.09 1296 Z" class="st2"/>
		</g>
		<g id="shape15-39" v:mID="15" v:groupContext="shape" transform="translate(759.3,-682.118)">
			<title>Circle - radius.97</title>
			<v:userDefs>
				<v:ud v:nameU="visVersion" v:val="VT0(14):26"/>
			</v:userDefs>
			<path d="M-7.09 1296 A7.08661 7.08661 0 0 1 7.09 1296 A7.08661 7.08661 0 0 1 -7.09 1296 Z" class="st2"/>
		</g>
		<g id="shape16-41" v:mID="16" v:groupContext="shape" transform="translate(759.3,-781.33)">
			<title>Circle - radius.114</title>
			<v:userDefs>
				<v:ud v:nameU="visVersion" v:val="VT0(14):26"/>
			</v:userDefs>
			<path d="M-7.09 1296 A7.08661 7.08661 0 0 1 7.09 1296 A7.08661 7.08661 0 0 1 -7.09 1296 Z" class="st2"/>
		</g>
		<g id="shape17-43" v:mID="17" v:groupContext="shape" transform="translate(238.292,-469.519)">
			<title>Rectangle</title>
			<v:userDefs>
				<v:ud v:nameU="visVersion" v:val="VT0(14):26"/>
			</v:userDefs>
			<rect x="0" y="1118.83" width="708.661" height="177.165" class="st1"/>
		</g>
		<g id="shape18-45" v:mID="18" v:groupContext="shape" transform="translate(314.827,2033.9) rotate(180)">
			<title>Circle - radius.156</title>
			<v:userDefs>
				<v:ud v:nameU="visVersion" v:val="VT0(14):26"/>
			</v:userDefs>
			<path d="M-7.09 1296 A7.08661 7.08661 0 0 1 7.09 1296 A7.08661 7.08661 0 0 1 -7.09 1296 Z" class="st2"/>
		</g>
		<g id="shape19-47" v:mID="19" v:groupContext="shape" transform="translate(842.071,-558.102)">
			<title>Circle - radius.159</title>
			<v:userDefs>
				<v:ud v:nameU="visVersion" v:val="VT0(14):26"/>
			</v:userDefs>
			<path d="M-7.09 1296 A7.08661 7.08661 0 0 1 7.09 1296 A7.08661 7.08661 0 0 1 -7.09 1296 Z" class="st2"/>
		</g>
		<g id="shape20-49" v:mID="20" v:groupContext="shape" transform="translate(479.237,-722.992)">
			<title>Sheet.20</title>
			<desc>Air Compressor</desc>
			<v:textBlock v:margins="rect(4,4,4,4)"/>
			<v:textRect cx="103.465" cy="1287.27" width="206.93" height="17.4646"/>
			<rect x="0" y="1278.54" width="206.929" height="17.4646" class="st5"/>
			<text x="53.29" y="1292.07" class="st6" v:langID="1033"><v:paragraph v:horizAlign="1"/><v:tabList/>Air Compressor</text>		</g>
		<g id="shape21-52" v:mID="21" v:groupContext="shape" transform="translate(493.41,-552.559)">
			<title>Sheet.21</title>
			<desc>Air Tank</desc>
			<v:textBlock v:margins="rect(4,4,4,4)"/>
			<v:textRect cx="79.9528" cy="1286.91" width="159.91" height="18.1732"/>
			<rect x="0" y="1277.83" width="159.906" height="18.1732" class="st5"/>
			<text x="53.32" y="1291.71" class="st6" v:langID="1033"><v:paragraph v:horizAlign="1"/><v:tabList/>Air Tank</text>		</g>
		<g id="shape22-55" v:mID="22" v:groupContext="shape" transform="translate(449.473,-320.7)">
			<title>Circle - diameter</title>
			<v:userDefs>
				<v:ud v:nameU="visVersion" v:val="VT0(14):26"/>
			</v:userDefs>
			<path d="M0 1296 A128.976 128.976 0 1 1 257.95 1296 A128.976 128.976 0 1 1 0 1296 Z" class="st1"/>
		</g>
		<g id="shape23-57" v:mID="23" v:groupContext="shape" transform="translate(-626.074,387.332) rotate(-68.344)">
			<title>Circle - radius.168</title>
			<v:userDefs>
				<v:ud v:nameU="visVersion" v:val="VT0(14):26"/>
			</v:userDefs>
			<path d="M-7.65 1296 A7.65354 7.65354 0 0 1 7.65 1296 A7.65354 7.65354 0 0 1 -7.65 1296 Z" class="st2"/>
		</g>
		<g id="shape24-59" v:mID="24" v:groupContext="shape" transform="translate(469.882,-320.7)">
			<title>Circle - radius.170</title>
			<v:userDefs>
				<v:ud v:nameU="visVersion" v:val="VT0(14):26"/>
			</v:userDefs>
			<path d="M-7.65 1296 A7.65354 7.65354 0 1 1 7.65 1296 A7.65354 7.65354 0 1 1 -7.65 1296 Z" class="st2"/>
		</g>
		<g id="shape25-61" v:mID="25" v:groupContext="shape" transform="translate(-717.551,1083.87) rotate(-90)">
			<title>Circle - radius.172</title>
			<v:userDefs>
				<v:ud v:nameU="visVersion" v:val="VT0(14):26"/>
			</v:userDefs>
			<path d="M-7.65 1296 A7.65354 7.65354 0 1 1 7.65 1296 A7.65354 7.65354 0 1 1 -7.65 1296 Z" class="st2"/>
		</g>
		<g id="shape26-63" v:mID="26" v:groupContext="shape" transform="translate(686.733,2271.3) rotate(180)">
			<title>Circle - radius.175</title>
			<v:userDefs>
				<v:ud v:nameU="visVersion" v:val="VT0(14):26"/>
			</v:userDefs>
			<path d="M-7.65 1296 A7.65354 7.65354 0 1 1 7.65 1296 A7.65354 7.65354 0 1 1 -7.65 1296 Z" class="st2"/>
		</g>
		<g id="shape27-65" v:mID="27" v:groupContext="shape" transform="translate(475.819,-320.7)">
			<title>Sheet.27</title>
			<desc>Warning Light</desc>
			<v:textBlock v:margins="rect(4,4,4,4)"/>
			<v:textRect cx="102.63" cy="1286.2" width="205.26" height="19.5906"/>
			<rect x="0" y="1276.41" width="205.26" height="19.5906" class="st5"/>
			<text x="57.23" y="1291.01" class="st6" v:langID="1033"><v:paragraph v:horizAlign="1"/><v:tabList/>Warning Light</text>		</g>
		<g id="shape28-68" v:mID="28" v:groupContext="shape" transform="translate(107.898,-969.834)">
			<title>Circle - radius.190</title>
			<v:userDefs>
				<v:ud v:nameU="visVersion" v:val="VT0(14):26"/>
			</v:userDefs>
			<path d="M-9.92 1296 A9.92126 9.92126 0 0 1 9.92 1296 A9.92126 9.92126 0 0 1 -9.92 1296 Z" class="st2"/>
		</g>
		<g id="shape29-70" v:mID="29" v:groupContext="shape" transform="translate(1051.83,-969.834)">
			<title>Circle - radius.191</title>
			<v:userDefs>
				<v:ud v:nameU="visVersion" v:val="VT0(14):26"/>
			</v:userDefs>
			<path d="M-9.92 1296 A9.92126 9.92126 0 1 1 9.92 1296 A9.92126 9.92126 0 1 1 -9.92 1296 Z" class="st2"/>
		</g>
		<g id="shape30-72" v:mID="30" v:groupContext="shape" transform="translate(1049,-468.102)">
			<title>Circle - radius.192</title>
			<v:userDefs>
				<v:ud v:nameU="visVersion" v:val="VT0(14):26"/>
			</v:userDefs>
			<path d="M-9.92 1296 A9.92126 9.92126 0 1 1 9.92 1296 A9.92126 9.92126 0 1 1 -9.92 1296 Z" class="st2"/>
		</g>
		<g id="shape31-74" v:mID="31" v:groupContext="shape" transform="translate(107.898,-468.102)">
			<title>Circle - radius.193</title>
			<v:userDefs>
				<v:ud v:nameU="visVersion" v:val="VT0(14):26"/>
			</v:userDefs>
			<path d="M-9.92 1296 A9.92126 9.92126 0 0 1 9.92 1296 A9.92126 9.92126 0 0 1 -9.92 1296 Z" class="st2"/>
		</g>
		<g id="shape32-76" v:mID="32" v:groupContext="shape" transform="translate(876.087,-1080.39)">
			<title>Circle - radius.189</title>
			<v:userDefs>
				<v:ud v:nameU="visVersion" v:val="VT0(14):26"/>
			</v:userDefs>
			<path d="M-28.35 1296 A28.3465 28.3465 0 0 1 28.35 1296 A28.3465 28.3465 0 0 1 -28.35 1296 Z" class="st2"/>
		</g>
		<g id="shape33-78" v:mID="33" v:groupContext="shape" transform="translate(833.567,-907.472)">
			<title>Circle - radius.195</title>
			<v:userDefs>
				<v:ud v:nameU="visVersion" v:val="VT0(14):26"/>
			</v:userDefs>
			<path d="M-4.96 1296 A4.96063 4.96063 0 0 1 4.96 1296 A4.96063 4.96063 0 0 1 -4.96 1296 Z" class="st2"/>
		</g>
		<g id="shape34-80" v:mID="34" v:groupContext="shape" transform="translate(909.394,-907.472)">
			<title>Circle - radius.196</title>
			<v:userDefs>
				<v:ud v:nameU="visVersion" v:val="VT0(14):26"/>
			</v:userDefs>
			<path d="M-4.96 1296 A4.96063 4.96063 0 0 1 4.96 1296 A4.96063 4.96063 0 0 1 -4.96 1296 Z" class="st2"/>
		</g>
		<g id="shape35-82" v:mID="35" v:groupContext="shape" transform="translate(828,-919.953)">
			<title>Sheet.35</title>
			<desc>Valve</desc>
			<v:textBlock v:margins="rect(4,4,4,4)"/>
			<v:textRect cx="45" cy="1287.98" width="90" height="16.0472"/>
			<rect x="0" y="1279.95" width="90" height="16.0472" class="st5"/>
			<text x="27.2" y="1292.78" class="st6" v:langID="1033"><v:paragraph v:horizAlign="1"/><v:tabList/>Valve</text>		</g>
		<g id="shape36-85" v:mID="36" v:groupContext="shape" transform="translate(45.5357,-737.393)">
			<title>Rectangle.198</title>
			<v:userDefs>
				<v:ud v:nameU="visVersion" v:val="VT0(14):26"/>
			</v:userDefs>
			<rect x="0" y="1145.76" width="192.756" height="150.236" class="st1"/>
		</g>
		<g id="shape37-87" v:mID="37" v:groupContext="shape" transform="translate(-992.707,1130.7) rotate(-123.496)">
			<title>Circle - radius.199</title>
			<v:userDefs>
				<v:ud v:nameU="visVersion" v:val="VT0(14):26"/>
			</v:userDefs>
			<path d="M-4.96 1296 A4.96063 4.96063 0 0 1 4.96 1296 A4.96063 4.96063 0 0 1 -4.96 1296 Z" class="st2"/>
		</g>
		<g id="shape38-89" v:mID="38" v:groupContext="shape" transform="translate(1488.51,853.09) rotate(104.036)">
			<title>Circle - radius.200</title>
			<v:userDefs>
				<v:ud v:nameU="visVersion" v:val="VT0(14):26"/>
			</v:userDefs>
			<path d="M-4.96 1296 A4.96063 4.96063 0 0 1 4.96 1296 A4.96063 4.96063 0 0 1 -4.96 1296 Z" class="st2"/>
		</g>
		<g id="shape39-91" v:mID="39" v:groupContext="shape" transform="translate(1525.59,524.113) rotate(92.8624)">
			<title>Circle - radius.201</title>
			<v:userDefs>
				<v:ud v:nameU="visVersion" v:val="VT0(14):26"/>
			</v:userDefs>
			<path d="M-4.96 1296 A4.96063 4.96063 0 0 1 4.96 1296 A4.96063 4.96063 0 0 1 -4.96 1296 Z" class="st2"/>
		</g>
		<g id="shape40-93" v:mID="40" v:groupContext="shape" transform="translate(68.2129,-802.134)">
			<title>Sheet.40</title>
			<desc>Arduino</desc>
			<v:textBlock v:margins="rect(4,4,4,4)"/>
			<v:textRect cx="72.8661" cy="1285.85" width="145.74" height="20.2992"/>
			<rect x="0" y="1275.7" width="145.732" height="20.2992" class="st5"/>
			<text x="46.78" y="1290.65" class="st6" v:langID="1033"><v:paragraph v:horizAlign="1"/><v:tabList/>Arduino</text>		</g>
		<g id="shape41-96" v:mID="41" v:groupContext="shape" transform="translate(244.418,-898.614)">
			<title>Rectangle.203</title>
			<v:userDefs>
				<v:ud v:nameU="visVersion" v:val="VT0(14):26"/>
			</v:userDefs>
			<rect x="0" y="1034.5" width="150.236" height="261.496" class="st1"/>
		</g>
		<g id="shape42-98" v:mID="42" v:groupContext="shape" transform="translate(-777.846,770.113) rotate(-118.014)">
			<title>Circle - radius.204</title>
			<v:userDefs>
				<v:ud v:nameU="visVersion" v:val="VT0(14):26"/>
			</v:userDefs>
			<path d="M-5.67 1296 A5.66929 5.66929 0 0 1 5.67 1296 A5.66929 5.66929 0 0 1 -5.67 1296 Z" class="st2"/>
		</g>
		<g id="shape43-100" v:mID="43" v:groupContext="shape" transform="translate(-533.491,-852.147) rotate(-38.5505)">
			<title>Circle - radius.205</title>
			<v:userDefs>
				<v:ud v:nameU="visVersion" v:val="VT0(14):26"/>
			</v:userDefs>
			<path d="M-5.67 1296 A5.66929 5.66929 0 0 1 5.67 1296 A5.66929 5.66929 0 0 1 -5.67 1296 Z" class="st2"/>
		</g>
		<g id="shape44-102" v:mID="44" v:groupContext="shape" transform="translate(820.206,1587.07) rotate(159.499)">
			<title>Circle - radius.206</title>
			<v:userDefs>
				<v:ud v:nameU="visVersion" v:val="VT0(14):26"/>
			</v:userDefs>
			<path d="M-5.67 1296 A5.66929 5.66929 0 0 1 5.67 1296 A5.66929 5.66929 0 0 1 -5.67 1296 Z" class="st2"/>
		</g>
		<g id="shape45-104" v:mID="45" v:groupContext="shape" transform="translate(679.037,-857.991) rotate(18.2033)">
			<title>Circle - radius.207</title>
			<v:userDefs>
				<v:ud v:nameU="visVersion" v:val="VT0(14):26"/>
			</v:userDefs>
			<path d="M-5.67 1296 A5.66929 5.66929 0 0 1 5.67 1296 A5.66929 5.66929 0 0 1 -5.67 1296 Z" class="st2"/>
		</g>
		<g id="shape46-106" v:mID="46" v:groupContext="shape" transform="translate(254.162,-1021.69)">
			<title>Sheet.46</title>
			<desc>Transistors</desc>
			<v:textBlock v:margins="rect(4,4,4,4)"/>
			<v:textRect cx="65.3742" cy="1288.33" width="130.75" height="15.3386"/>
			<rect x="0" y="1280.66" width="130.748" height="15.3386" class="st5"/>
			<text x="29.74" y="1293.13" class="st6" v:langID="1033"><v:paragraph v:horizAlign="1"/><v:tabList/>Transistors</text>		</g>
		<g id="shape47-109" v:mID="47" v:groupContext="shape" transform="translate(794.535,-1020.58)">
			<title>Sheet.47</title>
			<desc>Tube Outlet</desc>
			<v:textBlock v:margins="rect(4,4,4,4)"/>
			<v:textRect cx="81.7874" cy="1286.56" width="163.58" height="18.8819"/>
			<rect x="0" y="1277.12" width="163.575" height="18.8819" class="st5"/>
			<text x="43.02" y="1291.36" class="st6" v:langID="1033"><v:paragraph v:horizAlign="1"/><v:tabList/>Tube Outlet</text>		</g>
	</g>
</svg>
